<svg version="1.1" viewBox="0.0 0.0 960.0 540.0" fill="none" stroke="none" stroke-linecap="square" stroke-miterlimit="10" xmlns:xlink="http://www.w3.org/1999/xlink" xmlns="http://www.w3.org/2000/svg"><clipPath id="g3ad972ec7a3_0_0.0"><path d="m0 0l960.0 0l0 540.0l-960.0 0l0 -540.0z" clip-rule="nonzero"/></clipPath><g clip-path="url(#g3ad972ec7a3_0_0.0)"><path fill="#ffffff" d="m0 0l960.0 0l0 540.0l-960.0 0z" fill-rule="evenodd"/><path fill="#000000" fill-opacity="0.0" d="m80.75328 43.31434l529.8268 0l0 469.95276l-529.8268 0z" fill-rule="evenodd"/><path stroke="#b7b7b7" stroke-width="1.8766404199475066" stroke-linejoin="round" stroke-linecap="butt" d="m80.75328 43.31434l529.8268 0l0 469.95276l-529.8268 0z" fill-rule="evenodd"/><path fill="#000000" fill-opacity="0.0" d="m93.9107 455.3122l124.850395 0l0 40.283478l-124.850395 0z" fill-rule="evenodd"/><path fill="#666666" d="m123.86217 482.3154l0 -10.46875q0 -1.734375 1.03125 -2.765625q1.03125 -1.046875 2.921875 -1.046875q0.65625 0 1.25 0.140625q0.609375 0.125 1.03125 0.40625l-0.78125 2.15625q-0.25 -0.171875 -0.5625 -0.265625q-0.296875 -0.09375 -0.640625 -0.09375q-0.65625 0 -1.015625 0.375q-0.34375 0.359375 -0.34375 1.109375l0 0.953125l0.078125 1.265625l0 8.234375l-2.96875 0zm-1.578125 -7.734375l0 -2.28125l7.09375 0l0 2.28125l-7.09375 0zm8.671875 7.734375l0 -10.25l2.96875 0l0 10.25l-2.96875 0zm1.484375 -11.671875q-0.828125 0 -1.34375 -0.46875q-0.515625 -0.484375 -0.515625 -1.1875q0 -0.703125 0.515625 -1.171875q0.515625 -0.484375 1.34375 -0.484375q0.8125 0 1.328125 0.453125q0.515625 0.4375 0.515625 1.140625q0 0.75 -0.515625 1.234375q-0.5 0.484375 -1.328125 0.484375zm4.223831 11.671875l0 -14.125l2.96875 0l0 14.125l-2.96875 0zm10.811203 0.15625q-1.75 0 -3.078125 -0.6875q-1.3125 -0.6875 -2.046875 -1.875q-0.71875 -1.1875 -0.71875 -2.71875q0 -1.546875 0.703125 -2.734375q0.71875 -1.1875 1.953125 -1.859375q1.25 -0.6875 2.8125 -0.6875q1.5 0 2.703125 0.640625q1.21875 0.640625 1.921875 1.828125q0.703125 1.1875 0.703125 2.859375q0 0.15625 -0.015625 0.390625q-0.015625 0.21875 -0.03125 0.40625l-8.328125 0l0 -1.734375l6.765625 0l-1.15625 0.515625q0 -0.796875 -0.328125 -1.390625q-0.3125 -0.59375 -0.890625 -0.921875q-0.5625 -0.34375 -1.328125 -0.34375q-0.765625 0 -1.34375 0.34375q-0.578125 0.328125 -0.90625 0.9375q-0.3125 0.59375 -0.3125 1.40625l0 0.453125q0 0.84375 0.359375 1.484375q0.375 0.640625 1.046875 0.96875q0.6875 0.328125 1.59375 0.328125q0.828125 0 1.4375 -0.234375q0.625 -0.25 1.140625 -0.75l1.578125 1.71875q-0.703125 0.796875 -1.78125 1.234375q-1.0625 0.421875 -2.453125 0.421875zm8.065399 0q-0.765625 0 -1.3125 -0.515625q-0.546875 -0.53125 -0.546875 -1.359375q0 -0.8125 0.546875 -1.3125q0.546875 -0.515625 1.3125 -0.515625q0.78125 0 1.3125 0.515625q0.53125 0.5 0.53125 1.3125q0 0.828125 -0.53125 1.359375q-0.53125 0.515625 -1.3125 0.515625zm3.2902374 3.6875q-0.6875 0 -1.3125 -0.140625q-0.625 -0.140625 -1.0625 -0.421875l0.796875 -2.15625q0.515625 0.359375 1.25 0.359375q0.5625 0 0.890625 -0.375q0.328125 -0.359375 0.328125 -1.109375l0 -10.25l2.96875 0l0 10.234375q0 1.765625 -1.015625 2.8125q-1.0 1.046875 -2.84375 1.046875zm2.390625 -15.515625q-0.828125 0 -1.34375 -0.46875q-0.515625 -0.484375 -0.515625 -1.1875q0 -0.703125 0.515625 -1.171875q0.515625 -0.484375 1.34375 -0.484375q0.8125 0 1.328125 0.453125q0.515625 0.4375 0.515625 1.140625q0 0.75 -0.515625 1.234375q-0.5 0.484375 -1.328125 0.484375zm10.269241 11.828125q-1.28125 0 -2.265625 -0.5625q-0.96875 -0.578125 -1.515625 -1.75q-0.53125 -1.171875 -0.53125 -2.96875q0 -1.8125 0.515625 -2.96875q0.515625 -1.15625 1.484375 -1.734375q0.96875 -0.578125 2.3125 -0.578125q1.453125 0 2.609375 0.671875q1.15625 0.65625 1.828125 1.84375q0.671875 1.171875 0.671875 2.765625q0 1.625 -0.671875 2.8125q-0.671875 1.171875 -1.828125 1.828125q-1.15625 0.640625 -2.609375 0.640625zm-6.046875 3.53125l0 -13.9375l2.828125 0l0 2.09375l-0.046875 3.046875l0.1875 3.03125l0 5.765625l-2.96875 0zm5.53125 -5.96875q0.75 0 1.328125 -0.34375q0.578125 -0.34375 0.921875 -0.984375q0.359375 -0.640625 0.359375 -1.515625q0 -0.890625 -0.359375 -1.515625q-0.34375 -0.640625 -0.921875 -0.984375q-0.578125 -0.34375 -1.328125 -0.34375q-0.734375 0 -1.328125 0.34375q-0.59375 0.34375 -0.9375 0.984375q-0.34375 0.625 -0.34375 1.515625q0 0.875 0.34375 1.515625q0.34375 0.640625 0.9375 0.984375q0.59375 0.34375 1.328125 0.34375zm12.423538 6.125q-1.4375 0 -2.78125 -0.359375q-1.34375 -0.34375 -2.25 -1.046875l1.1875 -2.125q0.640625 0.53125 1.640625 0.84375q1.0 0.3125 1.984375 0.3125q1.578125 0 2.28125 -0.703125q0.71875 -0.703125 0.71875 -2.09375l0 -1.546875l0.1875 -2.578125l-0.03125 -2.578125l0 -2.21875l2.8125 0l0 8.53125q0 2.859375 -1.484375 4.203125q-1.484375 1.359375 -4.265625 1.359375zm-0.453125 -4.34375q-1.4375 0 -2.59375 -0.609375q-1.140625 -0.625 -1.84375 -1.734375q-0.6875 -1.125 -0.6875 -2.609375q0 -1.5 0.6875 -2.609375q0.703125 -1.125 1.84375 -1.734375q1.15625 -0.609375 2.59375 -0.609375q1.296875 0 2.28125 0.53125q1.0 0.515625 1.546875 1.625q0.546875 1.09375 0.546875 2.796875q0 1.703125 -0.546875 2.796875q-0.546875 1.09375 -1.546875 1.625q-0.984375 0.53125 -2.28125 0.53125zm0.59375 -2.4375q0.78125 0 1.390625 -0.3125q0.609375 -0.3125 0.953125 -0.875q0.34375 -0.578125 0.34375 -1.328125q0 -0.75 -0.34375 -1.3125q-0.34375 -0.5625 -0.953125 -0.875q-0.609375 -0.328125 -1.390625 -0.328125q-0.78125 0 -1.390625 0.328125q-0.609375 0.3125 -0.96875 0.875q-0.34375 0.5625 -0.34375 1.3125q0 0.75 0.34375 1.328125q0.359375 0.5625 0.96875 0.875q0.609375 0.3125 1.390625 0.3125z" fill-rule="nonzero"/><path fill="#000000" fill-opacity="0.0" d="m308.92578 455.2936l124.85037 0l0 40.283478l-124.85037 0z" fill-rule="evenodd"/><path fill="#666666" d="m336.4299 482.2968l0 -10.46875q0 -1.734375 1.03125 -2.765625q1.03125 -1.046875 2.921875 -1.046875q0.65625 0 1.25 0.140625q0.609375 0.125 1.03125 0.40625l-0.78125 2.15625q-0.25 -0.171875 -0.5625 -0.265625q-0.296875 -0.09375 -0.640625 -0.09375q-0.65625 0 -1.015625 0.375q-0.34375 0.359375 -0.34375 1.109375l0 0.953125l0.078125 1.265625l0 8.234375l-2.96875 0zm-1.578125 -7.734375l0 -2.28125l7.09375 0l0 2.28125l-7.09375 0zm8.671875 7.734375l0 -10.25l2.96875 0l0 10.25l-2.96875 0zm1.484375 -11.671875q-0.828125 0 -1.34375 -0.46875q-0.515625 -0.484375 -0.515625 -1.1875q0 -0.703125 0.515625 -1.171875q0.515625 -0.484375 1.34375 -0.484375q0.8125 0 1.328125 0.453125q0.515625 0.4375 0.515625 1.140625q0 0.75 -0.515625 1.234375q-0.5 0.484375 -1.328125 0.484375zm4.223816 11.671875l0 -14.125l2.96875 0l0 14.125l-2.96875 0zm10.811218 0.15625q-1.75 0 -3.078125 -0.6875q-1.3125 -0.6875 -2.046875 -1.875q-0.71875 -1.1875 -0.71875 -2.71875q0 -1.546875 0.703125 -2.734375q0.71875 -1.1875 1.953125 -1.859375q1.25 -0.6875 2.8125 -0.6875q1.5 0 2.703125 0.640625q1.21875 0.640625 1.921875 1.828125q0.703125 1.1875 0.703125 2.859375q0 0.15625 -0.015625 0.390625q-0.015625 0.21875 -0.03125 0.40625l-8.328125 0l0 -1.734375l6.765625 0l-1.15625 0.515625q0 -0.796875 -0.328125 -1.390625q-0.3125 -0.59375 -0.890625 -0.921875q-0.5625 -0.34375 -1.328125 -0.34375q-0.765625 0 -1.34375 0.34375q-0.578125 0.328125 -0.90625 0.9375q-0.3125 0.59375 -0.3125 1.40625l0 0.453125q0 0.84375 0.359375 1.484375q0.375 0.640625 1.046875 0.96875q0.6875 0.328125 1.59375 0.328125q0.828125 0 1.4375 -0.234375q0.625 -0.25 1.140625 -0.75l1.578125 1.71875q-0.703125 0.796875 -1.78125 1.234375q-1.0625 0.421875 -2.453125 0.421875zm8.065399 0q-0.765625 0 -1.3125 -0.515625q-0.546875 -0.53125 -0.546875 -1.359375q0 -0.8125 0.546875 -1.3125q0.546875 -0.515625 1.3125 -0.515625q0.78125 0 1.3125 0.515625q0.53125 0.5 0.53125 1.3125q0 0.828125 -0.53125 1.359375q-0.53125 0.515625 -1.3125 0.515625zm3.865265 -0.15625l0 -10.25l2.828125 0l0 2.84375l-0.53125 -0.859375q0.5625 -1.03125 1.578125 -1.578125q1.03125 -0.5625 2.34375 -0.5625q1.21875 0 2.1875 0.5q0.96875 0.484375 1.515625 1.484375q0.546875 1.0 0.546875 2.5625l0 5.859375l-2.96875 0l0 -5.40625q0 -1.234375 -0.546875 -1.828125q-0.53125 -0.59375 -1.53125 -0.59375q-0.703125 0 -1.265625 0.296875q-0.5625 0.296875 -0.875 0.90625q-0.3125 0.609375 -0.3125 1.5625l0 5.0625l-2.96875 0zm19.20819 0.15625q-1.28125 0 -2.265625 -0.5625q-0.96875 -0.578125 -1.515625 -1.75q-0.53125 -1.171875 -0.53125 -2.96875q0 -1.8125 0.515625 -2.96875q0.515625 -1.15625 1.484375 -1.734375q0.96875 -0.578125 2.3125 -0.578125q1.453125 0 2.609375 0.671875q1.15625 0.65625 1.828125 1.84375q0.671875 1.171875 0.671875 2.765625q0 1.625 -0.671875 2.8125q-0.671875 1.171875 -1.828125 1.828125q-1.15625 0.640625 -2.609375 0.640625zm-6.046875 3.53125l0 -13.9375l2.828125 0l0 2.09375l-0.046875 3.046875l0.1875 3.03125l0 5.765625l-2.96875 0zm5.53125 -5.96875q0.75 0 1.328125 -0.34375q0.578125 -0.34375 0.921875 -0.984375q0.359375 -0.640625 0.359375 -1.515625q0 -0.890625 -0.359375 -1.515625q-0.34375 -0.640625 -0.921875 -0.984375q-0.578125 -0.34375 -1.328125 -0.34375q-0.734375 0 -1.328125 0.34375q-0.59375 0.34375 -0.9375 0.984375q-0.34375 0.625 -0.34375 1.515625q0 0.875 0.34375 1.515625q0.34375 0.640625 0.9375 0.984375q0.59375 0.34375 1.328125 0.34375zm8.62204 6.125q-0.8125 0 -1.59375 -0.25q-0.765625 -0.234375 -1.265625 -0.671875l1.078125 -2.125q0.34375 0.3125 0.796875 0.484375q0.453125 0.171875 0.890625 0.171875q0.625 0 0.984375 -0.296875q0.375 -0.296875 0.6875 -0.984375l0.53125 -1.25l0.234375 -0.328125l3.671875 -8.84375l2.859375 0l-4.640625 10.875q-0.484375 1.234375 -1.125 1.9375q-0.640625 0.71875 -1.421875 1.0q-0.765625 0.28125 -1.6875 0.28125zm1.75 -3.4375l-4.578125 -10.65625l3.078125 0l3.53125 8.578125l-2.03125 2.078125z" fill-rule="nonzero"/><path fill="#000000" fill-opacity="0.0" d="m455.9512 455.56323l124.85037 0l0 40.283447l-124.85037 0z" fill-rule="evenodd"/><path fill="#666666" d="m481.26477 482.5664l0 -10.46875q0 -1.734375 1.03125 -2.765625q1.03125 -1.046875 2.921875 -1.046875q0.65625 0 1.25 0.140625q0.609375 0.125 1.03125 0.40625l-0.78125 2.15625q-0.25 -0.171875 -0.5625 -0.265625q-0.296875 -0.09375 -0.640625 -0.09375q-0.65625 0 -1.015625 0.375q-0.34375 0.359375 -0.34375 1.109375l0 0.953125l0.078125 1.265625l0 8.234375l-2.96875 0zm-1.578125 -7.734375l0 -2.28125l7.09375 0l0 2.28125l-7.09375 0zm8.671875 7.734375l0 -10.25l2.96875 0l0 10.25l-2.96875 0zm1.484375 -11.671875q-0.828125 0 -1.34375 -0.46875q-0.515625 -0.484375 -0.515625 -1.1875q0 -0.703125 0.515625 -1.171875q0.515625 -0.484375 1.34375 -0.484375q0.8125 0 1.328125 0.453125q0.515625 0.4375 0.515625 1.140625q0 0.75 -0.515625 1.234375q-0.5 0.484375 -1.328125 0.484375zm4.2238464 11.671875l0 -14.125l2.96875 0l0 14.125l-2.96875 0zm10.811188 0.15625q-1.75 0 -3.078125 -0.6875q-1.3125 -0.6875 -2.046875 -1.875q-0.71875 -1.1875 -0.71875 -2.71875q0 -1.546875 0.703125 -2.734375q0.71875 -1.1875 1.953125 -1.859375q1.25 -0.6875 2.8125 -0.6875q1.5 0 2.703125 0.640625q1.21875 0.640625 1.921875 1.828125q0.703125 1.1875 0.703125 2.859375q0 0.15625 -0.015625 0.390625q-0.015625 0.21875 -0.03125 0.40625l-8.328125 0l0 -1.734375l6.765625 0l-1.15625 0.515625q0 -0.796875 -0.328125 -1.390625q-0.3125 -0.59375 -0.890625 -0.921875q-0.5625 -0.34375 -1.328125 -0.34375q-0.765625 0 -1.34375 0.34375q-0.578125 0.328125 -0.90625 0.9375q-0.3125 0.59375 -0.3125 1.40625l0 0.453125q0 0.84375 0.359375 1.484375q0.375 0.640625 1.046875 0.96875q0.6875 0.328125 1.59375 0.328125q0.828125 0 1.4375 -0.234375q0.625 -0.25 1.140625 -0.75l1.578125 1.71875q-0.703125 0.796875 -1.78125 1.234375q-1.0625 0.421875 -2.453125 0.421875zm8.06543 0q-0.765625 0 -1.3125305 -0.515625q-0.546875 -0.53125 -0.546875 -1.359375q0 -0.8125 0.546875 -1.3125q0.5469055 -0.515625 1.3125305 -0.515625q0.78125 0 1.3125 0.515625q0.53125 0.5 0.53125 1.3125q0 0.828125 -0.53125 1.359375q-0.53125 0.515625 -1.3125 0.515625zm3.2902222 3.6875q-0.6875 0 -1.3125 -0.140625q-0.625 -0.140625 -1.0625 -0.421875l0.796875 -2.15625q0.515625 0.359375 1.25 0.359375q0.5625 0 0.890625 -0.375q0.328125 -0.359375 0.328125 -1.109375l0 -10.25l2.96875 0l0 10.234375q0 1.765625 -1.015625 2.8125q-1.0 1.046875 -2.84375 1.046875zm2.390625 -15.515625q-0.828125 0 -1.34375 -0.46875q-0.515625 -0.484375 -0.515625 -1.1875q0 -0.703125 0.515625 -1.171875q0.515625 -0.484375 1.34375 -0.484375q0.8125 0 1.328125 0.453125q0.515625 0.4375 0.515625 1.140625q0 0.75 -0.515625 1.234375q-0.5 0.484375 -1.328125 0.484375zm7.659851 11.828125q-1.3125 0 -2.53125 -0.3125q-1.203125 -0.3125 -1.90625 -0.796875l1.0 -2.125q0.703125 0.4375 1.65625 0.71875q0.96875 0.265625 1.90625 0.265625q1.03125 0 1.453125 -0.25q0.421875 -0.25 0.421875 -0.6875q0 -0.359375 -0.328125 -0.53125q-0.328125 -0.1875 -0.890625 -0.28125q-0.546875 -0.09375 -1.203125 -0.1875q-0.65625 -0.109375 -1.328125 -0.265625q-0.65625 -0.15625 -1.21875 -0.484375q-0.546875 -0.328125 -0.890625 -0.875q-0.328125 -0.546875 -0.328125 -1.421875q0 -0.984375 0.5625 -1.71875q0.5625 -0.75 1.625 -1.171875q1.078125 -0.4375 2.5625 -0.4375q1.046875 0 2.125 0.234375q1.09375 0.234375 1.8125 0.671875l-0.984375 2.109375q-0.75 -0.4375 -1.5 -0.59375q-0.75 -0.171875 -1.453125 -0.171875q-1.0 0 -1.453125 0.265625q-0.453125 0.265625 -0.453125 0.6875q0 0.390625 0.328125 0.578125q0.34375 0.1875 0.890625 0.3125q0.546875 0.109375 1.203125 0.203125q0.65625 0.078125 1.328125 0.25q0.671875 0.171875 1.203125 0.484375q0.546875 0.3125 0.890625 0.859375q0.34375 0.53125 0.34375 1.40625q0 0.953125 -0.578125 1.6875q-0.5625 0.734375 -1.640625 1.15625q-1.078125 0.421875 -2.625 0.421875zm11.551331 0q-1.640625 0 -2.90625 -0.6875q-1.265625 -0.6875 -2.0 -1.875q-0.734375 -1.1875 -0.734375 -2.71875q0 -1.546875 0.734375 -2.734375q0.734375 -1.1875 2.0 -1.859375q1.265625 -0.6875 2.90625 -0.6875q1.609375 0 2.890625 0.6875q1.28125 0.671875 2.0 1.859375q0.71875 1.171875 0.71875 2.734375q0 1.53125 -0.71875 2.71875q-0.71875 1.1875 -2.0 1.875q-1.28125 0.6875 -2.890625 0.6875zm0 -2.4375q0.734375 0 1.328125 -0.34375q0.59375 -0.34375 0.9375 -0.984375q0.34375 -0.640625 0.34375 -1.515625q0 -0.890625 -0.34375 -1.515625q-0.34375 -0.640625 -0.9375 -0.984375q-0.59375 -0.34375 -1.328125 -0.34375q-0.75 0 -1.34375 0.34375q-0.578125 0.34375 -0.9375 0.984375q-0.34375 0.625 -0.34375 1.515625q0 0.875 0.34375 1.515625q0.359375 0.640625 0.9375 0.984375q0.59375 0.34375 1.34375 0.34375zm7.600647 2.28125l0 -10.25l2.828125 0l0 2.84375l-0.53125 -0.859375q0.5625 -1.03125 1.578125 -1.578125q1.03125 -0.5625 2.34375 -0.5625q1.21875 0 2.1875 0.5q0.96875 0.484375 1.515625 1.484375q0.546875 1.0 0.546875 2.5625l0 5.859375l-2.96875 0l0 -5.40625q0 -1.234375 -0.546875 -1.828125q-0.53125 -0.59375 -1.53125 -0.59375q-0.703125 0 -1.265625 0.296875q-0.5625 0.296875 -0.875 0.90625q-0.3125 0.609375 -0.3125 1.5625l0 5.0625l-2.96875 0z" fill-rule="nonzero"/><path fill="#000000" fill-opacity="0.0" d="m376.18445 298.63135l124.8504 0l0 40.283478l-124.8504 0z" fill-rule="evenodd"/><path fill="#666666" d="m408.47876 325.63455l0 -10.46875q0 -1.734375 1.03125 -2.765625q1.03125 -1.046875 2.921875 -1.046875q0.65625 0 1.25 0.140625q0.609375 0.125 1.03125 0.40625l-0.78125 2.15625q-0.25 -0.171875 -0.5625 -0.265625q-0.296875 -0.09375 -0.640625 -0.09375q-0.65625 0 -1.015625 0.375q-0.34375 0.359375 -0.34375 1.109375l0 0.953125l0.078125 1.265625l0 8.234375l-2.96875 0zm-1.578125 -7.734375l0 -2.28125l7.09375 0l0 2.28125l-7.09375 0zm8.671875 7.734375l0 -10.25l2.96875 0l0 10.25l-2.96875 0zm1.484375 -11.671875q-0.828125 0 -1.34375 -0.46875q-0.515625 -0.484375 -0.515625 -1.1875q0 -0.703125 0.515625 -1.171875q0.515625 -0.484375 1.34375 -0.484375q0.8125 0 1.328125 0.453125q0.515625 0.4375 0.515625 1.140625q0 0.75 -0.515625 1.234375q-0.5 0.484375 -1.328125 0.484375zm4.223816 11.671875l0 -14.125l2.96875 0l0 14.125l-2.96875 0zm10.811218 0.15625q-1.75 0 -3.078125 -0.6875q-1.3125 -0.6875 -2.046875 -1.875q-0.71875 -1.1875 -0.71875 -2.71875q0 -1.546875 0.703125 -2.734375q0.71875 -1.1875 1.953125 -1.859375q1.25 -0.6875 2.8125 -0.6875q1.5 0 2.703125 0.640625q1.21875 0.640625 1.921875 1.828125q0.703125 1.1875 0.703125 2.859375q0 0.15625 -0.015625 0.390625q-0.015625 0.21875 -0.03125 0.40625l-8.328125 0l0 -1.734375l6.765625 0l-1.15625 0.515625q0 -0.796875 -0.328125 -1.390625q-0.3125 -0.59375 -0.890625 -0.921875q-0.5625 -0.34375 -1.328125 -0.34375q-0.765625 0 -1.34375 0.34375q-0.578125 0.328125 -0.90625 0.9375q-0.3125 0.59375 -0.3125 1.40625l0 0.453125q0 0.84375 0.359375 1.484375q0.375 0.640625 1.046875 0.96875q0.6875 0.328125 1.59375 0.328125q0.828125 0 1.4375 -0.234375q0.625 -0.25 1.140625 -0.75l1.578125 1.71875q-0.703125 0.796875 -1.78125 1.234375q-1.0625 0.421875 -2.453125 0.421875zm8.065399 0q-0.765625 0 -1.3125 -0.515625q-0.546875 -0.53125 -0.546875 -1.359375q0 -0.8125 0.546875 -1.3125q0.546875 -0.515625 1.3125 -0.515625q0.78125 0 1.3125 0.515625q0.53125 0.5 0.53125 1.3125q0 0.828125 -0.53125 1.359375q-0.53125 0.515625 -1.3125 0.515625zm7.976532 0q-1.8125 0 -2.828125 -0.921875q-1.0 -0.921875 -1.0 -2.765625l0 -8.984375l2.96875 0l0 8.953125q0 0.640625 0.34375 1.0q0.34375 0.359375 0.9375 0.359375q0.703125 0 1.203125 -0.390625l0.796875 2.09375q-0.453125 0.328125 -1.09375 0.5q-0.640625 0.15625 -1.328125 0.15625zm-5.40625 -8.125l0 -2.28125l7.09375 0l0 2.28125l-7.09375 0zm8.207214 7.96875l4.59375 -6.015625l-0.0625 1.640625l-4.40625 -5.875l3.34375 0l2.78125 3.828125l-1.265625 0.046875l2.875 -3.875l3.171875 0l-4.421875 5.8125l0 -1.59375l4.5625 6.03125l-3.359375 0l-2.921875 -4.078125l1.234375 0.171875l-2.890625 3.90625l-3.234375 0zm16.81723 0.15625q-1.8125 0 -2.828125 -0.921875q-1.0 -0.921875 -1.0 -2.765625l0 -8.984375l2.96875 0l0 8.953125q0 0.640625 0.34375 1.0q0.34375 0.359375 0.9375 0.359375q0.703125 0 1.203125 -0.390625l0.796875 2.09375q-0.453125 0.328125 -1.09375 0.5q-0.640625 0.15625 -1.328125 0.15625zm-5.40625 -8.125l0 -2.28125l7.09375 0l0 2.28125l-7.09375 0z" fill-rule="nonzero"/><path fill="#000000" fill-opacity="0.0" d="m146.85068 298.3048l124.8504 0l0 40.283447l-124.8504 0z" fill-rule="evenodd"/><path fill="#666666" d="m176.84042 325.30798l0 -10.46875q0 -1.734375 1.03125 -2.765625q1.03125 -1.046875 2.921875 -1.046875q0.65625 0 1.25 0.140625q0.609375 0.125 1.03125 0.40625l-0.78125 2.15625q-0.25 -0.171875 -0.5625 -0.265625q-0.296875 -0.09375 -0.640625 -0.09375q-0.65625 0 -1.015625 0.375q-0.34375 0.359375 -0.34375 1.109375l0 0.953125l0.078125 1.265625l0 8.234375l-2.96875 0zm-1.578125 -7.734375l0 -2.28125l7.09375 0l0 2.28125l-7.09375 0zm8.671875 7.734375l0 -10.25l2.96875 0l0 10.25l-2.96875 0zm1.484375 -11.671875q-0.828125 0 -1.34375 -0.46875q-0.515625 -0.484375 -0.515625 -1.1875q0 -0.703125 0.515625 -1.171875q0.515625 -0.484375 1.34375 -0.484375q0.8125 0 1.328125 0.453125q0.515625 0.4375 0.515625 1.140625q0 0.75 -0.515625 1.234375q-0.5 0.484375 -1.328125 0.484375zm4.223831 11.671875l0 -14.125l2.96875 0l0 14.125l-2.96875 0zm10.811203 0.15625q-1.75 0 -3.078125 -0.6875q-1.3125 -0.6875 -2.046875 -1.875q-0.71875 -1.1875 -0.71875 -2.71875q0 -1.546875 0.703125 -2.734375q0.71875 -1.1875 1.953125 -1.859375q1.25 -0.6875 2.8125 -0.6875q1.5 0 2.703125 0.640625q1.21875 0.640625 1.921875 1.828125q0.703125 1.1875 0.703125 2.859375q0 0.15625 -0.015625 0.390625q-0.015625 0.21875 -0.03125 0.40625l-8.328125 0l0 -1.734375l6.765625 0l-1.15625 0.515625q0 -0.796875 -0.328125 -1.390625q-0.3125 -0.59375 -0.890625 -0.921875q-0.5625 -0.34375 -1.328125 -0.34375q-0.765625 0 -1.34375 0.34375q-0.578125 0.328125 -0.90625 0.9375q-0.3125 0.59375 -0.3125 1.40625l0 0.453125q0 0.84375 0.359375 1.484375q0.375 0.640625 1.046875 0.96875q0.6875 0.328125 1.59375 0.328125q0.828125 0 1.4375 -0.234375q0.625 -0.25 1.140625 -0.75l1.578125 1.71875q-0.703125 0.796875 -1.78125 1.234375q-1.0625 0.421875 -2.453125 0.421875zm8.065399 0q-0.765625 0 -1.3125 -0.515625q-0.546875 -0.53125 -0.546875 -1.359375q0 -0.8125 0.546875 -1.3125q0.546875 -0.515625 1.3125 -0.515625q0.78125 0 1.3125 0.515625q0.53125 0.5 0.53125 1.3125q0 0.828125 -0.53125 1.359375q-0.53125 0.515625 -1.3125 0.515625zm8.684967 0q-1.65625 0 -2.953125 -0.671875q-1.296875 -0.6875 -2.03125 -1.875q-0.734375 -1.203125 -0.734375 -2.734375q0 -1.546875 0.734375 -2.734375q0.734375 -1.1875 2.03125 -1.859375q1.296875 -0.6875 2.953125 -0.6875q1.609375 0 2.8125 0.6875q1.203125 0.671875 1.765625 1.921875l-2.296875 1.25q-0.40625 -0.734375 -1.0 -1.078125q-0.59375 -0.34375 -1.3125 -0.34375q-0.75 0 -1.359375 0.34375q-0.609375 0.34375 -0.96875 0.984375q-0.34375 0.625 -0.34375 1.515625q0 0.890625 0.34375 1.53125q0.359375 0.625 0.96875 0.96875q0.609375 0.34375 1.359375 0.34375q0.71875 0 1.3125 -0.328125q0.59375 -0.34375 1.0 -1.078125l2.296875 1.25q-0.5625 1.234375 -1.765625 1.921875q-1.203125 0.671875 -2.8125 0.671875zm9.741028 0q-1.3125 0 -2.53125 -0.3125q-1.203125 -0.3125 -1.90625 -0.796875l1.0 -2.125q0.703125 0.4375 1.65625 0.71875q0.96875 0.265625 1.90625 0.265625q1.03125 0 1.453125 -0.25q0.421875 -0.25 0.421875 -0.6875q0 -0.359375 -0.328125 -0.53125q-0.328125 -0.1875 -0.890625 -0.28125q-0.546875 -0.09375 -1.203125 -0.1875q-0.65625 -0.109375 -1.328125 -0.265625q-0.65625 -0.15625 -1.21875 -0.484375q-0.546875 -0.328125 -0.890625 -0.875q-0.328125 -0.546875 -0.328125 -1.421875q0 -0.984375 0.5625 -1.71875q0.5625 -0.75 1.625 -1.171875q1.078125 -0.4375 2.5625 -0.4375q1.046875 0 2.125 0.234375q1.09375 0.234375 1.8125 0.671875l-0.984375 2.109375q-0.75 -0.4375 -1.5 -0.59375q-0.75 -0.171875 -1.453125 -0.171875q-1.0 0 -1.453125 0.265625q-0.453125 0.265625 -0.453125 0.6875q0 0.390625 0.328125 0.578125q0.34375 0.1875 0.890625 0.3125q0.546875 0.109375 1.203125 0.203125q0.65625 0.078125 1.328125 0.25q0.671875 0.171875 1.203125 0.484375q0.546875 0.3125 0.890625 0.859375q0.34375 0.53125 0.34375 1.40625q0 0.953125 -0.578125 1.6875q-0.5625 0.734375 -1.640625 1.15625q-1.078125 0.421875 -2.625 0.421875zm9.266998 -0.15625l-4.3125 -10.25l3.078125 0l3.578125 8.828125l-1.53125 0l3.71875 -8.828125l2.859375 0l-4.328125 10.25l-3.0625 0z" fill-rule="nonzero"/><path fill="#000000" fill-opacity="0.0" d="m283.2414 155.99844l124.85037 0l0 40.283478l-124.85037 0z" fill-rule="evenodd"/><path fill="#666666" d="m307.46 183.00163l0 -10.46875q0 -1.734375 1.03125 -2.765625q1.03125 -1.046875 2.921875 -1.046875q0.65625 0 1.25 0.140625q0.609375 0.125 1.03125 0.40625l-0.78125 2.15625q-0.25 -0.171875 -0.5625 -0.265625q-0.296875 -0.09375 -0.640625 -0.09375q-0.65625 0 -1.015625 0.375q-0.34375 0.359375 -0.34375 1.109375l0 0.953125l0.078125 1.265625l0 8.234375l-2.96875 0zm-1.578125 -7.734375l0 -2.28125l7.09375 0l0 2.28125l-7.09375 0zm8.671875 7.734375l0 -10.25l2.96875 0l0 10.25l-2.96875 0zm1.484375 -11.671875q-0.828125 0 -1.34375 -0.46875q-0.515625 -0.484375 -0.515625 -1.1875q0 -0.703125 0.515625 -1.171875q0.515625 -0.484375 1.34375 -0.484375q0.8125 0 1.328125 0.453125q0.515625 0.4375 0.515625 1.140625q0 0.75 -0.515625 1.234375q-0.5 0.484375 -1.328125 0.484375zm4.223816 11.671875l0 -14.125l2.96875 0l0 14.125l-2.96875 0zm10.811218 0.15625q-1.75 0 -3.078125 -0.6875q-1.3125 -0.6875 -2.046875 -1.875q-0.71875 -1.1875 -0.71875 -2.71875q0 -1.546875 0.703125 -2.734375q0.71875 -1.1875 1.953125 -1.859375q1.25 -0.6875 2.8125 -0.6875q1.5 0 2.703125 0.640625q1.21875 0.640625 1.921875 1.828125q0.703125 1.1875 0.703125 2.859375q0 0.15625 -0.015625 0.390625q-0.015625 0.21875 -0.03125 0.40625l-8.328125 0l0 -1.734375l6.765625 0l-1.15625 0.515625q0 -0.796875 -0.328125 -1.390625q-0.3125 -0.59375 -0.890625 -0.921875q-0.5625 -0.34375 -1.328125 -0.34375q-0.765625 0 -1.34375 0.34375q-0.578125 0.328125 -0.90625 0.9375q-0.3125 0.59375 -0.3125 1.40625l0 0.453125q0 0.84375 0.359375 1.484375q0.375 0.640625 1.046875 0.96875q0.6875 0.328125 1.59375 0.328125q0.828125 0 1.4375 -0.234375q0.625 -0.25 1.140625 -0.75l1.578125 1.71875q-0.703125 0.796875 -1.78125 1.234375q-1.0625 0.421875 -2.453125 0.421875zm8.065399 0q-0.765625 0 -1.3125 -0.515625q-0.546875 -0.53125 -0.546875 -1.359375q0 -0.8125 0.546875 -1.3125q0.546875 -0.515625 1.3125 -0.515625q0.78125 0 1.3125 0.515625q0.53125 0.5 0.53125 1.3125q0 0.828125 -0.53125 1.359375q-0.53125 0.515625 -1.3125 0.515625zm3.865265 -0.15625l0 -10.25l2.828125 0l0 2.796875l-0.53125 -0.8125q0.53125 -1.046875 1.515625 -1.59375q0.984375 -0.546875 2.234375 -0.546875q1.421875 0 2.46875 0.71875q1.0625 0.71875 1.40625 2.1875l-1.046875 -0.296875q0.515625 -1.1875 1.640625 -1.890625q1.140625 -0.71875 2.609375 -0.71875q1.21875 0 2.15625 0.5q0.9375 0.484375 1.484375 1.484375q0.546875 1.0 0.546875 2.5625l0 5.859375l-2.96875 0l0 -5.40625q0 -1.234375 -0.515625 -1.828125q-0.515625 -0.59375 -1.453125 -0.59375q-0.640625 0 -1.15625 0.296875q-0.515625 0.296875 -0.8125 0.890625q-0.28125 0.578125 -0.28125 1.5l0 5.140625l-2.96875 0l0 -5.40625q0 -1.234375 -0.5 -1.828125q-0.5 -0.59375 -1.4375 -0.59375q-0.65625 0 -1.171875 0.296875q-0.5 0.296875 -0.796875 0.890625q-0.28125 0.578125 -0.28125 1.5l0 5.140625l-2.96875 0zm26.026947 0.15625q-1.28125 0 -2.265625 -0.5625q-0.96875 -0.578125 -1.515625 -1.75q-0.53125 -1.171875 -0.53125 -2.96875q0 -1.8125 0.515625 -2.96875q0.515625 -1.15625 1.484375 -1.734375q0.96875 -0.578125 2.3125 -0.578125q1.453125 0 2.609375 0.671875q1.15625 0.65625 1.828125 1.84375q0.671875 1.171875 0.671875 2.765625q0 1.625 -0.671875 2.8125q-0.671875 1.171875 -1.828125 1.828125q-1.15625 0.640625 -2.609375 0.640625zm-6.046875 3.53125l0 -13.9375l2.828125 0l0 2.09375l-0.046875 3.046875l0.1875 3.03125l0 5.765625l-2.96875 0zm5.53125 -5.96875q0.75 0 1.328125 -0.34375q0.578125 -0.34375 0.921875 -0.984375q0.359375 -0.640625 0.359375 -1.515625q0 -0.890625 -0.359375 -1.515625q-0.34375 -0.640625 -0.921875 -0.984375q-0.578125 -0.34375 -1.328125 -0.34375q-0.734375 0 -1.328125 0.34375q-0.59375 0.34375 -0.9375 0.984375q-0.34375 0.625 -0.34375 1.515625q0 0.875 0.34375 1.515625q0.34375 0.640625 0.9375 0.984375q0.59375 0.34375 1.328125 0.34375zm10.879211 2.515625q-1.390625 0 -2.765625 -0.375q-1.359375 -0.375 -2.3125 -1.0625l1.203125 -2.359375q0.75 0.546875 1.765625 0.875q1.015625 0.328125 2.03125 0.328125q1.171875 0 1.828125 -0.453125q0.671875 -0.46875 0.671875 -1.265625q0 -0.765625 -0.59375 -1.203125q-0.59375 -0.4375 -1.90625 -0.4375l-1.40625 0l0 -2.03125l3.71875 -4.21875l0.34375 1.109375l-7.0 0l0 -2.46875l9.34375 0l0 2.0l-3.703125 4.203125l-1.5625 -0.890625l0.90625 0q2.453125 0 3.703125 1.109375q1.265625 1.09375 1.265625 2.828125q0 1.125 -0.59375 2.109375q-0.59375 0.984375 -1.8125 1.59375q-1.21875 0.609375 -3.125 0.609375z" fill-rule="nonzero"/><path fill="#000000" fill-opacity="0.0" d="m325.44965 198.98535l-93.6693 96.25195" fill-rule="evenodd"/><path stroke="#e06666" stroke-width="2.493438320209974" stroke-linejoin="round" stroke-linecap="butt" d="m325.44965 198.98534l-83.23537 85.53035" fill-rule="evenodd"/><path stroke="#e06666" stroke-width="2.493438320209974" stroke-linecap="butt" d="m239.26274 281.64334l-4.940155 10.981628l10.843246 -5.2369385z" fill-rule="evenodd"/><path fill="#000000" fill-opacity="0.0" d="m230.0537 253.74266l63.338577 -64.220474l20.818909 20.472443l-63.338593 64.22049z" fill-rule="evenodd"/><path fill="#e06666" d="m251.82526 238.48882l2.863205 2.8155518l-1.8213348 1.846695l9.592285 9.432663l-3.532959 3.582138l-9.592285 -9.432663l-1.8103638 1.8355713l-2.863205 -2.8155518l7.1646576 -7.2644043zm9.524261 3.2044678l-3.2257385 3.2706604l-0.89126587 -0.8764496q-1.1920776 -1.172226 -1.5862427 -2.1076813q-0.39431763 -0.95751953 -0.07293701 -2.3069458q0.33236694 -1.3605499 1.6489868 -2.6955109q1.5689697 -1.5908203 2.9823303 -1.8445282q1.4133606 -0.2537079 2.4135132 0.40107727q1.0001526 0.65478516 3.4511414 3.0649872l5.169342 5.0833435l-3.324463 3.3707733l-0.42471313 -0.59295654q0.15512085 0.04298401 -0.026824951 0.8282623q-0.19311523 0.7743225 -0.8514099 1.441803q-0.8338928 0.84547424 -2.059204 1.1087952q-1.2254639 0.2412262 -2.8409119 -1.3473206l-0.802124 -0.78878784q-1.1920776 -1.1722412 -1.2648315 -2.0107727q-0.061798096 -0.8496704 0.785553 -2.8213959q0.82559204 -1.9273987 0.75775146 -2.1256104q-0.056884766 -0.20933533 -0.61395264 -0.7571106q-0.7130127 -0.7011566 -0.93463135 -0.7657013q-0.21066284 -0.075668335 -0.33135986 0.046691895q-0.13165283 0.13349915 -0.06414795 0.28755188q0.067352295 0.13197327 0.8360901 0.88790894l1.27005 1.2489166zm2.042633 1.0663605q-0.07357788 0.49739075 0.128479 0.89331055q0.2130127 0.38479614 0.83691406 0.9983063q0.7130127 0.7011566 0.9015808 0.7769928q0.19949341 0.064712524 0.33117676 -0.06877136q0.14263916 -0.1446228 0.0975647 -0.25468445q-0.04525757 -0.13214111 -0.73599243 -0.8113861l-1.5597229 -1.5337677zm8.653778 -13.246796l-3.0721436 3.114914l-0.7687073 -0.75593567q-0.6350403 -0.62446594 -0.7680359 -0.66760254q-0.122039795 -0.054275513 -0.27566528 0.10147095q-0.13165283 0.13349915 -0.10836792 0.28788757q0.02331543 0.15438843 0.27954102 0.40637207q0.42337036 0.41630554 0.6343689 0.5361328q0.19985962 0.10888672 0.69696045 0.04988098q0.48599243 -0.06996155 1.8974915 -0.56655884q1.9958801 -0.7108307 3.0476685 -0.53118896q1.0625916 0.1464386 2.210083 1.2748566q1.2589417 1.2379608 1.5983887 2.251114q0.32833862 1.002182 -0.094177246 2.1426086q-0.41152954 1.129303 -1.4757996 2.2084045q-1.1739807 1.1903381 -2.4085693 1.6855774q-1.245758 0.4842682 -2.2543335 0.17181396q-0.9975891 -0.32359314 -2.2788086 -1.5834656l-0.7130127 -0.7011566l3.0721436 -3.1148987l0.8578491 0.8435669q0.74642944 0.73402405 0.94610596 0.82081604q0.21066284 0.075668335 0.353302 -0.06895447q0.19750977 -0.20024109 0.18533325 -0.3436737q-0.023284912 -0.15438843 -0.45776367 -0.5816498q-0.61276245 -0.6025543 -0.8229065 -0.61198425q-0.2874756 0.0021972656 -2.6594543 0.6938324q-2.1403809 0.6125641 -3.1158752 0.28881836q-0.96450806 -0.33488464 -1.844635 -1.2003632q-1.2366333 -1.2160645 -1.5204163 -2.1744385q-0.28375244 -0.95835876 0.18313599 -2.077057q0.4557495 -1.1296387 1.4761353 -2.1642303q0.9984436 -1.0123444 1.9790039 -1.4725189q0.9915161 -0.47128296 1.8432922 -0.42260742q0.851593 0.026611328 1.3293152 0.32106018q0.47769165 0.2944336 1.2463989 1.0503693l0.80215454 0.78878784zm4.2860413 -11.555176l2.8937683 5.3657227l7.7514954 4.4011383l-3.3244934 3.3707733l-5.247162 -3.6916046l4.742462 4.2033386l-3.4013062 3.448639l-12.455475 -12.248199l3.4012756 -3.4486542l5.039215 5.415558l-2.3512268 -3.824173l2.9514465 -2.9925385zm1.2783508 -5.6129303l3.291565 -3.3374023q1.4812012 -1.501831 2.5272522 -2.0729065q1.046051 -0.57107544 2.319458 -0.32688904q1.2734375 0.2441864 2.888855 1.8327332q1.136383 1.1174622 1.2424011 1.9667816q0.10601807 0.84931946 0.062286377 0.9159088q0.20898438 -0.14512634 1.2720642 0.06755066q1.0629578 0.19059753 2.299591 1.4066467l1.1029358 1.0845947q1.27005 1.2489319 1.6201477 2.206787q0.33895874 0.9469147 -0.07424927 1.8554077q-0.42434692 0.8975525 -2.3224792 2.822113l-3.774353 3.826889l-12.455475 -12.248215zm6.0507812 -1.1062012l2.1952515 2.2244568q-0.033416748 -0.03286743 0.076293945 -0.144104q0.30722046 -0.31149292 0.2503357 -0.52082825q-0.06802368 -0.2203064 -1.0707092 -1.2062988q-0.5236206 -0.5148926 -0.74542236 -0.601532q-0.22180176 -0.086624146 -0.36495972 -0.008239746q-0.13217163 0.06724548 -0.3407898 0.25654602zm4.545471 4.469818l2.8631897 2.815567q0.30706787 -0.3335724 0.3053589 -0.5543823q-0.012817383 -0.23175049 -0.63671875 -0.8452606l-1.1252136 -1.1065063q-0.66845703 -0.6573181 -0.85632324 -0.6448364q-0.18804932 -0.009613037 -0.55029297 0.3354187z" fill-rule="nonzero"/><path fill="#000000" fill-opacity="0.0" d="m199.66264 344.73672l-35.338577 107.1181" fill-rule="evenodd"/><path stroke="#6aa850" stroke-width="2.493438320209974" stroke-linejoin="round" stroke-linecap="butt" d="m199.66264 344.73672l-30.651505 92.910614" fill-rule="evenodd"/><path stroke="#6aa850" stroke-width="2.493438320209974" stroke-linecap="butt" d="m165.09999 436.35706l0.36608887 12.036102l7.4562225 -9.455475z" fill-rule="evenodd"/><path fill="#000000" fill-opacity="0.0" d="m140.57454 428.21927l28.062988 -85.66928l27.748032 9.039368l-28.062988 85.66928z" fill-rule="evenodd"/><path fill="#6aa850" d="m153.2495 404.88742l3.8181458 1.2438049l-0.8074341 2.4648743l12.791519 4.167053l-1.5662231 4.78125l-12.791504 -4.1670227l-0.8025665 2.4500122l-3.8181458 -1.2438354l3.1762085 -9.696136zm9.954666 -1.3774414l-1.4300232 4.365509l-1.1885376 -0.3871765q-1.5896454 -0.5178528 -2.359436 -1.1794739q-0.77978516 -0.6812744 -1.0935211 -2.0324097q-0.30888367 -1.3659668 0.27479553 -3.1477966q0.69555664 -2.1233826 1.8477631 -2.9804993q1.1521912 -0.8571472 2.3394012 -0.7168884q1.1872101 0.14025879 4.455658 1.2049866l6.893448 2.2456665l-1.4738007 4.4991455l-0.6444855 -0.34143066q0.15802002 -0.030700684 0.34513855 0.7533264q0.17225647 0.7791748 -0.11958313 1.670105q-0.36967468 1.128479 -1.3492584 1.9104004q-0.989563 0.76220703 -3.1437683 0.060455322l-1.0696716 -0.34848022q-1.5896606 -0.5178528 -2.028534 -1.2359924q-0.434021 -0.7329712 -0.554245 -2.8755798q-0.11997986 -2.0932312 -0.2690735 -2.240387q-0.14422607 -0.16201782 -0.88705444 -0.40402222q-0.9508209 -0.30975342 -1.178009 -0.26870728q-0.22232056 0.026153564 -0.27581787 0.18948364q-0.05836487 0.17819214 0.070739746 0.28598022q0.11911011 0.08810425 1.1442261 0.4220581l1.6936493 0.5517273zm2.3039246 0.043914795q0.1558075 0.47802734 0.51316833 0.7423401q0.36221313 0.24945068 1.1941833 0.5204773q0.9508209 0.30975342 1.1534119 0.2935791q0.2074585 -0.03100586 0.26583862 -0.209198q0.06323242 -0.19302368 -0.026184082 -0.27145386q-0.09939575 -0.09811401 -1.0204926 -0.39816284l-2.0799255 -0.6775818zm1.8429108 -15.714752l-1.3619232 4.1576233l-1.025116 -0.33395386q-0.846817 -0.2758789 -0.9851227 -0.255188q-0.13345337 0.0058288574 -0.20155334 0.2137146q-0.05836487 0.17816162 0.031311035 0.30599976q0.089660645 0.12780762 0.43136597 0.23910522q0.5645447 0.18392944 0.80685425 0.19711304q0.22744751 0.008361816 0.6461792 -0.26605225q0.40386963 -0.27926636 1.4461517 -1.3529663q1.4699554 -1.526001 2.491623 -1.8340759q1.0165405 -0.34259033 2.5467682 0.1559143q1.6787872 0.546875 2.4342499 1.3024292q0.74061584 0.7506714 0.87068176 1.9598083q0.13493347 1.1942749 -0.33688354 2.6345825q-0.5204468 1.5888062 -1.4049683 2.5824585q-0.8993683 0.98880005 -1.9415588 1.1587219q-1.0373077 0.15505981 -2.745819 -0.40148926l-0.9508209 -0.30975342l1.3619232 -4.1576233l1.1439667 0.37265015q0.99539185 0.3242798 1.2128448 0.31295776q0.22232056 -0.026184082 0.28555298 -0.21920776q0.08755493 -0.26727295 0.012741089 -0.3902588q-0.0896759 -0.12780762 -0.66908264 -0.31655884q-0.81710815 -0.26617432 -1.0094452 -0.18093872q-0.25637817 0.13012695 -2.0715637 1.8065491q-1.6430969 1.5024719 -2.6606903 1.647522q-1.0127411 0.1302185 -2.1864014 -0.25213623q-1.6490784 -0.5372009 -2.3302612 -1.2685242q-0.68118286 -0.73135376 -0.76182556 -1.9407959q-0.0954895 -1.2142944 0.35687256 -2.5952148q0.44262695 -1.3512268 1.1153412 -2.2002563q0.6775818 -0.86383057 1.4618073 -1.1999512q0.77423096 -0.35583496 1.3331299 -0.3052063q0.55888367 0.050598145 1.5839996 0.38452148l1.0696716 0.34848022zm-1.3132629 -12.253571l4.982147 3.5128174l8.900986 0.48397827l-1.4738007 4.4991455l-6.342804 -0.965271l6.1190643 1.6482849l-1.507843 4.6030884l-16.609665 -5.410858l1.5078583 -4.6030884l6.925003 2.6010437l-3.8093567 -2.3748474l1.3084106 -3.9942932zm-1.3572998 -5.593933l1.1187286 -3.4151917q1.0019836 -3.058838 1.6687775 -4.090515q0.651947 -1.03656 1.5644836 -1.4130249q0.89767456 -0.38134766 1.7782898 -0.25878906q0.88061523 0.122528076 3.1833801 0.8727112l5.586075 1.8197327q2.1987762 0.7163086 2.92807 1.2003784q0.71443176 0.47921753 0.9852905 1.208374q0.27572632 0.7142639 0.19134521 1.5741577q-0.07951355 0.84506226 -0.5756531 2.3596191l-1.8191376 5.553406l-16.60965 -5.410858zm4.9237976 -3.6875l9.894485 3.223297q0.13131714 -0.40090942 -0.07746887 -0.6168213q-0.20391846 -0.23077393 -1.704422 -0.719574l-6.2100525 -2.0230408q-1.0548248 -0.34362793 -1.2971191 -0.35681152q-0.23744202 -0.028045654 -0.37522888 0.09140015q-0.1377716 0.1194458 -0.23019409 0.4015503z" fill-rule="nonzero"/><path fill="#000000" fill-opacity="0.0" d="m364.45477 199.52089l61.984253 94.07875" fill-rule="evenodd"/><path stroke="#4a86e8" stroke-width="2.493438320209974" stroke-linejoin="round" stroke-linecap="butt" d="m364.45477 199.52089l53.753265 81.58589" fill-rule="evenodd"/><path stroke="#4a86e8" stroke-width="2.493438320209974" stroke-linecap="butt" d="m414.7689 283.37268l9.664642 7.183075l-2.7863464 -11.714874z" fill-rule="evenodd"/><path fill="#000000" fill-opacity="0.0" d="m391.2313 185.43651l49.606293 75.33858l-24.314972 16.126007l-49.606293 -75.33859z" fill-rule="evenodd"/><path fill="#4a86e8" d="m401.61743 209.89957l-3.346527 2.2194672l-1.4263916 -2.1663055l-11.211578 7.4356537l-2.7668762 -4.202133l11.211578 -7.4356537l-1.4178162 -2.1532745l3.3465576 -2.2194672l5.6110535 8.521713zm-5.1105347 8.660797l-2.5262756 -3.836731l1.0417175 -0.69088745q1.3933105 -0.924057 2.3894348 -1.1159668q1.0177307 -0.1875 2.2697754 0.40704346q1.2606201 0.607605 2.2917786 2.1736145q1.2287598 1.8661652 1.183075 3.3026276q-0.045684814 1.4364624 -0.8934326 2.2799225q-0.8477173 0.8434601 -3.7124634 2.743393l-6.0420227 4.007141l-2.6036072 -3.9541779l0.6677551 -0.29286194q-0.07424927 0.14297485 -0.80389404 -0.19805908q-0.7166443 -0.34965515 -1.2322083 -1.1326599q-0.6530762 -0.99180603 -0.65582275 -2.2461548q0.018829346 -1.2499237 1.9069824 -2.5021667l0.9375305 -0.62179565q1.3933105 -0.924057 2.2279663 -0.8213806q0.8432007 0.115722656 2.5941772 1.3543243q1.7121277 1.2080994 1.9199524 1.1827698q0.21640015 -0.012283325 0.8674927 -0.4440918q0.833374 -0.55270386 0.9425049 -0.75631714q0.11773682 -0.19058228 0.02319336 -0.3341217q-0.10308838 -0.15660095 -0.2677002 -0.12245178q-0.14294434 0.03857422 -1.0414429 0.6344757l-1.4844666 0.9845123zm-1.4665527 1.7788391q-0.4708252 -0.17521667 -0.89974976 -0.05949402q-0.4203186 0.12876892 -1.1495361 0.61239624q-0.833374 0.55270386 -0.9466553 0.72158813q-0.10470581 0.18193054 -0.0015869141 0.3385315q0.111694336 0.16964722 0.2286377 0.14834595q0.13851929 -0.01689148 0.9458618 -0.5523224l1.8230286 -1.2090454zm11.148376 11.2204895l-2.4059753 -3.6540222l0.89849854 -0.59588623q0.742218 -0.4922638 0.8120117 -0.6135559q0.07839966 -0.10823059 -0.041900635 -0.29093933q-0.10308838 -0.15660095 -0.25881958 -0.165802q-0.1557312 -0.009216309 -0.4552307 0.18940735q-0.49484253 0.32817078 -0.65579224 0.5099182q-0.1479187 0.17311096 -0.19354248 0.67207336q-0.032592773 0.4903412 0.15948486 1.9753723q0.2800598 2.1016388 -0.11404419 3.0942078q-0.3638916 1.0100403 -1.7051086 1.8995514q-1.4714355 0.97587585 -2.532135 1.0981293q-1.0476685 0.113601685 -2.0744324 -0.5365906q-1.0181885 -0.63716125 -1.8516846 -1.9030151q-0.9194336 -1.3963623 -1.1469421 -2.707901q-0.21447754 -1.3201599 0.30044556 -2.2428741q0.52352905 -0.90966797 2.020996 -1.9028168l0.833374 -0.5527191l2.4059753 3.6540375l-1.002655 0.664978q-0.8724365 0.5786133 -0.9987488 0.75613403q-0.11773682 0.19056702 -0.0060424805 0.36021423q0.1546936 0.23490906 0.2973938 0.25274658q0.1557312 0.009216309 0.6635742 -0.32759094q0.7161865 -0.4749756 0.7690735 -0.67878723q0.057556152 -0.2819214 -0.12557983 -2.747818q-0.1539917 -2.2227325 0.3650818 -3.1107178q0.52767944 -0.8749237 1.5563965 -1.5571747q1.445404 -0.9586029 2.440979 -1.037674q0.99557495 -0.079071045 1.9918823 0.61009216q1.0093384 0.68052673 1.8084412 1.8941803q0.7819519 1.187561 1.0279541 2.2430878q0.25460815 1.068573 0.030059814 1.892456q-0.20291138 0.82829285 -0.5899353 1.2349548q-0.3869934 0.406662 -1.285492 1.0025482l-0.93756104 0.62179565zm10.402588 6.593109l-5.845215 1.7205048l-5.9117737 6.676834l-2.6036072 -3.9541779l4.6980286 -4.3719635l-5.093292 3.7716675l-2.6637573 -4.045532l14.558136 -9.655136l2.6637573 4.045532l-6.3396606 3.8108063l4.2259216 -1.5090027l2.3114624 3.5104675zm4.537964 15.898651l-2.7668762 -4.202133l2.7084656 -1.7962952q1.0026855 -0.664978 1.1073914 -0.8469238q0.11328125 -0.16888428 -0.02420044 -0.37768555q-0.17184448 -0.2610016 -0.4317627 -0.2011261q-0.2598877 0.059890747 -1.2755737 0.73349l-6.497772 4.3094025q-0.97662354 0.6477051 -1.1334229 0.8641815q-0.14376831 0.20785522 0.010925293 0.44274902q0.14605713 0.22184753 0.39294434 0.17060852q0.2599182 -0.05987549 1.3667297 -0.7939453l2.031372 -1.3472137l2.7668762 4.202118l-0.82037354 0.54408264q-2.2136536 1.4681244 -3.4181213 1.7982025q-1.1914368 0.32147217 -2.668213 -0.33026123q-1.4767761 -0.6517334 -2.5422668 -2.2699585q-1.099884 -1.6704102 -1.2138367 -3.2072449q-0.10534668 -1.5238037 0.74786377 -2.614624q0.86624146 -1.099472 2.9627075 -2.4898834l4.0887756 -2.711731q1.53656 -1.0190582 2.3996277 -1.441452q0.8846741 -0.417984 2.000824 -0.37077332q1.1377563 0.051620483 2.211914 0.74539185q1.0741882 0.69377136 1.8904724 1.9335327q1.1170654 1.6965027 1.1789246 3.2678833q0.07489014 1.5627594 -0.69577026 2.5800781q-0.7576294 1.0086975 -2.7759705 2.34729l-1.601654 1.0622406z" fill-rule="nonzero"/><path fill="#000000" fill-opacity="0.0" d="m427.54077 343.9399l-46.740173 106.33069" fill-rule="evenodd"/><path stroke="#e69138" stroke-width="2.493438320209974" stroke-linejoin="round" stroke-linecap="butt" d="m427.54077 343.9399l-40.71982 92.63489" fill-rule="evenodd"/><path stroke="#e69138" stroke-width="2.493438320209974" stroke-linecap="butt" d="m383.05063 434.91745l-0.7831726 12.016174l8.3237915 -8.701508z" fill-rule="evenodd"/><path fill="#000000" fill-opacity="0.0" d="m361.70975 421.5459l36.850403 -82.236206l26.677155 11.905487l-36.850403 82.23624z" fill-rule="evenodd"/><path fill="#e69138" d="m377.3573 398.3572l3.6670227 1.6365356l-1.0606384 2.3669739l12.285248 5.482666l-2.0574036 4.5913696l-12.285248 -5.4826965l-1.0542603 2.3527222l-3.6670227 -1.6365356l4.1723022 -9.311035zm10.043701 -0.32839966l-1.8785095 4.192108l-1.1414795 -0.50942993q-1.5267334 -0.68136597 -2.223114 -1.4198914q-0.70425415 -0.7591553 -0.8750305 -2.1357727q-0.16436768 -1.3908386 0.6023865 -3.1018982q0.9136963 -2.039032 2.1491394 -2.770935q1.2354431 -0.7319336 2.4014282 -0.4682312q1.1659851 0.2637024 4.3050537 1.6646118l6.620636 2.9546509l-1.9360046 4.3204346l-0.6052551 -0.40698242q0.16036987 -0.013977051 0.26449585 0.78533936q0.08984375 0.79296875 -0.29351807 1.6484985q-0.48562622 1.0836487 -1.5415344 1.7588196q-1.0637817 0.654541 -3.132721 -0.26879883l-1.0273438 -0.45846558q-1.5267334 -0.68136597 -1.8881226 -1.4414978q-0.35498047 -0.77441406 -0.25054932 -2.9179382q0.09951782 -2.0943604 -0.03338623 -2.2563477q-0.12649536 -0.1762085 -0.8399048 -0.4945984q-0.913208 -0.40753174 -1.1434326 -0.39050293q-0.22381592 0.002746582 -0.2940979 0.15960693q-0.076660156 0.17111206 0.04046631 0.29180908q0.10922241 0.100097656 1.0937805 0.53948975l1.6266174 0.72592163zm2.286621 0.284729q0.10494995 0.49169922 0.43270874 0.79196167q0.33413696 0.28601074 1.1331787 0.64260864q0.9131775 0.40753174 1.1163635 0.4126587q0.20956421 -0.009155273 0.28622437 -0.18023682q0.08306885 -0.18536377 0.0023498535 -0.2727356q-0.08859253 -0.10797119 -0.9732361 -0.5027771l-1.9975891 -0.8914795zm3.4755554 -15.436371l-1.789032 3.9924622l-0.9845276 -0.43936157q-0.813324 -0.36297607 -0.95303345 -0.35687256q-0.13330078 -0.008178711 -0.22277832 0.19146729q-0.076660156 0.17111206 -8.544922E-4 0.30758667q0.075805664 0.13650513 0.4039917 0.28295898q0.5422058 0.24197388 0.7817993 0.28045654q0.22531128 0.032104492 0.67041016 -0.19699097q0.43084717 -0.23550415 1.5796204 -1.1943054q1.6213684 -1.3638916 2.6695862 -1.563385q1.0467529 -0.234375 2.5164185 0.4215088q1.6123352 0.71954346 2.2846375 1.5500183q0.65805054 0.8240967 0.66101074 2.0402222q0.009307861 1.2019043 -0.6104431 2.585022q-0.6836853 1.5256958 -1.6672058 2.4213867q-0.9977722 0.88931274 -2.051941 0.9492798q-1.047821 0.045684814 -2.6886902 -0.686615l-0.913208 -0.40753174l1.7890625 -3.9924927l1.0986633 0.49032593q0.95599365 0.42663574 1.1734314 0.43814087q0.22384644 -0.0027770996 0.30691528 -0.18814087q0.114990234 -0.25665283 0.053466797 -0.3867798q-0.07583618 -0.13650513 -0.6322937 -0.38485718q-0.7847595 -0.35021973 -0.98495483 -0.2855835q-0.2685547 0.1026001 -2.248993 1.5799866q-1.7910767 1.3223572 -2.8182373 1.3601685q-1.020752 0.02355957 -2.1479492 -0.4794922q-1.5838318 -0.70684814 -2.184784 -1.5054626q-0.60098267 -0.7986145 -0.554718 -2.0099182q0.031982422 -1.2176819 0.6261902 -2.5437622q0.5814514 -1.2975464 1.3392029 -2.0715332q0.76416016 -0.78826904 1.5791931 -1.0404968q0.8071594 -0.27288818 1.357666 -0.1640625q0.5505066 0.108795166 1.5350342 0.54815674l1.0273438 0.4584961zm-0.024993896 -12.324249l4.5874023 4.0149536l8.801239 1.4126282l-1.9360046 4.3204346l-6.2068787 -1.6236267l5.912964 2.2795105l-1.9807434 4.4202576l-15.9522705 -7.1192017l1.9807434 -4.420227l6.6148376 3.3114014l-3.540039 -2.760498l1.71875 -3.8356323zm-0.76501465 -5.705475l3.2458496 -7.2435303l3.6670227 1.6365356l-1.188446 2.6521606l2.3115234 1.0315857l1.1117554 -2.4810486l3.524353 1.5728455l-1.1117554 2.4810486l2.7823486 1.2416992l1.309845 -2.9230652l3.6670227 1.6365356l-3.3672485 7.5144043l-15.9522705 -7.119171z" fill-rule="nonzero"/><path fill="#000000" fill-opacity="0.0" d="m453.6503 344.74442l52.22049 104.97638" fill-rule="evenodd"/><path stroke="#8e7cc3" stroke-width="2.493438320209974" stroke-linejoin="round" stroke-linecap="butt" d="m453.6503 344.74442l45.55722 91.58154" fill-rule="evenodd"/><path stroke="#8e7cc3" stroke-width="2.493438320209974" stroke-linecap="butt" d="m495.52008 438.16028l8.727203 8.296875l-1.3523254 -11.965515z" fill-rule="evenodd"/><path fill="#000000" fill-opacity="0.0" d="m483.3415 338.68976l40.031494 80.8504l-26.173218 12.976379l-40.031494 -80.8504z" fill-rule="evenodd"/><path fill="#8e7cc3" d="m491.375 365.72598l-3.5977173 1.7836914l-1.1509094 -2.3244324l-12.05307 5.9757996l-2.2324524 -4.50885l12.05307 -5.975769l-1.1439819 -2.3104248l3.5977478 -1.7837219l4.527313 9.143707zm-6.14209 7.9485474l-2.03833 -4.1167603l1.1199341 -0.5552368q1.4978638 -0.74264526 2.511139 -0.8089905q1.0341797 -0.059326172 2.2050476 0.6856079q1.1778259 0.75894165 2.0097961 2.43927q0.99142456 2.0023499 0.7694702 3.4204102q-0.22195435 1.4180298 -1.1678772 2.1486206q-0.94592285 0.7305603 -4.025696 2.2574768l-6.495514 3.220398l-2.1007385 -4.242798l0.6994324 -0.20724487q-0.09133911 0.1324768 -0.774353 -0.29623413q-0.66903687 -0.43566895 -1.085022 -1.2758179q-0.5269165 -1.064209 -0.37548828 -2.3077393q0.17236328 -1.2365112 2.2022095 -2.2428894l1.0079346 -0.49969482q1.4978943 -0.74264526 2.3144836 -0.5371094q0.82354736 0.21951294 2.4109497 1.6648254q1.5525818 1.4102478 1.7621765 1.4109802q0.21652222 0.01473999 0.9164734 -0.3323059q0.89590454 -0.44418335 1.0293579 -0.6324158q0.14041138 -0.17425537 0.06414795 -0.3282776q-0.083221436 -0.16802979 -0.25091553 -0.15463257q-0.14678955 0.020446777 -1.1127319 0.4993286l-1.5958862 0.79122925zm-1.6757202 1.580719q-0.44622803 -0.23220825 -0.8865967 -0.1708374q-0.43344116 0.07537842 -1.2173767 0.4640503q-0.89593506 0.44418335 -1.0292664 0.59750366q-0.12637329 0.16729736 -0.043182373 0.33532715q0.09011841 0.18203735 0.20892334 0.17544556q0.13970947 4.8828125E-4 1.0076599 -0.42980957l1.9598389 -0.9716797zm9.6970825 12.506958l-1.9412537 -3.9207153l0.96591187 -0.47888184q0.7979431 -0.39562988 0.88220215 -0.50717163q0.09118652 -0.09750366 -0.005859375 -0.29354858q-0.08319092 -0.16802979 -0.23678589 -0.1965332q-0.15359497 -0.0284729 -0.47558594 0.13113403q-0.5319519 0.26376343 -0.7142029 0.42385864q-0.16824341 0.15319824 -0.27490234 0.6420593q-0.09265137 0.4819336 -0.084350586 1.9776611q0.019897461 2.1177979 -0.49365234 3.0525818q-0.48568726 0.95584106 -1.9275818 1.6706848q-1.5818787 0.78430176 -2.6507263 0.7735901q-1.0548706 -0.017669678 -1.9950867 -0.7897339q-0.9332886 -0.75808716 -1.6058044 -2.1163635q-0.7418213 -1.4982605 -0.8066406 -2.8264465q-0.050842285 -1.3351135 0.57418823 -2.1856384q0.6319275 -0.8364868 2.2418213 -1.6346436l0.89593506 -0.44421387l1.9412537 3.9207458l-1.0779114 0.5344238q-0.93792725 0.46499634 -1.0852661 0.62524414q-0.14038086 0.17422485 -0.050231934 0.3562622q0.12478638 0.25204468 0.26437378 0.2874756q0.15359497 0.028503418 0.69955444 -0.2421875q0.769928 -0.38171387 0.8475342 -0.57714844q0.09185791 -0.2722473 0.2130127 -2.7390442q0.12020874 -2.2221375 0.74508667 -3.0377197q0.6318054 -0.8015442 1.7377319 -1.3498535q1.5538635 -0.77038574 2.5527344 -0.7249756q0.99887085 0.045410156 1.9040222 0.85232544q0.91915894 0.7999573 1.5639343 2.1022034q0.6309204 1.274231 0.74557495 2.3509827q0.12161255 1.0907288 -0.20272827 1.8793945q-0.30343628 0.79571533 -0.73794556 1.1506653q-0.43447876 0.35491943 -1.4004211 0.8338318l-1.0079346 0.49969482zm9.524933 7.827942l-6.018921 0.9784851l-6.6942444 5.882599l-2.1007385 -4.2427673l5.2050476 -3.7490845l-5.5239563 3.10495l-2.1492615 -4.34079l15.650787 -7.759491l2.1492615 4.3408203l-6.76709 2.9888l4.384094 -0.97024536l1.8650208 3.7667236zm4.8893127 3.043335l3.5774841 7.225342l-3.5977478 1.7836914l-1.3450012 -2.7164917l-2.2678223 1.1243591l1.1924744 2.4084473l-3.4577332 1.7142944l-1.1925049 -2.4084473l-6.3275146 3.1371155l-2.2324524 -4.5088196l15.650818 -7.759491z" fill-rule="nonzero"/><path fill="#000000" fill-opacity="0.0" d="m684.855 238.9837l213.92126 0l0 78.61417l-213.92126 0z" fill-rule="evenodd"/><path fill="#666666" d="m698.83936 299.90945l0 -42.03125l8.046875 0l24.796875 30.265625l-3.90625 0l0 -30.265625l9.609375 0l0 42.03125l-7.984375 0l-24.859375 -30.265625l3.90625 0l0 30.265625l-9.609375 0zm65.995544 0l0 -33.03125q0 -5.453125 3.234375 -8.71875q3.25 -3.28125 9.25 -3.28125q2.046875 0 3.9375 0.421875q1.890625 0.421875 3.203125 1.3125l-2.453125 6.78125q-0.78125 -0.53125 -1.75 -0.828125q-0.953125 -0.3125 -2.03125 -0.3125q-2.046875 0 -3.15625 1.171875q-1.109375 1.171875 -1.109375 3.515625l0 3.0l0.234375 4.03125l0 25.9375l-9.359375 0zm-4.984375 -24.375l0 -7.203125l22.390625 0l0 7.203125l-22.390625 0zm27.328125 24.375l0 -32.3125l9.359375 0l0 32.3125l-9.359375 0zm4.671875 -36.8125q-2.578125 0 -4.203125 -1.5q-1.625 -1.5 -1.625 -3.71875q0 -2.21875 1.625 -3.71875q1.625 -1.5 4.203125 -1.5q2.578125 0 4.203125 1.40625q1.625 1.40625 1.625 3.625q0 2.34375 -1.59375 3.875q-1.59375 1.53125 -4.234375 1.53125zm13.336182 36.8125l0 -44.5625l9.359375 0l0 44.5625l-9.359375 0zm34.105347 0.484375q-5.53125 0 -9.703125 -2.15625q-4.171875 -2.171875 -6.453125 -5.921875q-2.28125 -3.75 -2.28125 -8.5625q0 -4.859375 2.25 -8.609375q2.25 -3.75 6.15625 -5.875q3.90625 -2.140625 8.828125 -2.140625q4.75 0 8.5625 2.015625q3.8125 2.0 6.03125 5.765625q2.21875 3.75 2.21875 8.96875q0 0.546875 -0.0625 1.234375q-0.0625 0.6875 -0.125 1.28125l-26.234375 0l0 -5.453125l21.3125 0l-3.59375 1.609375q0 -2.515625 -1.03125 -4.375q-1.015625 -1.859375 -2.828125 -2.90625q-1.796875 -1.0625 -4.1875 -1.0625q-2.40625 0 -4.234375 1.0625q-1.828125 1.046875 -2.859375 2.9375q-1.015625 1.890625 -1.015625 4.46875l0 1.4375q0 2.640625 1.171875 4.65625q1.171875 2.015625 3.296875 3.0625q2.140625 1.046875 5.015625 1.046875q2.578125 0 4.53125 -0.78125q1.953125 -0.78125 3.578125 -2.328125l4.984375 5.390625q-2.21875 2.53125 -5.59375 3.890625q-3.359375 1.34375 -7.734375 1.34375zm32.717773 0q-4.140625 0 -7.953125 -0.984375q-3.8125 -1.0 -6.03125 -2.5l3.125 -6.734375q2.21875 1.390625 5.25 2.265625q3.03125 0.859375 5.96875 0.859375q3.25 0 4.59375 -0.78125q1.359375 -0.78125 1.359375 -2.15625q0 -1.140625 -1.0625 -1.703125q-1.046875 -0.578125 -2.796875 -0.875q-1.734375 -0.3125 -3.8125 -0.609375q-2.0625 -0.296875 -4.171875 -0.796875q-2.09375 -0.515625 -3.84375 -1.53125q-1.734375 -1.03125 -2.78125 -2.765625q-1.046875 -1.75 -1.046875 -4.515625q0 -3.0625 1.765625 -5.390625q1.78125 -2.34375 5.140625 -3.6875q3.359375 -1.359375 8.046875 -1.359375q3.296875 0 6.71875 0.71875q3.421875 0.71875 5.703125 2.09375l-3.125 6.671875q-2.328125 -1.375 -4.703125 -1.890625q-2.375 -0.515625 -4.59375 -0.515625q-3.125 0 -4.578125 0.84375q-1.4375 0.84375 -1.4375 2.15625q0 1.203125 1.046875 1.8125q1.0625 0.59375 2.796875 0.953125q1.75 0.359375 3.8125 0.640625q2.078125 0.265625 4.171875 0.8125q2.109375 0.53125 3.8125 1.53125q1.71875 0.984375 2.796875 2.703125q1.078125 1.703125 1.078125 4.46875q0 3.0 -1.796875 5.3125q-1.796875 2.3125 -5.1875 3.640625q-3.390625 1.3125 -8.265625 1.3125z" fill-rule="nonzero"/><path fill="#000000" fill-opacity="0.0" d="m639.6896 270.32532l7.3931885 -5.782196l6.671875 8.530731l6.671814 -8.530731l7.3931885 5.782196l-8.1073 10.366119l8.1073 10.366119l-7.3931885 5.782196l-6.671814 -8.530731l-6.671875 8.530731l-7.3931885 -5.782196l8.107361 -10.366119z" fill-rule="evenodd"/><path stroke="#666666" stroke-width="2.816272965879265" stroke-linejoin="round" stroke-linecap="butt" d="m639.6896 270.32532l7.3931885 -5.782196l6.671875 8.530731l6.671814 -8.530731l7.3931885 5.782196l-8.1073 10.366119l8.1073 10.366119l-7.3931885 5.782196l-6.671814 -8.530731l-6.671875 8.530731l-7.3931885 -5.782196l8.107361 -10.366119z" fill-rule="evenodd"/><path fill="#000000" fill-opacity="0.0" d="m283.2414 60.153305l124.85037 0l0 40.283463l-124.85037 0z" fill-rule="evenodd"/><path fill="#666666" d="m306.32657 87.156494l0 -10.46875q0 -1.734375 1.03125 -2.765625q1.03125 -1.046875 2.921875 -1.046875q0.65625 0 1.25 0.140625q0.609375 0.125 1.03125 0.40625l-0.78125 2.15625q-0.25 -0.171875 -0.5625 -0.265625q-0.296875 -0.09375 -0.640625 -0.09375q-0.65625 0 -1.015625 0.375q-0.34375 0.359375 -0.34375 1.109375l0 0.953125l0.078125 1.265625l0 8.234375l-2.96875 0zm-1.578125 -7.734375l0 -2.28125l7.09375 0l0 2.28125l-7.09375 0zm8.671875 7.734375l0 -10.25l2.96875 0l0 10.25l-2.96875 0zm1.484375 -11.671875q-0.828125 0 -1.34375 -0.46875q-0.515625 -0.484375 -0.515625 -1.1875q0 -0.703125 0.515625 -1.171875q0.515625 -0.484375 1.34375 -0.484375q0.8125 0 1.328125 0.453125q0.515625 0.4375 0.515625 1.140625q0 0.75 -0.515625 1.234375q-0.5 0.484375 -1.328125 0.484375zm4.223816 11.671875l0 -14.125l2.96875 0l0 14.125l-2.96875 0zm10.811218 0.15625q-1.75 0 -3.078125 -0.6875q-1.3125 -0.6875 -2.046875 -1.875q-0.71875 -1.1875 -0.71875 -2.71875q0 -1.546875 0.703125 -2.734375q0.71875 -1.1875 1.953125 -1.859375q1.25 -0.6875 2.8125 -0.6875q1.5 0 2.703125 0.640625q1.21875 0.640625 1.921875 1.828125q0.703125 1.1875 0.703125 2.859375q0 0.15625 -0.015625 0.390625q-0.015625 0.21875 -0.03125 0.40625l-8.328125 0l0 -1.734375l6.765625 0l-1.15625 0.515625q0 -0.796875 -0.328125 -1.390625q-0.3125 -0.59375 -0.890625 -0.921875q-0.5625 -0.34375 -1.328125 -0.34375q-0.765625 0 -1.34375 0.34375q-0.578125 0.328125 -0.90625 0.9375q-0.3125 0.59375 -0.3125 1.40625l0 0.453125q0 0.84375 0.359375 1.484375q0.375 0.640625 1.046875 0.96875q0.6875 0.328125 1.59375 0.328125q0.828125 0 1.4375 -0.234375q0.625 -0.25 1.140625 -0.75l1.578125 1.71875q-0.703125 0.796875 -1.78125 1.234375q-1.0625 0.421875 -2.453125 0.421875zm8.065399 0q-0.765625 0 -1.3125 -0.515625q-0.546875 -0.53125 -0.546875 -1.359375q0 -0.8125 0.546875 -1.3125q0.546875 -0.515625 1.3125 -0.515625q0.78125 0 1.3125 0.515625q0.53125 0.5 0.53125 1.3125q0 0.828125 -0.53125 1.359375q-0.53125 0.515625 -1.3125 0.515625zm3.865265 -0.15625l0 -10.25l2.828125 0l0 2.796875l-0.53125 -0.8125q0.53125 -1.046875 1.515625 -1.59375q0.984375 -0.546875 2.234375 -0.546875q1.421875 0 2.46875 0.71875q1.0625 0.71875 1.40625 2.1875l-1.046875 -0.296875q0.515625 -1.1875 1.640625 -1.890625q1.140625 -0.71875 2.609375 -0.71875q1.21875 0 2.15625 0.5q0.9375 0.484375 1.484375 1.484375q0.546875 1.0 0.546875 2.5625l0 5.859375l-2.96875 0l0 -5.40625q0 -1.234375 -0.515625 -1.828125q-0.515625 -0.59375 -1.453125 -0.59375q-0.640625 0 -1.15625 0.296875q-0.515625 0.296875 -0.8125 0.890625q-0.28125 0.578125 -0.28125 1.5l0 5.140625l-2.96875 0l0 -5.40625q0 -1.234375 -0.5 -1.828125q-0.5 -0.59375 -1.4375 -0.59375q-0.65625 0 -1.171875 0.296875q-0.5 0.296875 -0.796875 0.890625q-0.28125 0.578125 -0.28125 1.5l0 5.140625l-2.96875 0zm26.026947 0.15625q-1.28125 0 -2.265625 -0.5625q-0.96875 -0.578125 -1.515625 -1.75q-0.53125 -1.171875 -0.53125 -2.96875q0 -1.8125 0.515625 -2.96875q0.515625 -1.15625 1.484375 -1.734375q0.96875 -0.578125 2.3125 -0.578125q1.453125 0 2.609375 0.671875q1.15625 0.65625 1.828125 1.84375q0.671875 1.171875 0.671875 2.765625q0 1.625 -0.671875 2.8125q-0.671875 1.171875 -1.828125 1.828125q-1.15625 0.640625 -2.609375 0.640625zm-6.046875 3.53125l0 -13.9375l2.828125 0l0 2.09375l-0.046875 3.046875l0.1875 3.03125l0 5.765625l-2.96875 0zm5.53125 -5.96875q0.75 0 1.328125 -0.34375q0.578125 -0.34375 0.921875 -0.984375q0.359375 -0.640625 0.359375 -1.515625q0 -0.890625 -0.359375 -1.515625q-0.34375 -0.640625 -0.921875 -0.984375q-0.578125 -0.34375 -1.328125 -0.34375q-0.734375 0 -1.328125 0.34375q-0.59375 0.34375 -0.9375 0.984375q-0.34375 0.625 -0.34375 1.515625q0 0.875 0.34375 1.515625q0.34375 0.640625 0.9375 0.984375q0.59375 0.34375 1.328125 0.34375zm6.829773 -0.515625l0 -2.078125l6.28125 -8.453125l3.234375 0l-6.140625 8.453125l-1.515625 -0.4375l10.5 0l0 2.515625l-12.359375 0zm7.171875 2.796875l0 -2.796875l0.09375 -2.515625l0 -2.5l2.921875 0l0 7.8125l-3.015625 0z" fill-rule="nonzero"/><path fill="#000000" fill-opacity="0.0" d="m345.6666 101.74849l0 55.55905" fill-rule="evenodd"/><path stroke="#c27ba0" stroke-width="2.493438320209974" stroke-linejoin="round" stroke-linecap="butt" d="m345.6666 101.74848l0 40.598427" fill-rule="evenodd"/><path stroke="#c27ba0" stroke-width="2.493438320209974" stroke-linecap="butt" d="m341.5481 142.34691l4.1184998 11.31546l4.118469 -11.31546z" fill-rule="evenodd"/><path fill="#000000" fill-opacity="0.0" d="m345.66782 110.03196l90.20471 0.3149643l0 29.165344l-90.20471 -0.31495667z" fill-rule="evenodd"/><path fill="#c27ba0" d="m362.99582 114.8655l0 4.015648l-2.5937195 -0.009056091l0 13.453209l-5.0312195 -0.017578125l0 -13.453201l-2.578125 -0.009002686l0 -4.015648l10.203064 0.035629272zm4.3930664 9.0466385l-4.5937195 -0.016036987l0 -1.2500076q0 -1.6718826 0.390625 -2.6080246q0.40625 -0.95171356 1.59375 -1.6663208q1.2030945 -0.71455383 3.0780945 -0.7080078q2.234375 0.007797241 3.4062195 0.8400192q1.171875 0.832222 1.40625 2.0049286q0.234375 1.172699 0.234375 4.610214l0 7.2500534l-4.7343445 -0.016540527l0.125 -0.7183075q0.078125 0.14089966 -0.609375 0.56036377q-0.6875 0.40385437 -1.625 0.400589q-1.1874695 -0.0041503906 -2.2343445 -0.6953125q-1.03125 -0.7067261 -1.03125 -2.9723663l0 -1.1250076q0 -1.6718826 0.546875 -2.3106003q0.5625 -0.6386719 2.5625 -1.412941q1.9530945 -0.75881195 2.0468445 -0.9459839q0.109375 -0.18711853 0.109375 -0.96837616q0 -1.0 -0.109375 -1.2035141q-0.09375 -0.20345306 -0.265625 -0.20404816q-0.1875 -6.5612793E-4 -0.25 0.15537262q-0.046875 0.14046478 -0.046875 1.2185974l0 1.7812576zm0.671875 2.20549q-0.40625 0.29545593 -0.546875 0.71684265q-0.125 0.42144012 -0.125 1.2964478q0 1.0 0.078125 1.1877747q0.09375 0.1878357 0.28125 0.18849182q0.203125 7.019043E-4 0.25 -0.10850525q0.0625 -0.12478638 0.0625 -1.0935364l0 -2.1875153zm15.512665 -3.0864868l-4.3749695 -0.015274048l0 -1.0781326q0 -0.890625 -0.0625 -1.0158463q-0.046875 -0.12516785 -0.265625 -0.12593079q-0.1875 -6.5612793E-4 -0.28125 0.12402344q-0.09375 0.124671936 -0.09375 0.48404694q0 0.5937576 0.0625 0.82834625q0.0625 0.21897125 0.453125 0.5328369q0.390625 0.29824066 1.734375 0.95919037q1.9062195 0.92853546 2.5155945 1.8056641q0.640625 0.86161804 0.640625 2.4710007q0 1.7656403 -0.484375 2.7170868q-0.484375 0.9358063 -1.59375 1.4319305q-1.0937195 0.4961853 -2.6093445 0.49090576q-1.671875 -0.005844116 -2.890625 -0.5413513q-1.2187195 -0.5511322 -1.7030945 -1.4903259q-0.46875 -0.93914795 -0.46875 -2.7360382l0 -1.0l4.3749695 0.015274048l0 1.203125q0 1.0468903 0.078125 1.2502899q0.09375 0.20344543 0.296875 0.2041626q0.28125 9.765625E-4 0.375 -0.108062744q0.09375 -0.124679565 0.09375 -0.73405457q0 -0.8593826 -0.140625 -1.0161285q-0.203125 -0.20383453 -2.359375 -1.4144974q-1.9374695 -1.1005173 -2.3905945 -2.0239792q-0.4375 -0.9234085 -0.4375 -2.1577911q0 -1.7343903 0.484375 -2.6077042q0.484375 -0.8733139 1.6093445 -1.3225098q1.125 -0.4648285 2.578125 -0.45975494q1.421875 0.004966736 2.4374695 0.3835144q1.03125 0.37860107 1.59375 1.0211945q0.578125 0.6270218 0.703125 1.1743393q0.125 0.5473175 0.125 1.6254501l0 1.125zm11.24411 -5.0232697l-1.796875 5.821892l2.296875 8.617439l-4.7343445 -0.016525269l-1.046875 -6.3318176l0.328125 6.329315l-4.8437195 -0.016921997l0 -17.468857l4.8437195 0.016914368l-0.328125 7.3895264l1.078125 -4.3556366l4.2030945 0.014671326zm13.054596 -2.9856873l2.5937195 17.47792l-5.1562195 -0.018005371l-0.21875 -3.0164032l-0.96875 -0.0033874512l-0.25 3.0147705l-5.2030945 -0.018173218l2.3125 -17.460777l6.8905945 0.024055481zm-2.96875 10.8022q-0.296875 -2.5010452 -0.296875 -6.7198257q-0.328125 4.842636 -0.46875 6.7171555l0.765625 0.002670288z" fill-rule="nonzero"/></g></svg>