<svg version="1.1" viewBox="0.0 0.0 960.0 540.0" fill="none" stroke="none" stroke-linecap="square" stroke-miterlimit="10" xmlns:xlink="http://www.w3.org/1999/xlink" xmlns="http://www.w3.org/2000/svg"><clipPath id="p.0"><path d="m0 0l960.0 0l0 540.0l-960.0 0l0 -540.0z" clip-rule="nonzero"/></clipPath><g clip-path="url(#p.0)"><path fill="#ffffff" d="m0 0l960.0 0l0 540.0l-960.0 0z" fill-rule="evenodd"/><path fill="#c27ba0" d="m381.1994 58.422245l0 0c0 -15.716198 12.740509 -28.456694 28.456696 -28.456694l0 0c7.54718 0 14.785248 2.998106 20.121918 8.334772c5.33667 5.336666 8.334778 12.574738 8.334778 20.121922l0 0c0 15.716198 -12.740509 28.456692 -28.456696 28.456692l0 0c-15.716187 0 -28.456696 -12.740494 -28.456696 -28.456692z" fill-rule="evenodd"/><path fill="#e06666" d="m188.37225 259.61044l0 0c0 -15.716202 12.740509 -28.45671 28.456696 -28.45671l0 0c7.5471954 0 14.785263 2.998108 20.121918 8.334778c5.33667 5.33667 8.334778 12.574738 8.334778 20.121933l0 0c0 15.716187 -12.740494 28.456696 -28.456696 28.456696l0 0c-15.716187 0 -28.456696 -12.740509 -28.456696 -28.456696z" fill-rule="evenodd"/><path fill="#4a86e8" d="m512.6008 259.61044l0 0c0 -15.716202 12.74054 -28.45671 28.456726 -28.45671l0 0c7.54718 0 14.785217 2.998108 20.121887 8.334778c5.33667 5.33667 8.334778 12.574738 8.334778 20.121933l0 0c0 15.716187 -12.7404785 28.456696 -28.456665 28.456696l0 0c-15.716187 0 -28.456726 -12.740509 -28.456726 -28.456696z" fill-rule="evenodd"/><path fill="#6aa84f" d="m113.527985 481.58313l0 0c0 -15.716217 12.740494 -28.456696 28.456696 -28.456696l0 0c7.54718 0 14.785248 2.998108 20.121918 8.334778c5.33667 5.33667 8.334778 12.574738 8.334778 20.121918l0 0c0 15.716187 -12.740509 28.456696 -28.456696 28.456696l0 0c-15.716202 0 -28.456696 -12.740509 -28.456696 -28.456696z" fill-rule="evenodd"/><path fill="#e69138" d="m417.51 481.58313l0 0c0 -15.716217 12.740509 -28.456696 28.456696 -28.456696l0 0c7.54718 0 14.785248 2.998108 20.121918 8.334778c5.33667 5.33667 8.334778 12.574738 8.334778 20.121918l0 0c0 15.716187 -12.740509 28.456696 -28.456696 28.456696l0 0c-15.716187 0 -28.456696 -12.740509 -28.456696 -28.456696z" fill-rule="evenodd"/><path fill="#8e7cc3" d="m625.37445 481.58313l0 0c0 -15.716217 12.74054 -28.456696 28.456726 -28.456696l0 0c7.54718 0 14.785217 2.998108 20.121887 8.334778c5.33667 5.33667 8.334778 12.574738 8.334778 20.121918l0 0c0 15.716187 -12.7404785 28.456696 -28.456665 28.456696l0 0c-15.716187 0 -28.456726 -12.740509 -28.456726 -28.456696z" fill-rule="evenodd"/><path fill="#000000" fill-opacity="0.0" d="m436.2186 29.946608l164.18893 0l0 56.944878l-164.18893 0z" fill-rule="evenodd"/><path fill="#c27ba0" d="m459.39047 33.829437l0 4.734375l-3.046875 0l0 15.84375l-5.9375 0l0 -15.84375l-3.046875 0l0 -4.734375l12.03125 0zm5.180176 10.640625l-5.421875 0l0 -1.484375q0 -1.96875 0.46875 -3.078125q0.484375 -1.109375 1.890625 -1.953125q1.40625 -0.84375 3.609375 -0.84375q2.640625 0 4.015625 0.96875q1.390625 0.953125 1.65625 2.34375q0.28125 1.390625 0.28125 5.453125l0 8.53125l-5.578125 0l0.15625 -0.859375q0.078125 0.171875 -0.734375 0.671875q-0.8125 0.484375 -1.90625 0.484375q-1.421875 0 -2.640625 -0.8125q-1.21875 -0.828125 -1.21875 -3.5l0 -1.328125q0 -1.96875 0.65625 -2.71875q0.65625 -0.75 3.015625 -1.671875q2.296875 -0.90625 2.40625 -1.125q0.125 -0.21875 0.125 -1.140625q0 -1.171875 -0.125 -1.40625q-0.109375 -0.25 -0.296875 -0.25q-0.234375 0 -0.296875 0.171875q-0.0625 0.171875 -0.0625 1.453125l0 2.09375zm0.78125 2.59375q-0.46875 0.34375 -0.625 0.84375q-0.15625 0.5 -0.15625 1.53125q0 1.1875 0.09375 1.40625q0.09375 0.203125 0.328125 0.203125q0.21875 0 0.28125 -0.140625q0.078125 -0.140625 0.078125 -1.265625l0 -2.578125zm18.293152 -3.703125l-5.15625 0l0 -1.265625q0 -1.046875 -0.0625 -1.1875q-0.0625 -0.15625 -0.3125 -0.15625q-0.21875 0 -0.34375 0.15625q-0.109375 0.140625 -0.109375 0.5625q0 0.6875 0.078125 0.953125q0.09375 0.25 0.546875 0.625q0.453125 0.375 2.03125 1.140625q2.234375 1.09375 2.953125 2.09375q0.75 1.046875 0.75 2.9375q0 2.078125 -0.5625 3.1875q-0.5625 1.109375 -1.875 1.703125q-1.3125 0.59375 -3.078125 0.59375q-1.96875 0 -3.40625 -0.625q-1.4375 -0.640625 -2.0 -1.75q-0.5625 -1.109375 -0.5625 -3.234375l0 -1.171875l5.171875 0l0 1.421875q0 1.234375 0.09375 1.46875q0.109375 0.234375 0.328125 0.234375q0.34375 0 0.4375 -0.125q0.109375 -0.140625 0.109375 -0.859375q0 -1.0 -0.15625 -1.1875q-0.234375 -0.25 -2.78125 -1.65625q-2.28125 -1.28125 -2.8125 -2.375q-0.515625 -1.09375 -0.515625 -2.5625q0 -2.046875 0.5625 -3.0625q0.578125 -1.03125 1.90625 -1.5625q1.328125 -0.546875 3.03125 -0.546875q1.671875 0 2.875 0.4375q1.21875 0.4375 1.890625 1.1875q0.6875 0.734375 0.828125 1.390625q0.140625 0.640625 0.140625 1.90625l0 1.328125zm13.258392 -5.96875l-2.125 6.875l2.71875 10.140625l-5.59375 0l-1.21875 -7.453125l0.390625 7.453125l-5.734375 0l0 -20.578125l5.734375 0l-0.390625 8.703125l1.25 -5.140625l4.96875 0zm15.388123 -3.5625l3.046875 20.578125l-6.0781555 0l-0.25 -3.5625l-1.140625 0l-0.296875 3.5625l-6.140625 0l2.71875 -20.578125l8.1406555 0zm-3.5156555 12.734375q-0.34375 -2.953125 -0.34375 -7.921875q-0.390625 5.71875 -0.546875 7.921875l0.890625 0z" fill-rule="nonzero"/><path fill="#c27ba0" d="m454.29672 63.447754l0 2.890625q-1.171875 0 -1.34375 0.046875q-0.15625 0.046875 -0.234375 0.21875q-0.078125 0.171875 -0.078125 1.359375l0 8.796875q0 1.125 0.0625 1.328125q0.078125 0.1875 0.234375 0.25q0.15625 0.046875 1.359375 0.046875l0 2.890625l-1.6875 0q-1.921875 0 -2.890625 -0.375q-0.96875 -0.390625 -1.296875 -1.15625q-0.3125 -0.765625 -0.3125 -3.0l0 -8.765625q0 -2.234375 0.3125 -3.0q0.3125 -0.765625 1.3125 -1.140625q1.0 -0.390625 2.875 -0.390625l1.6875 0zm9.902283 3.09375l-0.125 0.75q-0.03125 -0.125 0.71875 -0.5625q0.765625 -0.4375 1.734375 -0.4375q1.90625 0 2.71875 1.328125q0.296875 -0.453125 1.046875 -0.890625q0.75 -0.4375 1.671875 -0.4375q1.203125 0 2.0 0.609375q0.796875 0.59375 1.015625 1.4375q0.234375 0.828125 0.234375 2.609375l0 10.328125l-4.8125 0l0 -9.5q0 -1.75 -0.078125 -2.03125q-0.078125 -0.296875 -0.28125 -0.296875q-0.21875 0 -0.3125 0.28125q-0.078125 0.28125 -0.078125 2.046875l0 9.5l-4.8125 0l0 -9.265625q0 -2.03125 -0.0625 -2.296875q-0.0625 -0.265625 -0.265625 -0.265625q-0.15625 0 -0.265625 0.125q-0.109375 0.109375 -0.125 0.359375q-0.015625 0.25 -0.015625 1.265625l0 10.078125l-4.8125 0l0 -14.734375l4.90625 0zm17.541962 0l-0.078125 0.640625q0.015625 -0.0625 0.765625 -0.46875q0.765625 -0.421875 1.65625 -0.421875q1.109375 0 1.921875 0.609375q0.8125 0.609375 1.015625 1.375q0.203125 0.765625 0.203125 2.484375l0 5.9375q0 1.96875 -0.25 2.859375q-0.25 0.890625 -1.046875 1.4375q-0.796875 0.53125 -1.890625 0.53125q-0.875 0 -1.625 -0.40625q-0.75 -0.40625 -0.78125 -0.46875l0.015625 2.625l-4.9375 0l0 -16.734375l5.03125 0zm0.546875 4.421875q0 -1.234375 -0.046875 -1.375q-0.046875 -0.140625 -0.25 -0.140625q-0.203125 0 -0.28125 0.1875q-0.0625 0.171875 -0.0625 1.328125l0 5.84375q0 1.203125 0.0625 1.390625q0.078125 0.1875 0.296875 0.1875q0.171875 0 0.21875 -0.15625q0.0625 -0.15625 0.0625 -1.21875l0 -6.046875zm15.757324 -7.515625l0 11.21875l1.21875 0l0 3.59375l-1.21875 0l0 3.015625l-4.9375 0l0 -3.015625l-5.09375 0l0 -3.3125l3.796875 -11.5l6.234375 0zm-4.9375 11.21875l0.328125 -6.96875l-1.46875 6.96875l1.140625 0z" fill-rule="nonzero"/><path fill="#c27ba0" d="m516.8473 65.635254q1.234375 -0.109375 2.203125 0.96875l5.71875 6.421875l-5.640625 6.25q-1.03125 1.140625 -2.046875 1.140625q-0.8125 0 -1.5 -0.578125q-0.828125 -0.53125 -0.828125 -1.578125q0 -1.0 0.609375 -1.609375l1.296875 -1.484375l-9.546875 0q-0.921875 0 -1.546875 -0.609375q-0.703125 -0.71875 -0.609375 -1.734375q0.109375 -0.8125 0.609375 -1.328125q0.609375 -0.609375 1.53125 -0.703125l9.546875 0l-1.203125 -1.328125q-0.6875 -0.875 -0.6875 -1.703125q0.109375 -0.828125 0.8125 -1.53125q0.59375 -0.390625 1.28125 -0.59375z" fill-rule="nonzero"/><path fill="#c27ba0" d="m535.42566 66.541504l-0.125 0.75q-0.03125 -0.125 0.71875 -0.5625q0.765625 -0.4375 1.734375 -0.4375q1.90625 0 2.71875 1.328125q0.296875 -0.453125 1.046875 -0.890625q0.75 -0.4375 1.671875 -0.4375q1.203125 0 2.0 0.609375q0.796875 0.59375 1.015625 1.4375q0.234375 0.828125 0.234375 2.609375l0 10.328125l-4.8125 0l0 -9.5q0 -1.75 -0.078125 -2.03125q-0.078125 -0.296875 -0.28125 -0.296875q-0.21875 0 -0.3125 0.28125q-0.078125 0.28125 -0.078125 2.046875l0 9.5l-4.8125 0l0 -9.265625q0 -2.03125 -0.0625 -2.296875q-0.0625 -0.265625 -0.265625 -0.265625q-0.15625 0 -0.265625 0.125q-0.109375 0.109375 -0.125 0.359375q-0.015625 0.25 -0.015625 1.265625l0 10.078125l-4.8125 0l0 -14.734375l4.90625 0zm17.541931 0l-0.078125 0.640625q0.015625 -0.0625 0.765625 -0.46875q0.765625 -0.421875 1.65625 -0.421875q1.109375 0 1.921875 0.609375q0.8125 0.609375 1.015625 1.375q0.203125 0.765625 0.203125 2.484375l0 5.9375q0 1.96875 -0.25 2.859375q-0.25 0.890625 -1.046875 1.4375q-0.796875 0.53125 -1.890625 0.53125q-0.875 0 -1.625 -0.40625q-0.75 -0.40625 -0.78125 -0.46875l0.015625 2.625l-4.9375 0l0 -16.734375l5.03125 0zm0.546875 4.421875q0 -1.234375 -0.046875 -1.375q-0.046875 -0.140625 -0.25 -0.140625q-0.203125 0 -0.28125 0.1875q-0.0625 0.171875 -0.0625 1.328125l0 5.84375q0 1.203125 0.0625 1.390625q0.078125 0.1875 0.296875 0.1875q0.171875 0 0.21875 -0.15625q0.0625 -0.15625 0.0625 -1.21875l0 -6.046875zm15.554199 0.203125q0.375 0.109375 0.90625 0.953125q0.546875 0.828125 0.546875 3.6875q0 2.109375 -0.515625 3.328125q-0.5 1.203125 -1.734375 1.84375q-1.234375 0.640625 -3.09375 0.640625q-2.140625 0 -3.390625 -0.734375q-1.234375 -0.75 -1.640625 -1.8125q-0.390625 -1.078125 -0.390625 -3.59375l0 -1.671875l4.9375 0l0 3.109375q0 1.046875 0.078125 1.21875q0.078125 0.171875 0.3125 0.171875q0.28125 0 0.375 -0.25q0.109375 -0.25 0.109375 -1.796875l0 -1.1875q0 -0.90625 -0.171875 -1.265625q-0.171875 -0.359375 -0.53125 -0.46875q-0.34375 -0.125 -1.859375 -0.140625l0 -3.15625q1.8125 0 2.0625 -0.078125q0.265625 -0.09375 0.375 -0.375q0.125 -0.296875 0.125 -1.0625l0 -0.96875q0 -0.796875 -0.109375 -0.96875q-0.109375 -0.171875 -0.328125 -0.171875q-0.234375 0 -0.34375 0.1875q-0.09375 0.171875 -0.09375 1.078125l0 1.734375l-4.9375 0l0 -1.78125q0 -2.625 1.234375 -3.578125q1.234375 -0.953125 3.78125 -0.953125q3.21875 0 4.390625 1.3125q1.1875 1.296875 1.1875 3.546875q0 1.546875 -0.4375 2.265625q-0.4375 0.71875 -0.84375 0.9375zm6.439026 -7.71875l1.6875 0q1.875 0 2.875 0.390625q1.0 0.375 1.3125 1.140625q0.3125 0.765625 0.3125 3.0l0 8.765625q0 2.234375 -0.3125 3.0q-0.3125 0.765625 -1.296875 1.15625q-0.96875 0.375 -2.890625 0.375l-1.6875 0l0 -2.890625q1.21875 0 1.359375 -0.046875q0.15625 -0.0625 0.21875 -0.25q0.078125 -0.203125 0.078125 -1.328125l0 -8.796875q0 -1.1875 -0.078125 -1.359375q-0.078125 -0.171875 -0.25 -0.21875q-0.15625 -0.046875 -1.328125 -0.046875l0 -2.890625z" fill-rule="nonzero"/><path fill="#000000" fill-opacity="0.0" d="m245.27675 231.13557l164.18898 0l0 56.94487l-164.18898 0z" fill-rule="evenodd"/><path fill="#e06666" d="m268.44864 235.0184l0 4.734375l-3.046875 0l0 15.84375l-5.9375 0l0 -15.84375l-3.046875 0l0 -4.734375l12.03125 0zm5.180176 10.640625l-5.421875 0l0 -1.484375q0 -1.96875 0.46875 -3.078125q0.484375 -1.109375 1.890625 -1.953125q1.40625 -0.84375 3.609375 -0.84375q2.640625 0 4.015625 0.96875q1.390625 0.953125 1.65625 2.34375q0.28125 1.390625 0.28125 5.453125l0 8.53125l-5.578125 0l0.15625 -0.859375q0.078125 0.171875 -0.734375 0.671875q-0.8125 0.484375 -1.90625 0.484375q-1.421875 0 -2.640625 -0.8125q-1.21875 -0.828125 -1.21875 -3.5l0 -1.328125q0 -1.96875 0.65625 -2.71875q0.65625 -0.75 3.015625 -1.671875q2.296875 -0.90625 2.40625 -1.125q0.125 -0.21875 0.125 -1.140625q0 -1.171875 -0.125 -1.40625q-0.109375 -0.25 -0.296875 -0.25q-0.234375 0 -0.296875 0.171875q-0.0625 0.171875 -0.0625 1.453125l0 2.09375zm0.78125 2.59375q-0.46875 0.34375 -0.625 0.84375q-0.15625 0.5 -0.15625 1.53125q0 1.1875 0.09375 1.40625q0.09375 0.203125 0.328125 0.203125q0.21875 0 0.28125 -0.140625q0.078125 -0.140625 0.078125 -1.265625l0 -2.578125zm18.293152 -3.703125l-5.15625 0l0 -1.265625q0 -1.046875 -0.0625 -1.1875q-0.0625 -0.15625 -0.3125 -0.15625q-0.21875 0 -0.34375 0.15625q-0.109375 0.140625 -0.109375 0.5625q0 0.6875 0.078125 0.953125q0.09375 0.25 0.546875 0.625q0.453125 0.375 2.03125 1.140625q2.234375 1.09375 2.953125 2.09375q0.75 1.046875 0.75 2.9375q0 2.078125 -0.5625 3.1875q-0.5625 1.109375 -1.875 1.703125q-1.3125 0.59375 -3.078125 0.59375q-1.96875 0 -3.40625 -0.625q-1.4375 -0.640625 -2.0 -1.75q-0.5625 -1.109375 -0.5625 -3.234375l0 -1.171875l5.171875 0l0 1.421875q0 1.234375 0.09375 1.46875q0.109375 0.234375 0.328125 0.234375q0.34375 0 0.4375 -0.125q0.109375 -0.140625 0.109375 -0.859375q0 -1.0 -0.15625 -1.1875q-0.234375 -0.25 -2.78125 -1.65625q-2.28125 -1.28125 -2.8125 -2.375q-0.515625 -1.09375 -0.515625 -2.5625q0 -2.046875 0.5625 -3.0625q0.578125 -1.03125 1.90625 -1.5625q1.328125 -0.546875 3.03125 -0.546875q1.671875 0 2.875 0.4375q1.21875 0.4375 1.890625 1.1875q0.6875 0.734375 0.828125 1.390625q0.140625 0.640625 0.140625 1.90625l0 1.328125zm13.258392 -5.96875l-2.125 6.875l2.71875 10.140625l-5.59375 0l-1.21875 -7.453125l0.390625 7.453125l-5.734375 0l0 -20.578125l5.734375 0l-0.390625 8.703125l1.25 -5.140625l4.96875 0zm5.763092 -3.5625l5.515625 0q2.5 0 3.84375 0.40625q1.359375 0.40625 2.1875 1.671875q0.84375 1.25 0.84375 3.953125q0 1.875 -0.625 2.65625q-0.625 0.78125 -0.71875 0.8125q0.28125 0.0625 1.0 1.109375q0.71875 1.03125 0.71875 3.09375l0 1.84375q0 2.09375 -0.515625 3.171875q-0.515625 1.078125 -1.625 1.46875q-1.109375 0.390625 -4.28125 0.390625l-6.34375 0l0 -20.578125zm5.921875 4.171875l-0.0625 3.671875q0 -0.0625 0.1875 -0.0625q0.53125 0 0.65625 -0.21875q0.125 -0.234375 0.125 -1.90625q0 -0.84375 -0.125 -1.09375q-0.109375 -0.265625 -0.28125 -0.328125q-0.15625 -0.0625 -0.5 -0.0625zm0 7.5l0 4.71875q0.53125 -0.015625 0.71875 -0.203125q0.1875 -0.1875 0.1875 -1.234375l0 -1.84375q0 -1.125 -0.15625 -1.265625q-0.15625 -0.15625 -0.75 -0.171875z" fill-rule="nonzero"/><path fill="#e06666" d="m263.3549 264.63672l0 2.890625q-1.171875 0 -1.34375 0.046875q-0.15625 0.046875 -0.234375 0.21875q-0.078125 0.171875 -0.078125 1.359375l0 8.796875q0 1.125 0.0625 1.328125q0.078125 0.1875 0.234375 0.25q0.15625 0.046875 1.359375 0.046875l0 2.890625l-1.6875 0q-1.921875 0 -2.890625 -0.375q-0.96875 -0.390625 -1.296875 -1.15625q-0.3125 -0.765625 -0.3125 -3.0l0 -8.765625q0 -2.234375 0.3125 -3.0q0.3125 -0.765625 1.3125 -1.140625q1.0 -0.390625 2.875 -0.390625l1.6875 0zm9.902283 3.09375l-0.125 0.75q-0.03125 -0.125 0.71875 -0.5625q0.765625 -0.4375 1.734375 -0.4375q1.90625 0 2.71875 1.328125q0.296875 -0.453125 1.046875 -0.890625q0.75 -0.4375 1.671875 -0.4375q1.203125 0 2.0 0.609375q0.796875 0.59375 1.015625 1.4375q0.234375 0.828125 0.234375 2.609375l0 10.328125l-4.8125 0l0 -9.5q0 -1.75 -0.078125 -2.03125q-0.078125 -0.296875 -0.28125 -0.296875q-0.21875 0 -0.3125 0.28125q-0.078125 0.28125 -0.078125 2.046875l0 9.5l-4.8125 0l0 -9.265625q0 -2.03125 -0.0625 -2.296875q-0.0625 -0.265625 -0.265625 -0.265625q-0.15625 0 -0.265625 0.125q-0.109375 0.109375 -0.125 0.359375q-0.015625 0.25 -0.015625 1.265625l0 10.078125l-4.8125 0l0 -14.734375l4.90625 0zm17.541962 0l-0.078125 0.640625q0.015625 -0.0625 0.765625 -0.46875q0.765625 -0.421875 1.65625 -0.421875q1.109375 0 1.921875 0.609375q0.8125 0.609375 1.015625 1.375q0.203125 0.765625 0.203125 2.484375l0 5.9375q0 1.96875 -0.25 2.859375q-0.25 0.890625 -1.046875 1.4375q-0.796875 0.53125 -1.890625 0.53125q-0.875 0 -1.625 -0.40625q-0.75 -0.40625 -0.78125 -0.46875l0.015625 2.625l-4.9375 0l0 -16.734375l5.03125 0zm0.546875 4.421875q0 -1.234375 -0.046875 -1.375q-0.046875 -0.140625 -0.25 -0.140625q-0.203125 0 -0.28125 0.1875q-0.0625 0.171875 -0.0625 1.328125l0 5.84375q0 1.203125 0.0625 1.390625q0.078125 0.1875 0.296875 0.1875q0.171875 0 0.21875 -0.15625q0.0625 -0.15625 0.0625 -1.21875l0 -6.046875zm15.554199 0.203125q0.375 0.109375 0.90625 0.953125q0.546875 0.828125 0.546875 3.6875q0 2.109375 -0.515625 3.328125q-0.5 1.203125 -1.734375 1.84375q-1.234375 0.640625 -3.09375 0.640625q-2.140625 0 -3.390625 -0.734375q-1.234375 -0.75 -1.640625 -1.8125q-0.390625 -1.078125 -0.390625 -3.59375l0 -1.671875l4.9375 0l0 3.109375q0 1.046875 0.078125 1.21875q0.078125 0.171875 0.3125 0.171875q0.28125 0 0.375 -0.25q0.109375 -0.25 0.109375 -1.796875l0 -1.1875q0 -0.90625 -0.171875 -1.265625q-0.171875 -0.359375 -0.53125 -0.46875q-0.34375 -0.125 -1.859375 -0.140625l0 -3.15625q1.8125 0 2.0625 -0.078125q0.265625 -0.09375 0.375 -0.375q0.125 -0.296875 0.125 -1.0625l0 -0.96875q0 -0.796875 -0.109375 -0.96875q-0.109375 -0.171875 -0.328125 -0.171875q-0.234375 0 -0.34375 0.1875q-0.09375 0.171875 -0.09375 1.078125l0 1.734375l-4.9375 0l0 -1.78125q0 -2.625 1.234375 -3.578125q1.234375 -0.953125 3.78125 -0.953125q3.21875 0 4.390625 1.3125q1.1875 1.296875 1.1875 3.546875q0 1.546875 -0.4375 2.265625q-0.4375 0.71875 -0.84375 0.9375z" fill-rule="nonzero"/><path fill="#e06666" d="m326.57358 266.82422q1.234375 -0.109375 2.203125 0.96875l5.71875 6.421875l-5.640625 6.25q-1.03125 1.140625 -2.046875 1.140625q-0.8125 0 -1.5 -0.578125q-0.828125 -0.53125 -0.828125 -1.578125q0 -1.0 0.609375 -1.609375l1.296875 -1.484375l-9.546875 0q-0.921875 0 -1.546875 -0.609375q-0.703125 -0.71875 -0.609375 -1.734375q0.109375 -0.8125 0.609375 -1.328125q0.609375 -0.609375 1.53125 -0.703125l9.546875 0l-1.203125 -1.328125q-0.6875 -0.875 -0.6875 -1.703125q0.109375 -0.828125 0.8125 -1.53125q0.59375 -0.390625 1.28125 -0.59375z" fill-rule="nonzero"/><path fill="#e06666" d="m350.37067 273.69922l-4.703125 0l0 -1.9375q0 -0.796875 -0.078125 -0.953125q-0.078125 -0.171875 -0.234375 -0.171875q-0.171875 0 -0.234375 0.140625q-0.0625 0.125 -0.0625 0.984375l0 6.625q0 0.6875 0.125 0.9375q0.125 0.25 0.296875 0.25q0.21875 0 0.3125 -0.25q0.109375 -0.265625 0.109375 -1.296875l0 -2.015625l4.46875 0q-0.015625 2.03125 -0.140625 2.9375q-0.109375 0.890625 -0.765625 1.859375q-0.640625 0.953125 -1.671875 1.4375q-1.03125 0.46875 -2.53125 0.46875q-1.90625 0 -3.0625 -0.671875q-1.140625 -0.671875 -1.609375 -1.859375q-0.46875 -1.203125 -0.46875 -3.328125l0 -4.0q0 -1.859375 0.390625 -2.84375q0.390625 -0.984375 1.65625 -1.75q1.265625 -0.78125 3.03125 -0.78125q1.78125 0 3.046875 0.765625q1.28125 0.765625 1.703125 1.921875q0.421875 1.15625 0.421875 3.53125zm10.695862 -0.8125l-4.453125 0l0 -1.09375q0 -0.90625 -0.0625 -1.03125q-0.046875 -0.125 -0.28125 -0.125q-0.203125 0 -0.296875 0.125q-0.09375 0.125 -0.09375 0.5q0 0.59375 0.0625 0.828125q0.0625 0.234375 0.453125 0.546875q0.40625 0.3125 1.78125 0.984375q1.9375 0.9375 2.578125 1.828125q0.640625 0.890625 0.640625 2.53125q0 1.796875 -0.5 2.765625q-0.484375 0.953125 -1.625 1.46875q-1.125 0.5 -2.65625 0.5q-1.703125 0 -2.953125 -0.546875q-1.234375 -0.546875 -1.71875 -1.5q-0.484375 -0.953125 -0.484375 -2.796875l0 -1.0l4.453125 0l0 1.21875q0 1.0625 0.078125 1.28125q0.09375 0.203125 0.296875 0.203125q0.3125 0 0.40625 -0.109375q0.09375 -0.125 0.09375 -0.75q0 -0.890625 -0.140625 -1.03125q-0.21875 -0.21875 -2.421875 -1.453125q-1.984375 -1.109375 -2.4375 -2.046875q-0.4375 -0.953125 -0.4375 -2.21875q0 -1.765625 0.484375 -2.65625q0.5 -0.890625 1.640625 -1.359375q1.15625 -0.46875 2.625 -0.46875q1.46875 0 2.5 0.390625q1.046875 0.375 1.625 1.015625q0.59375 0.640625 0.71875 1.203125q0.125 0.5625 0.125 1.65625l0 1.140625zm11.0512085 -5.15625l-2.109375 14.734375l-6.140625 0l-2.25 -14.734375l4.5 0l0.90625 10.59375q-0.203125 -1.15625 0.125 -5.546875q0.203125 -2.4375 0.46875 -5.046875l4.5 0zm4.038452 -3.09375l1.6875 0q1.875 0 2.875 0.390625q1.0 0.375 1.3125 1.140625q0.3125 0.765625 0.3125 3.0l0 8.765625q0 2.234375 -0.3125 3.0q-0.3125 0.765625 -1.296875 1.15625q-0.96875 0.375 -2.890625 0.375l-1.6875 0l0 -2.890625q1.21875 0 1.359375 -0.046875q0.15625 -0.0625 0.21875 -0.25q0.078125 -0.203125 0.078125 -1.328125l0 -8.796875q0 -1.1875 -0.078125 -1.359375q-0.078125 -0.171875 -0.25 -0.21875q-0.15625 -0.046875 -1.328125 -0.046875l0 -2.890625z" fill-rule="nonzero"/><path fill="#000000" fill-opacity="0.0" d="m170.43456 453.10852l164.18898 0l0 56.944885l-164.18898 0z" fill-rule="evenodd"/><path fill="#6aa850" d="m193.60643 456.99133l0 4.734375l-3.046875 0l0 15.84375l-5.9375 0l0 -15.84375l-3.046875 0l0 -4.734375l12.03125 0zm5.180176 10.640625l-5.421875 0l0 -1.484375q0 -1.96875 0.46875 -3.078125q0.484375 -1.109375 1.890625 -1.953125q1.40625 -0.84375 3.609375 -0.84375q2.640625 0 4.015625 0.96875q1.390625 0.953125 1.65625 2.34375q0.28125 1.390625 0.28125 5.453125l0 8.53125l-5.578125 0l0.15625 -0.859375q0.078125 0.171875 -0.734375 0.671875q-0.8125 0.484375 -1.90625 0.484375q-1.421875 0 -2.640625 -0.8125q-1.21875 -0.828125 -1.21875 -3.5l0 -1.328125q0 -1.96875 0.65625 -2.71875q0.65625 -0.75 3.015625 -1.671875q2.296875 -0.90625 2.40625 -1.125q0.125 -0.21875 0.125 -1.140625q0 -1.171875 -0.125 -1.40625q-0.109375 -0.25 -0.296875 -0.25q-0.234375 0 -0.296875 0.171875q-0.0625 0.171875 -0.0625 1.453125l0 2.09375zm0.78125 2.59375q-0.46875 0.34375 -0.625 0.84375q-0.15625 0.5 -0.15625 1.53125q0 1.1875 0.09375 1.40625q0.09375 0.203125 0.328125 0.203125q0.21875 0 0.28125 -0.140625q0.078125 -0.140625 0.078125 -1.265625l0 -2.578125zm18.293152 -3.703125l-5.15625 0l0 -1.265625q0 -1.046875 -0.0625 -1.1875q-0.0625 -0.15625 -0.3125 -0.15625q-0.21875 0 -0.34375 0.15625q-0.109375 0.140625 -0.109375 0.5625q0 0.6875 0.078125 0.953125q0.09375 0.25 0.546875 0.625q0.453125 0.375 2.03125 1.140625q2.234375 1.09375 2.953125 2.09375q0.75 1.046875 0.75 2.9375q0 2.078125 -0.5625 3.1875q-0.5625 1.109375 -1.875 1.703125q-1.3125 0.59375 -3.078125 0.59375q-1.96875 0 -3.40625 -0.625q-1.4375 -0.640625 -2.0 -1.75q-0.5625 -1.109375 -0.5625 -3.234375l0 -1.171875l5.171875 0l0 1.421875q0 1.234375 0.09375 1.46875q0.109375 0.234375 0.328125 0.234375q0.34375 0 0.4375 -0.125q0.109375 -0.140625 0.109375 -0.859375q0 -1.0 -0.15625 -1.1875q-0.234375 -0.25 -2.78125 -1.65625q-2.28125 -1.28125 -2.8125 -2.375q-0.515625 -1.09375 -0.515625 -2.5625q0 -2.046875 0.5625 -3.0625q0.578125 -1.03125 1.90625 -1.5625q1.328125 -0.546875 3.03125 -0.546875q1.671875 0 2.875 0.4375q1.21875 0.4375 1.890625 1.1875q0.6875 0.734375 0.828125 1.390625q0.140625 0.640625 0.140625 1.90625l0 1.328125zm13.258392 -5.96875l-2.125 6.875l2.71875 10.140625l-5.59375 0l-1.21875 -7.453125l0.390625 7.453125l-5.734375 0l0 -20.578125l5.734375 0l-0.390625 8.703125l1.25 -5.140625l4.96875 0zm5.7631073 -3.5625l4.234375 0q3.78125 0 5.171875 0.375q1.40625 0.359375 2.15625 1.234375q0.765625 0.859375 0.953125 1.890625q0.1875 1.03125 0.1875 3.875l0 6.9375q0 2.703125 -0.28125 3.6875q-0.265625 0.984375 -0.984375 1.5625q-0.703125 0.578125 -1.6875 0.796875q-0.96875 0.21875 -2.875 0.21875l-6.875 0l0 -20.578125zm5.921875 4.171875l0 12.234375q0.5 0 0.671875 -0.296875q0.171875 -0.3125 0.171875 -2.1875l0 -7.6875q0 -1.296875 -0.0625 -1.578125q-0.0625 -0.28125 -0.25 -0.375q-0.1875 -0.109375 -0.53125 -0.109375z" fill-rule="nonzero"/><path fill="#6aa850" d="m188.51268 486.60965l0 2.890625q-1.171875 0 -1.34375 0.046875q-0.15625 0.046875 -0.234375 0.21875q-0.078125 0.171875 -0.078125 1.359375l0 8.796875q0 1.125 0.0625 1.328125q0.078125 0.1875 0.234375 0.25q0.15625 0.046875 1.359375 0.046875l0 2.890625l-1.6875 0q-1.921875 0 -2.890625 -0.375q-0.96875 -0.390625 -1.296875 -1.15625q-0.3125 -0.765625 -0.3125 -3.0l0 -8.765625q0 -2.234375 0.3125 -3.0q0.3125 -0.765625 1.3125 -1.140625q1.0 -0.390625 2.875 -0.390625l1.6875 0zm15.121048 9.0625l-4.703125 0l0 -1.9375q0 -0.796875 -0.078125 -0.953125q-0.078125 -0.171875 -0.234375 -0.171875q-0.171875 0 -0.234375 0.140625q-0.0625 0.125 -0.0625 0.984375l0 6.625q0 0.6875 0.125 0.9375q0.125 0.25 0.296875 0.25q0.21875 0 0.3125 -0.25q0.109375 -0.265625 0.109375 -1.296875l0 -2.015625l4.46875 0q-0.015625 2.03125 -0.140625 2.9375q-0.109375 0.890625 -0.765625 1.859375q-0.640625 0.953125 -1.671875 1.4375q-1.03125 0.46875 -2.53125 0.46875q-1.90625 0 -3.0625 -0.671875q-1.140625 -0.671875 -1.609375 -1.859375q-0.46875 -1.203125 -0.46875 -3.328125l0 -4.0q0 -1.859375 0.390625 -2.84375q0.390625 -0.984375 1.65625 -1.75q1.265625 -0.78125 3.03125 -0.78125q1.78125 0 3.046875 0.765625q1.28125 0.765625 1.703125 1.921875q0.421875 1.15625 0.421875 3.53125zm10.695847 -0.8125l-4.453125 0l0 -1.09375q0 -0.90625 -0.0625 -1.03125q-0.046875 -0.125 -0.28125 -0.125q-0.203125 0 -0.296875 0.125q-0.09375 0.125 -0.09375 0.5q0 0.59375 0.0625 0.828125q0.0625 0.234375 0.453125 0.546875q0.40625 0.3125 1.78125 0.984375q1.9375 0.9375 2.578125 1.828125q0.640625 0.890625 0.640625 2.53125q0 1.796875 -0.5 2.765625q-0.484375 0.953125 -1.625 1.46875q-1.125 0.5 -2.65625 0.5q-1.703125 0 -2.953125 -0.546875q-1.234375 -0.546875 -1.71875 -1.5q-0.484375 -0.953125 -0.484375 -2.796875l0 -1.0l4.453125 0l0 1.21875q0 1.0625 0.078125 1.28125q0.09375 0.203125 0.296875 0.203125q0.3125 0 0.40625 -0.109375q0.09375 -0.125 0.09375 -0.75q0 -0.890625 -0.140625 -1.03125q-0.21875 -0.21875 -2.421875 -1.453125q-1.984375 -1.109375 -2.4375 -2.046875q-0.4375 -0.953125 -0.4375 -2.21875q0 -1.765625 0.484375 -2.65625q0.5 -0.890625 1.640625 -1.359375q1.15625 -0.46875 2.625 -0.46875q1.46875 0 2.5 0.390625q1.046875 0.375 1.625 1.015625q0.59375 0.640625 0.71875 1.203125q0.125 0.5625 0.125 1.65625l0 1.140625zm11.0512085 -5.15625l-2.109375 14.734375l-6.140625 0l-2.25 -14.734375l4.5 0l0.90625 10.59375q-0.203125 -1.15625 0.125 -5.546875q0.203125 -2.4375 0.46875 -5.046875l4.5 0z" fill-rule="nonzero"/><path fill="#6aa850" d="m242.65361 488.79715q1.234375 -0.109375 2.203125 0.96875l5.71875 6.421875l-5.640625 6.25q-1.03125 1.140625 -2.046875 1.140625q-0.8125 0 -1.5 -0.578125q-0.828125 -0.53125 -0.828125 -1.578125q0 -1.0 0.609375 -1.609375l1.296875 -1.484375l-9.546875 0q-0.921875 0 -1.546875 -0.609375q-0.703125 -0.71875 -0.609375 -1.734375q0.109375 -0.8125 0.609375 -1.328125q0.609375 -0.609375 1.53125 -0.703125l9.546875 0l-1.203125 -1.328125q-0.6875 -0.875 -0.6875 -1.703125q0.109375 -0.828125 0.8125 -1.53125q0.59375 -0.390625 1.28125 -0.59375z" fill-rule="nonzero"/><path fill="#6aa850" d="m261.5132 486.60965l0 2.890625l-5.0625 0l0 -2.890625l5.0625 0zm0 3.09375l0 11.46875q0 1.984375 -0.09375 2.734375q-0.078125 0.734375 -0.546875 1.34375q-0.453125 0.609375 -1.21875 0.875q-0.75 0.28125 -2.171875 0.28125l-1.984375 0l0 -2.90625q0.90625 0 0.921875 -0.046875q0.03125 -0.046875 0.03125 -1.90625l0 -11.84375l5.0625 0zm6.592224 0l-0.078125 0.640625q0.015625 -0.0625 0.765625 -0.46875q0.765625 -0.421875 1.65625 -0.421875q1.109375 0 1.921875 0.609375q0.8125 0.609375 1.015625 1.375q0.203125 0.765625 0.203125 2.484375l0 5.9375q0 1.96875 -0.25 2.859375q-0.25 0.890625 -1.046875 1.4375q-0.796875 0.53125 -1.890625 0.53125q-0.875 0 -1.625 -0.40625q-0.75 -0.40625 -0.78125 -0.46875l0.015625 2.625l-4.9375 0l0 -16.734375l5.03125 0zm0.546875 4.421875q0 -1.234375 -0.046875 -1.375q-0.046875 -0.140625 -0.25 -0.140625q-0.203125 0 -0.28125 0.1875q-0.0625 0.171875 -0.0625 1.328125l0 5.84375q0 1.203125 0.0625 1.390625q0.078125 0.1875 0.296875 0.1875q0.171875 0 0.21875 -0.15625q0.0625 -0.15625 0.0625 -1.21875l0 -6.046875zm16.757324 -4.421875l0 11.171875q0 2.21875 -0.109375 2.921875q-0.109375 0.703125 -0.796875 1.484375q-0.671875 0.78125 -1.828125 1.171875q-1.15625 0.40625 -2.890625 0.40625q-2.125 0 -3.5 -0.765625q-1.359375 -0.75 -1.390625 -3.3125l4.8125 0q0 0.9375 0.34375 0.9375q0.296875 0 0.390625 -0.171875q0.09375 -0.171875 0.09375 -0.984375l0 -0.3125q-0.046875 0.03125 -0.71875 0.3125q-0.671875 0.28125 -1.390625 0.28125q-1.25 0 -2.09375 -0.515625q-0.828125 -0.53125 -1.140625 -1.359375q-0.296875 -0.84375 -0.296875 -2.3125l0 -5.109375q0 -2.109375 0.796875 -3.09375q0.8125 -1.0 2.4375 -1.0q0.890625 0 1.625 0.359375q0.734375 0.359375 0.890625 0.578125l0.203125 -0.6875l4.5625 0zm-4.953125 4.0625q0 -0.90625 -0.0625 -1.03125q-0.046875 -0.125 -0.21875 -0.125q-0.15625 0 -0.25 0.171875q-0.09375 0.171875 -0.09375 0.984375l0 4.734375q0 0.875 0.0625 1.03125q0.0625 0.140625 0.21875 0.140625q0.1875 0 0.265625 -0.203125q0.078125 -0.203125 0.078125 -1.34375l0 -4.359375zm9.934479 -7.15625l1.6875 0q1.875 0 2.875 0.390625q1.0 0.375 1.3125 1.140625q0.3125 0.765625 0.3125 3.0l0 8.765625q0 2.234375 -0.3125 3.0q-0.3125 0.765625 -1.296875 1.15625q-0.96875 0.375 -2.890625 0.375l-1.6875 0l0 -2.890625q1.21875 0 1.359375 -0.046875q0.15625 -0.0625 0.21875 -0.25q0.078125 -0.203125 0.078125 -1.328125l0 -8.796875q0 -1.1875 -0.078125 -1.359375q-0.078125 -0.171875 -0.25 -0.21875q-0.15625 -0.046875 -1.328125 -0.046875l0 -2.890625z" fill-rule="nonzero"/><path fill="#000000" fill-opacity="0.0" d="m569.5065 231.13557l164.18896 0l0 56.94487l-164.18896 0z" fill-rule="evenodd"/><path fill="#4a86e8" d="m592.67834 235.0184l0 4.734375l-3.046875 0l0 15.84375l-5.9375 0l0 -15.84375l-3.046875 0l0 -4.734375l12.03125 0zm5.180176 10.640625l-5.421875 0l0 -1.484375q0 -1.96875 0.46875 -3.078125q0.484375 -1.109375 1.890625 -1.953125q1.40625 -0.84375 3.609375 -0.84375q2.640625 0 4.015625 0.96875q1.390625 0.953125 1.65625 2.34375q0.28125 1.390625 0.28125 5.453125l0 8.53125l-5.578125 0l0.15625 -0.859375q0.078125 0.171875 -0.734375 0.671875q-0.8125 0.484375 -1.90625 0.484375q-1.421875 0 -2.640625 -0.8125q-1.21875 -0.828125 -1.21875 -3.5l0 -1.328125q0 -1.96875 0.65625 -2.71875q0.65625 -0.75 3.015625 -1.671875q2.296875 -0.90625 2.40625 -1.125q0.125 -0.21875 0.125 -1.140625q0 -1.171875 -0.125 -1.40625q-0.109375 -0.25 -0.296875 -0.25q-0.234375 0 -0.296875 0.171875q-0.0625 0.171875 -0.0625 1.453125l0 2.09375zm0.78125 2.59375q-0.46875 0.34375 -0.625 0.84375q-0.15625 0.5 -0.15625 1.53125q0 1.1875 0.09375 1.40625q0.09375 0.203125 0.328125 0.203125q0.21875 0 0.28125 -0.140625q0.078125 -0.140625 0.078125 -1.265625l0 -2.578125zm18.293152 -3.703125l-5.15625 0l0 -1.265625q0 -1.046875 -0.0625 -1.1875q-0.0625 -0.15625 -0.3125 -0.15625q-0.21875 0 -0.34375 0.15625q-0.109375 0.140625 -0.109375 0.5625q0 0.6875 0.078125 0.953125q0.09375 0.25 0.546875 0.625q0.453125 0.375 2.03125 1.140625q2.234375 1.09375 2.953125 2.09375q0.75 1.046875 0.75 2.9375q0 2.078125 -0.5625 3.1875q-0.5625 1.109375 -1.875 1.703125q-1.3125 0.59375 -3.078125 0.59375q-1.96875 0 -3.40625 -0.625q-1.4375 -0.640625 -2.0 -1.75q-0.5625 -1.109375 -0.5625 -3.234375l0 -1.171875l5.171875 0l0 1.421875q0 1.234375 0.09375 1.46875q0.109375 0.234375 0.328125 0.234375q0.34375 0 0.4375 -0.125q0.109375 -0.140625 0.109375 -0.859375q0 -1.0 -0.15625 -1.1875q-0.234375 -0.25 -2.78125 -1.65625q-2.28125 -1.28125 -2.8125 -2.375q-0.515625 -1.09375 -0.515625 -2.5625q0 -2.046875 0.5625 -3.0625q0.578125 -1.03125 1.90625 -1.5625q1.328125 -0.546875 3.03125 -0.546875q1.671875 0 2.875 0.4375q1.21875 0.4375 1.890625 1.1875q0.6875 0.734375 0.828125 1.390625q0.140625 0.640625 0.140625 1.90625l0 1.328125zm13.258362 -5.96875l-2.125 6.875l2.71875 10.140625l-5.59375 0l-1.21875 -7.453125l0.390625 7.453125l-5.734375 0l0 -20.578125l5.734375 0l-0.390625 8.703125l1.25 -5.140625l4.96875 0zm18.559998 5.84375l-5.921875 0l0 -3.828125q0 -1.4375 -0.09375 -1.640625q-0.09375 -0.21875 -0.421875 -0.21875q-0.359375 0 -0.46875 0.296875q-0.109375 0.296875 -0.109375 1.71875l0 9.1875q0 1.375 0.109375 1.65625q0.109375 0.28125 0.4375 0.28125q0.3125 0 0.421875 -0.28125q0.125 -0.28125 0.125 -1.828125l0 -2.875l5.921875 0l0 1.15625q0 3.140625 -0.46875 4.515625q-0.453125 1.375 -2.0625 2.421875q-1.59375 1.03125 -3.875 1.03125q-2.375 0 -3.953125 -0.875q-1.578125 -0.890625 -2.09375 -2.4375q-0.5 -1.5625 -0.5 -4.53125l0 -5.78125q0 -2.171875 0.15625 -3.296875q0.15625 -1.140625 0.9375 -2.203125q0.796875 -1.078125 2.171875 -1.6875q1.375 -0.609375 3.140625 -0.609375q2.375 0 3.96875 0.953125q1.59375 0.9375 2.078125 2.359375q0.5 1.40625 0.5 4.25l0 2.265625z" fill-rule="nonzero"/><path fill="#4a86e8" d="m587.5846 264.63672l0 2.890625q-1.171875 0 -1.34375 0.046875q-0.15625 0.046875 -0.234375 0.21875q-0.078125 0.171875 -0.078125 1.359375l0 8.796875q0 1.125 0.0625 1.328125q0.078125 0.1875 0.234375 0.25q0.15625 0.046875 1.359375 0.046875l0 2.890625l-1.6875 0q-1.921875 0 -2.890625 -0.375q-0.96875 -0.390625 -1.296875 -1.15625q-0.3125 -0.765625 -0.3125 -3.0l0 -8.765625q0 -2.234375 0.3125 -3.0q0.3125 -0.765625 1.3125 -1.140625q1.0 -0.390625 2.875 -0.390625l1.6875 0zm9.902283 3.09375l-0.125 0.75q-0.03125 -0.125 0.71875 -0.5625q0.765625 -0.4375 1.734375 -0.4375q1.90625 0 2.71875 1.328125q0.296875 -0.453125 1.046875 -0.890625q0.75 -0.4375 1.671875 -0.4375q1.203125 0 2.0 0.609375q0.796875 0.59375 1.015625 1.4375q0.234375 0.828125 0.234375 2.609375l0 10.328125l-4.8125 0l0 -9.5q0 -1.75 -0.078125 -2.03125q-0.078125 -0.296875 -0.28125 -0.296875q-0.21875 0 -0.3125 0.28125q-0.078125 0.28125 -0.078125 2.046875l0 9.5l-4.8125 0l0 -9.265625q0 -2.03125 -0.0625 -2.296875q-0.0625 -0.265625 -0.265625 -0.265625q-0.15625 0 -0.265625 0.125q-0.109375 0.109375 -0.125 0.359375q-0.015625 0.25 -0.015625 1.265625l0 10.078125l-4.8125 0l0 -14.734375l4.90625 0zm17.541931 0l-0.078125 0.640625q0.015625 -0.0625 0.765625 -0.46875q0.765625 -0.421875 1.65625 -0.421875q1.109375 0 1.921875 0.609375q0.8125 0.609375 1.015625 1.375q0.203125 0.765625 0.203125 2.484375l0 5.9375q0 1.96875 -0.25 2.859375q-0.25 0.890625 -1.046875 1.4375q-0.796875 0.53125 -1.890625 0.53125q-0.875 0 -1.625 -0.40625q-0.75 -0.40625 -0.78125 -0.46875l0.015625 2.625l-4.9375 0l0 -16.734375l5.03125 0zm0.546875 4.421875q0 -1.234375 -0.046875 -1.375q-0.046875 -0.140625 -0.25 -0.140625q-0.203125 0 -0.28125 0.1875q-0.0625 0.171875 -0.0625 1.328125l0 5.84375q0 1.203125 0.0625 1.390625q0.078125 0.1875 0.296875 0.1875q0.171875 0 0.21875 -0.15625q0.0625 -0.15625 0.0625 -1.21875l0 -6.046875zm15.55426 0.203125q0.375 0.109375 0.90625 0.953125q0.546875 0.828125 0.546875 3.6875q0 2.109375 -0.515625 3.328125q-0.5 1.203125 -1.734375 1.84375q-1.234375 0.640625 -3.09375 0.640625q-2.140625 0 -3.390625 -0.734375q-1.234375 -0.75 -1.640625 -1.8125q-0.390625 -1.078125 -0.390625 -3.59375l0 -1.671875l4.9375 0l0 3.109375q0 1.046875 0.078125 1.21875q0.078125 0.171875 0.3125 0.171875q0.28125 0 0.375 -0.25q0.109375 -0.25 0.109375 -1.796875l0 -1.1875q0 -0.90625 -0.171875 -1.265625q-0.171875 -0.359375 -0.53125 -0.46875q-0.34375 -0.125 -1.859375 -0.140625l0 -3.15625q1.8125 0 2.0625 -0.078125q0.265625 -0.09375 0.375 -0.375q0.125 -0.296875 0.125 -1.0625l0 -0.96875q0 -0.796875 -0.109375 -0.96875q-0.109375 -0.171875 -0.328125 -0.171875q-0.234375 0 -0.34375 0.1875q-0.09375 0.171875 -0.09375 1.078125l0 1.734375l-4.9375 0l0 -1.78125q0 -2.625 1.234375 -3.578125q1.234375 -0.953125 3.78125 -0.953125q3.21875 0 4.390625 1.3125q1.1875 1.296875 1.1875 3.546875q0 1.546875 -0.4375 2.265625q-0.4375 0.71875 -0.84375 0.9375z" fill-rule="nonzero"/><path fill="#4a86e8" d="m650.8033 266.82422q1.234375 -0.109375 2.203125 0.96875l5.71875 6.421875l-5.640625 6.25q-1.03125 1.140625 -2.046875 1.140625q-0.8125 0 -1.5 -0.578125q-0.828125 -0.53125 -0.828125 -1.578125q0 -1.0 0.609375 -1.609375l1.296875 -1.484375l-9.546875 0q-0.921875 0 -1.546875 -0.609375q-0.703125 -0.71875 -0.609375 -1.734375q0.109375 -0.8125 0.609375 -1.328125q0.609375 -0.609375 1.53125 -0.703125l9.546875 0l-1.203125 -1.328125q-0.6875 -0.875 -0.6875 -1.703125q0.109375 -0.828125 0.8125 -1.53125q0.59375 -0.390625 1.28125 -0.59375z" fill-rule="nonzero"/><path fill="#4a86e8" d="m669.6473 265.85547l0 2.21875l1.15625 0l0 2.890625l-1.15625 0l0 7.1875q0 1.265625 0.046875 1.328125q0.0625 0.0625 1.296875 0.0625l0 2.921875l-2.0625 0q-1.5 0 -2.1875 -0.140625q-0.6875 -0.140625 -1.234375 -0.640625q-0.546875 -0.5 -0.6875 -1.140625q-0.125 -0.640625 -0.125 -2.765625l0 -6.8125l-0.921875 0l0 -2.890625l0.921875 0l0 -2.21875l4.953125 0zm11.351807 1.875l-1.78125 7.0625l2.15625 7.671875l-4.875 0q-0.671875 -3.046875 -0.671875 -5.109375q-0.09375 2.5625 -0.65625 5.109375l-4.265625 0l1.921875 -7.671875l-1.9375 -7.0625l4.28125 0q0.921875 4.59375 0.65625 5.21875q0.296875 -3.65625 0.671875 -5.21875l4.5 0zm6.0264893 -1.875l0 2.21875l1.15625 0l0 2.890625l-1.15625 0l0 7.1875q0 1.265625 0.046875 1.328125q0.0625 0.0625 1.296875 0.0625l0 2.921875l-2.0625 0q-1.5 0 -2.1875 -0.140625q-0.6875 -0.140625 -1.234375 -0.640625q-0.546875 -0.5 -0.6875 -1.140625q-0.125 -0.640625 -0.125 -2.765625l0 -6.8125l-0.921875 0l0 -2.890625l0.921875 0l0 -2.21875l4.953125 0zm5.5551147 -1.21875l1.6875 0q1.875 0 2.875 0.390625q1.0 0.375 1.3125 1.140625q0.3125 0.765625 0.3125 3.0l0 8.765625q0 2.234375 -0.3125 3.0q-0.3125 0.765625 -1.296875 1.15625q-0.96875 0.375 -2.890625 0.375l-1.6875 0l0 -2.890625q1.21875 0 1.359375 -0.046875q0.15625 -0.0625 0.21875 -0.25q0.078125 -0.203125 0.078125 -1.328125l0 -8.796875q0 -1.1875 -0.078125 -1.359375q-0.078125 -0.171875 -0.25 -0.21875q-0.15625 -0.046875 -1.328125 -0.046875l0 -2.890625z" fill-rule="nonzero"/><path fill="#000000" fill-opacity="0.0" d="m474.41864 453.10852l164.18896 0l0 56.944885l-164.18896 0z" fill-rule="evenodd"/><path fill="#e69138" d="m497.5905 456.99133l0 4.734375l-3.046875 0l0 15.84375l-5.9375 0l0 -15.84375l-3.046875 0l0 -4.734375l12.03125 0zm5.180176 10.640625l-5.421875 0l0 -1.484375q0 -1.96875 0.46875 -3.078125q0.484375 -1.109375 1.890625 -1.953125q1.40625 -0.84375 3.609375 -0.84375q2.640625 0 4.015625 0.96875q1.390625 0.953125 1.65625 2.34375q0.28125 1.390625 0.28125 5.453125l0 8.53125l-5.578125 0l0.15625 -0.859375q0.078125 0.171875 -0.734375 0.671875q-0.8125 0.484375 -1.90625 0.484375q-1.421875 0 -2.640625 -0.8125q-1.21875 -0.828125 -1.21875 -3.5l0 -1.328125q0 -1.96875 0.65625 -2.71875q0.65625 -0.75 3.015625 -1.671875q2.296875 -0.90625 2.40625 -1.125q0.125 -0.21875 0.125 -1.140625q0 -1.171875 -0.125 -1.40625q-0.109375 -0.25 -0.296875 -0.25q-0.234375 0 -0.296875 0.171875q-0.0625 0.171875 -0.0625 1.453125l0 2.09375zm0.78125 2.59375q-0.46875 0.34375 -0.625 0.84375q-0.15625 0.5 -0.15625 1.53125q0 1.1875 0.09375 1.40625q0.09375 0.203125 0.328125 0.203125q0.21875 0 0.28125 -0.140625q0.078125 -0.140625 0.078125 -1.265625l0 -2.578125zm18.293152 -3.703125l-5.15625 0l0 -1.265625q0 -1.046875 -0.0625 -1.1875q-0.0625 -0.15625 -0.3125 -0.15625q-0.21875 0 -0.34375 0.15625q-0.109375 0.140625 -0.109375 0.5625q0 0.6875 0.078125 0.953125q0.09375 0.25 0.546875 0.625q0.453125 0.375 2.03125 1.140625q2.234375 1.09375 2.953125 2.09375q0.75 1.046875 0.75 2.9375q0 2.078125 -0.5625 3.1875q-0.5625 1.109375 -1.875 1.703125q-1.3125 0.59375 -3.078125 0.59375q-1.96875 0 -3.40625 -0.625q-1.4375 -0.640625 -2.0 -1.75q-0.5625 -1.109375 -0.5625 -3.234375l0 -1.171875l5.171875 0l0 1.421875q0 1.234375 0.09375 1.46875q0.109375 0.234375 0.328125 0.234375q0.34375 0 0.4375 -0.125q0.109375 -0.140625 0.109375 -0.859375q0 -1.0 -0.15625 -1.1875q-0.234375 -0.25 -2.78125 -1.65625q-2.28125 -1.28125 -2.8125 -2.375q-0.515625 -1.09375 -0.515625 -2.5625q0 -2.046875 0.5625 -3.0625q0.578125 -1.03125 1.90625 -1.5625q1.328125 -0.546875 3.03125 -0.546875q1.671875 0 2.875 0.4375q1.21875 0.4375 1.890625 1.1875q0.6875 0.734375 0.828125 1.390625q0.140625 0.640625 0.140625 1.90625l0 1.328125zm13.258423 -5.96875l-2.125 6.875l2.71875 10.140625l-5.59375 0l-1.21875 -7.453125l0.390625 7.453125l-5.734375 0l0 -20.578125l5.734375 0l-0.390625 8.703125l1.25 -5.140625l4.96875 0zm5.7630615 -3.5625l9.359375 0l0 4.734375l-3.4375 0l0 2.984375l3.21875 0l0 4.546875l-3.21875 0l0 3.5625l3.78125 0l0 4.75l-9.703125 0l0 -20.578125z" fill-rule="nonzero"/><path fill="#e69138" d="m492.49677 486.60965l0 2.890625q-1.171875 0 -1.34375 0.046875q-0.15625 0.046875 -0.234375 0.21875q-0.078125 0.171875 -0.078125 1.359375l0 8.796875q0 1.125 0.0625 1.328125q0.078125 0.1875 0.234375 0.25q0.15625 0.046875 1.359375 0.046875l0 2.890625l-1.6875 0q-1.921875 0 -2.890625 -0.375q-0.96875 -0.390625 -1.296875 -1.15625q-0.3125 -0.765625 -0.3125 -3.0l0 -8.765625q0 -2.234375 0.3125 -3.0q0.3125 -0.765625 1.3125 -1.140625q1.0 -0.390625 2.875 -0.390625l1.6875 0zm10.167938 1.21875l0 2.21875l1.15625 0l0 2.890625l-1.15625 0l0 7.1875q0 1.265625 0.046875 1.328125q0.0625 0.0625 1.296875 0.0625l0 2.921875l-2.0625 0q-1.5 0 -2.1875 -0.140625q-0.6875 -0.140625 -1.234375 -0.640625q-0.546875 -0.5 -0.6875 -1.140625q-0.125 -0.640625 -0.125 -2.765625l0 -6.8125l-0.921875 0l0 -2.890625l0.921875 0l0 -2.21875l4.953125 0zm11.351776 1.875l-1.78125 7.0625l2.15625 7.671875l-4.8749695 0q-0.671875 -3.046875 -0.671875 -5.109375q-0.09375 2.5625 -0.65625 5.109375l-4.265625 0l1.921875 -7.671875l-1.9375 -7.0625l4.28125 0q0.921875 4.59375 0.65625 5.21875q0.296875 -3.65625 0.671875 -5.21875l4.4999695 0zm6.0264893 -1.875l0 2.21875l1.15625 0l0 2.890625l-1.15625 0l0 7.1875q0 1.265625 0.046875 1.328125q0.0625 0.0625 1.296875 0.0625l0 2.921875l-2.0625 0q-1.5 0 -2.1875 -0.140625q-0.6875 -0.140625 -1.234375 -0.640625q-0.546875 -0.5 -0.6875 -1.140625q-0.125 -0.640625 -0.125 -2.765625l0 -6.8125l-0.921875 0l0 -2.890625l0.921875 0l0 -2.21875l4.953125 0z" fill-rule="nonzero"/><path fill="#e69138" d="m538.8325 488.79715q1.234375 -0.109375 2.203125 0.96875l5.71875 6.421875l-5.640625 6.25q-1.03125 1.140625 -2.046875 1.140625q-0.8125 0 -1.5 -0.578125q-0.828125 -0.53125 -0.828125 -1.578125q0 -1.0 0.609375 -1.609375l1.296875 -1.484375l-9.546875 0q-0.921875 0 -1.546875 -0.609375q-0.703125 -0.71875 -0.609375 -1.734375q0.109375 -0.8125 0.609375 -1.328125q0.609375 -0.609375 1.53125 -0.703125l9.546875 0l-1.203125 -1.328125q-0.6875 -0.875 -0.6875 -1.703125q0.109375 -0.828125 0.8125 -1.53125q0.59375 -0.390625 1.28125 -0.59375z" fill-rule="nonzero"/><path fill="#e69138" d="m557.5359 489.7034l-0.140625 0.75q-0.046875 -0.125 0.6875 -0.5625q0.75 -0.4375 1.71875 -0.4375q1.21875 0 2.015625 0.59375q0.796875 0.59375 1.0 1.453125q0.21875 0.859375 0.21875 2.75l0 10.1875l-4.9375 0l0 -10.078125q0 -1.40625 -0.0625 -1.578125q-0.046875 -0.171875 -0.234375 -0.171875q-0.21875 0 -0.296875 0.21875q-0.0625 0.21875 -0.0625 1.765625l0 9.84375l-4.9375 0l0 -14.734375l5.03125 0zm12.029663 0l-0.078125 0.640625q0.015625 -0.0625 0.765625 -0.46875q0.765625 -0.421875 1.65625 -0.421875q1.109375 0 1.921875 0.609375q0.8125 0.609375 1.015625 1.375q0.203125 0.765625 0.203125 2.484375l0 5.9375q0 1.96875 -0.25 2.859375q-0.25 0.890625 -1.046875 1.4375q-0.796875 0.53125 -1.890625 0.53125q-0.875 0 -1.625 -0.40625q-0.75 -0.40625 -0.78125 -0.46875l0.015625 2.625l-4.9375 0l0 -16.734375l5.03125 0zm0.546875 4.421875q0 -1.234375 -0.046875 -1.375q-0.046875 -0.140625 -0.25 -0.140625q-0.203125 0 -0.28125 0.1875q-0.0625 0.171875 -0.0625 1.328125l0 5.84375q0 1.203125 0.0625 1.390625q0.078125 0.1875 0.296875 0.1875q0.171875 0 0.21875 -0.15625q0.0625 -0.15625 0.0625 -1.21875l0 -6.046875zm16.038574 -4.421875l-1.28125 10.546875q-0.28125 2.453125 -0.5 3.375q-0.203125 0.90625 -0.703125 1.546875q-0.5 0.65625 -1.390625 0.9375q-0.890625 0.296875 -2.71875 0.296875l-2.9375 0l0 -2.90625q1.265625 0 1.421875 -0.046875q0.15625 -0.0625 0.15625 -0.171875q0 -0.140625 -0.265625 -1.40625l-2.421875 -12.171875l4.578125 0l1.125 9.828125l0.359375 -9.828125l4.578125 0zm4.1730347 -3.09375l1.6875 0q1.875 0 2.875 0.390625q1.0 0.375 1.3125 1.140625q0.3125 0.765625 0.3125 3.0l0 8.765625q0 2.234375 -0.3125 3.0q-0.3125 0.765625 -1.296875 1.15625q-0.96875 0.375 -2.890625 0.375l-1.6875 0l0 -2.890625q1.21875 0 1.359375 -0.046875q0.15625 -0.0625 0.21875 -0.25q0.078125 -0.203125 0.078125 -1.328125l0 -8.796875q0 -1.1875 -0.078125 -1.359375q-0.078125 -0.171875 -0.25 -0.21875q-0.15625 -0.046875 -1.328125 -0.046875l0 -2.890625z" fill-rule="nonzero"/><path fill="#000000" fill-opacity="0.0" d="m682.283 453.10852l164.18903 0l0 56.944885l-164.18903 0z" fill-rule="evenodd"/><path fill="#8e7cc3" d="m705.4549 456.99133l0 4.734375l-3.046875 0l0 15.84375l-5.9375 0l0 -15.84375l-3.046875 0l0 -4.734375l12.03125 0zm5.180176 10.640625l-5.421875 0l0 -1.484375q0 -1.96875 0.46875 -3.078125q0.484375 -1.109375 1.890625 -1.953125q1.40625 -0.84375 3.609375 -0.84375q2.640625 0 4.015625 0.96875q1.390625 0.953125 1.65625 2.34375q0.28125 1.390625 0.28125 5.453125l0 8.53125l-5.578125 0l0.15625 -0.859375q0.078125 0.171875 -0.734375 0.671875q-0.8125 0.484375 -1.90625 0.484375q-1.421875 0 -2.640625 -0.8125q-1.21875 -0.828125 -1.21875 -3.5l0 -1.328125q0 -1.96875 0.65625 -2.71875q0.65625 -0.75 3.015625 -1.671875q2.296875 -0.90625 2.40625 -1.125q0.125 -0.21875 0.125 -1.140625q0 -1.171875 -0.125 -1.40625q-0.109375 -0.25 -0.296875 -0.25q-0.234375 0 -0.296875 0.171875q-0.0625 0.171875 -0.0625 1.453125l0 2.09375zm0.78125 2.59375q-0.46875 0.34375 -0.625 0.84375q-0.15625 0.5 -0.15625 1.53125q0 1.1875 0.09375 1.40625q0.09375 0.203125 0.328125 0.203125q0.21875 0 0.28125 -0.140625q0.078125 -0.140625 0.078125 -1.265625l0 -2.578125zm18.293152 -3.703125l-5.15625 0l0 -1.265625q0 -1.046875 -0.0625 -1.1875q-0.0625 -0.15625 -0.3125 -0.15625q-0.21875 0 -0.34375 0.15625q-0.109375 0.140625 -0.109375 0.5625q0 0.6875 0.078125 0.953125q0.09375 0.25 0.546875 0.625q0.453125 0.375 2.03125 1.140625q2.234375 1.09375 2.953125 2.09375q0.75 1.046875 0.75 2.9375q0 2.078125 -0.5625 3.1875q-0.5625 1.109375 -1.875 1.703125q-1.3125 0.59375 -3.078125 0.59375q-1.96875 0 -3.40625 -0.625q-1.4375 -0.640625 -2.0 -1.75q-0.5625 -1.109375 -0.5625 -3.234375l0 -1.171875l5.171875 0l0 1.421875q0 1.234375 0.09375 1.46875q0.109375 0.234375 0.328125 0.234375q0.34375 0 0.4375 -0.125q0.109375 -0.140625 0.109375 -0.859375q0 -1.0 -0.15625 -1.1875q-0.234375 -0.25 -2.78125 -1.65625q-2.28125 -1.28125 -2.8125 -2.375q-0.515625 -1.09375 -0.515625 -2.5625q0 -2.046875 0.5625 -3.0625q0.578125 -1.03125 1.90625 -1.5625q1.328125 -0.546875 3.03125 -0.546875q1.671875 0 2.875 0.4375q1.21875 0.4375 1.890625 1.1875q0.6875 0.734375 0.828125 1.390625q0.140625 0.640625 0.140625 1.90625l0 1.328125zm13.258423 -5.96875l-2.125 6.875l2.71875 10.140625l-5.59375 0l-1.21875 -7.453125l0.390625 7.453125l-5.734375 0l0 -20.578125l5.734375 0l-0.390625 8.703125l1.25 -5.140625l4.96875 0zm5.7631226 -3.5625l9.5 0l0 4.734375l-3.578125 0l0 2.984375l3.1875 0l0 4.546875l-3.1875 0l0 8.3125l-5.921875 0l0 -20.578125z" fill-rule="nonzero"/><path fill="#8e7cc3" d="m700.36115 486.60965l0 2.890625q-1.171875 0 -1.34375 0.046875q-0.15625 0.046875 -0.234375 0.21875q-0.078125 0.171875 -0.078125 1.359375l0 8.796875q0 1.125 0.0625 1.328125q0.078125 0.1875 0.234375 0.25q0.15625 0.046875 1.359375 0.046875l0 2.890625l-1.6875 0q-1.921875 0 -2.890625 -0.375q-0.96875 -0.390625 -1.296875 -1.15625q-0.3125 -0.765625 -0.3125 -3.0l0 -8.765625q0 -2.234375 0.3125 -3.0q0.3125 -0.765625 1.3125 -1.140625q1.0 -0.390625 2.875 -0.390625l1.6875 0zm10.167969 1.21875l0 2.21875l1.15625 0l0 2.890625l-1.15625 0l0 7.1875q0 1.265625 0.046875 1.328125q0.0625 0.0625 1.296875 0.0625l0 2.921875l-2.0625 0q-1.5 0 -2.1875 -0.140625q-0.6875 -0.140625 -1.234375 -0.640625q-0.546875 -0.5 -0.6875 -1.140625q-0.125 -0.640625 -0.125 -2.765625l0 -6.8125l-0.921875 0l0 -2.890625l0.921875 0l0 -2.21875l4.953125 0zm11.351807 1.875l-1.78125 7.0625l2.15625 7.671875l-4.875 0q-0.671875 -3.046875 -0.671875 -5.109375q-0.09375 2.5625 -0.65625 5.109375l-4.265625 0l1.921875 -7.671875l-1.9375 -7.0625l4.28125 0q0.921875 4.59375 0.65625 5.21875q0.296875 -3.65625 0.671875 -5.21875l4.5 0zm6.0264893 -1.875l0 2.21875l1.15625 0l0 2.890625l-1.15625 0l0 7.1875q0 1.265625 0.046875 1.328125q0.0625 0.0625 1.296875 0.0625l0 2.921875l-2.0625 0q-1.5 0 -2.1875 -0.140625q-0.6875 -0.140625 -1.234375 -0.640625q-0.546875 -0.5 -0.6875 -1.140625q-0.125 -0.640625 -0.125 -2.765625l0 -6.8125l-0.921875 0l0 -2.890625l0.921875 0l0 -2.21875l4.953125 0z" fill-rule="nonzero"/><path fill="#8e7cc3" d="m746.6969 488.79715q1.234375 -0.109375 2.203125 0.96875l5.71875 6.421875l-5.640625 6.25q-1.03125 1.140625 -2.046875 1.140625q-0.8125 0 -1.5 -0.578125q-0.828125 -0.53125 -0.828125 -1.578125q0 -1.0 0.609375 -1.609375l1.296875 -1.484375l-9.546875 0q-0.921875 0 -1.546875 -0.609375q-0.703125 -0.71875 -0.609375 -1.734375q0.109375 -0.8125 0.609375 -1.328125q0.609375 -0.609375 1.53125 -0.703125l9.546875 0l-1.203125 -1.328125q-0.6875 -0.875 -0.6875 -1.703125q0.109375 -0.828125 0.8125 -1.53125q0.59375 -0.390625 1.28125 -0.59375z" fill-rule="nonzero"/><path fill="#8e7cc3" d="m765.5565 486.60965l0 2.890625l-5.0625 0l0 -2.890625l5.0625 0zm0 3.09375l0 11.46875q0 1.984375 -0.09375 2.734375q-0.078125 0.734375 -0.546875 1.34375q-0.453125 0.609375 -1.21875 0.875q-0.75 0.28125 -2.171875 0.28125l-1.984375 0l0 -2.90625q0.90625 0 0.921875 -0.046875q0.03125 -0.046875 0.03125 -1.90625l0 -11.84375l5.0625 0zm10.967224 5.15625l-4.453125 0l0 -1.09375q0 -0.90625 -0.0625 -1.03125q-0.046875 -0.125 -0.28125 -0.125q-0.203125 0 -0.296875 0.125q-0.09375 0.125 -0.09375 0.5q0 0.59375 0.0625 0.828125q0.0625 0.234375 0.453125 0.546875q0.40625 0.3125 1.78125 0.984375q1.9375 0.9375 2.578125 1.828125q0.640625 0.890625 0.640625 2.53125q0 1.796875 -0.5 2.765625q-0.484375 0.953125 -1.625 1.46875q-1.125 0.5 -2.65625 0.5q-1.703125 0 -2.953125 -0.546875q-1.234375 -0.546875 -1.71875 -1.5q-0.484375 -0.953125 -0.484375 -2.796875l0 -1.0l4.453125 0l0 1.21875q0 1.0625 0.078125 1.28125q0.09375 0.203125 0.296875 0.203125q0.3125 0 0.40625 -0.109375q0.09375 -0.125 0.09375 -0.75q0 -0.890625 -0.140625 -1.03125q-0.21875 -0.21875 -2.421875 -1.453125q-1.984375 -1.109375 -2.4375 -2.046875q-0.4375 -0.953125 -0.4375 -2.21875q0 -1.765625 0.484375 -2.65625q0.5 -0.890625 1.640625 -1.359375q1.15625 -0.46875 2.625 -0.46875q1.46875 0 2.5 0.390625q1.046875 0.375 1.625 1.015625q0.59375 0.640625 0.71875 1.203125q0.125 0.5625 0.125 1.65625l0 1.140625zm11.8324585 0.125l0 3.4375q0 1.9375 -0.203125 2.875q-0.203125 0.9375 -0.875 1.78125q-0.671875 0.828125 -1.734375 1.21875q-1.046875 0.390625 -2.375 0.390625q-1.46875 0 -2.53125 -0.328125q-1.0625 -0.34375 -1.65625 -1.03125q-0.59375 -0.703125 -0.84375 -1.640625q-0.25 -0.953125 -0.25 -2.796875l0 -3.609375q0 -2.015625 0.453125 -3.1875q0.453125 -1.1875 1.640625 -1.90625q1.1875 -0.734375 3.0 -0.734375q1.5 0 2.609375 0.46875q1.109375 0.453125 1.71875 1.203125q0.609375 0.734375 0.828125 1.53125q0.21875 0.78125 0.21875 2.328125zm-4.9375 -1.0625q0 -1.015625 -0.0625 -1.15625q-0.0625 -0.15625 -0.21875 -0.15625q-0.171875 0 -0.25 0.15625q-0.0625 0.140625 -0.0625 1.15625l0 6.34375q0 0.9375 0.0625 1.109375q0.078125 0.171875 0.234375 0.171875q0.15625 0 0.21875 -0.140625q0.078125 -0.15625 0.078125 -1.0l0 -6.484375zm11.4001465 -4.21875l-0.140625 0.75q-0.046875 -0.125 0.6875 -0.5625q0.75 -0.4375 1.71875 -0.4375q1.21875 0 2.015625 0.59375q0.796875 0.59375 1.0 1.453125q0.21875 0.859375 0.21875 2.75l0 10.1875l-4.9375 0l0 -10.078125q0 -1.40625 -0.0625 -1.578125q-0.046875 -0.171875 -0.234375 -0.171875q-0.21875 0 -0.296875 0.21875q-0.0625 0.21875 -0.0625 1.765625l0 9.84375l-4.9375 0l0 -14.734375l5.03125 0zm10.436157 -3.09375l1.6875 0q1.875 0 2.875 0.390625q1.0 0.375 1.3125 1.140625q0.3125 0.765625 0.3125 3.0l0 8.765625q0 2.234375 -0.3125 3.0q-0.3125 0.765625 -1.296875 1.15625q-0.96875 0.375 -2.890625 0.375l-1.6875 0l0 -2.890625q1.21875 0 1.359375 -0.046875q0.15625 -0.0625 0.21875 -0.25q0.078125 -0.203125 0.078125 -1.328125l0 -8.796875q0 -1.1875 -0.078125 -1.359375q-0.078125 -0.171875 -0.25 -0.21875q-0.15625 -0.046875 -1.328125 -0.046875l0 -2.890625z" fill-rule="nonzero"/><path fill="#000000" fill-opacity="0.0" d="m381.07422 90.720345l-132.40947 136.09448" fill-rule="evenodd"/><path stroke="#999999" stroke-width="3.52755905511811" stroke-linejoin="round" stroke-linecap="butt" d="m381.0742 90.72035l-117.650055 120.92435" fill-rule="evenodd"/><path stroke="#999999" stroke-width="3.52755905511811" stroke-linecap="butt" d="m259.24796 207.5816l-6.987076 15.537018l15.339432 -7.4108276z" fill-rule="evenodd"/><path fill="#000000" fill-opacity="0.0" d="m203.23808 296.77982l-49.921265 151.49606" fill-rule="evenodd"/><path stroke="#999999" stroke-width="3.52755905511811" stroke-linejoin="round" stroke-linecap="butt" d="m203.23808 296.7798l-43.297195 131.39401" fill-rule="evenodd"/><path stroke="#999999" stroke-width="3.52755905511811" stroke-linecap="butt" d="m154.40701 426.35025l0.52375793 17.02774l10.544006 -13.380676z" fill-rule="evenodd"/><path fill="#000000" fill-opacity="0.0" d="m436.21918 91.477486l87.62207 133.00787" fill-rule="evenodd"/><path stroke="#999999" stroke-width="3.52755905511811" stroke-linejoin="round" stroke-linecap="butt" d="m436.21915 91.477486l75.978424 115.33311" fill-rule="evenodd"/><path stroke="#999999" stroke-width="3.52755905511811" stroke-linecap="butt" d="m507.33188 210.01596l13.672333 10.162933l-3.940979 -16.57367z" fill-rule="evenodd"/><path fill="#000000" fill-opacity="0.0" d="m525.4094 295.6533l-66.11026 150.33069" fill-rule="evenodd"/><path stroke="#999999" stroke-width="3.52755905511811" stroke-linejoin="round" stroke-linecap="butt" d="m525.4094 295.6533l-57.589966 130.95609" fill-rule="evenodd"/><path stroke="#999999" stroke-width="3.52755905511811" stroke-linecap="butt" d="m462.48584 424.26382l-1.1106873 16.999542l11.777924 -12.308472z" fill-rule="evenodd"/><path fill="#000000" fill-opacity="0.0" d="m562.32275 296.79068l73.82678 148.40945" fill-rule="evenodd"/><path stroke="#999999" stroke-width="3.52755905511811" stroke-linejoin="round" stroke-linecap="butt" d="m562.32275 296.79068l64.39996 129.45932" fill-rule="evenodd"/><path stroke="#999999" stroke-width="3.52755905511811" stroke-linecap="butt" d="m621.506 428.8451l12.34668 11.7378235l-1.913208 -16.928009z" fill-rule="evenodd"/></g></svg>