<svg version="1.1" viewBox="0.0 0.0 960.0 540.0" fill="none" stroke="none" stroke-linecap="square" stroke-miterlimit="10" xmlns:xlink="http://www.w3.org/1999/xlink" xmlns="http://www.w3.org/2000/svg"><clipPath id="g3bb7fadd0d1_0_0.0"><path d="m0 0l960.0 0l0 540.0l-960.0 0l0 -540.0z" clip-rule="nonzero"/></clipPath><g clip-path="url(#g3bb7fadd0d1_0_0.0)"><path fill="#ffffff" d="m0 0l960.0 0l0 540.0l-960.0 0z" fill-rule="evenodd"/><path fill="#000000" fill-opacity="0.0" d="m24.216862 66.14694l0 0c0 -17.423763 14.124752 -31.548515 31.54852 -31.548515l570.9817 0c8.3671875 0 16.391663 3.3238525 22.308167 9.240345c5.916504 5.9164963 9.240356 13.940987 9.240356 22.30817l0 407.70612c0 17.423767 -14.124756 31.548523 -31.548523 31.548523l-570.9817 0c-17.423767 0 -31.54852 -14.124756 -31.54852 -31.548523z" fill-rule="evenodd"/><path stroke="#b7b7b7" stroke-width="2.199475065616798" stroke-linejoin="round" stroke-linecap="butt" d="m24.216862 66.14694l0 0c0 -17.423763 14.124752 -31.548515 31.54852 -31.548515l570.9817 0c8.3671875 0 16.391663 3.3238525 22.308167 9.240345c5.916504 5.9164963 9.240356 13.940987 9.240356 22.30817l0 407.70612c0 17.423767 -14.124756 31.548523 -31.548523 31.548523l-570.9817 0c-17.423767 0 -31.54852 -14.124756 -31.54852 -31.548523z" fill-rule="evenodd"/><path fill="#000000" fill-opacity="0.0" d="m301.26022 428.0188l146.36221 0l0 47.212585l-146.36221 0z" fill-rule="evenodd"/><path fill="#666666" d="m327.76947 460.79376l0 -14.0q0 -2.3125 1.375 -3.703125q1.375 -1.390625 3.921875 -1.390625q0.859375 0 1.65625 0.1875q0.8125 0.171875 1.375 0.546875l-1.046875 2.890625q-0.328125 -0.234375 -0.734375 -0.359375q-0.40625 -0.125 -0.859375 -0.125q-0.875 0 -1.34375 0.5q-0.46875 0.484375 -0.46875 1.484375l0 1.265625l0.09375 1.703125l0 11.0l-3.96875 0zm-2.109375 -10.328125l0 -3.0625l9.5 0l0 3.0625l-9.5 0zm11.578125 10.328125l0 -13.6875l3.96875 0l0 13.6875l-3.96875 0zm2.0 -15.609375q-1.09375 0 -1.78125 -0.625q-0.6875 -0.640625 -0.6875 -1.578125q0 -0.953125 0.6875 -1.578125q0.6875 -0.640625 1.78125 -0.640625q1.09375 0 1.78125 0.609375q0.6875 0.59375 0.6875 1.53125q0 0.984375 -0.6875 1.640625q-0.671875 0.640625 -1.78125 0.640625zm5.6349487 15.609375l0 -18.890625l3.96875 0l0 18.890625l-3.96875 0zm14.458252 0.203125q-2.34375 0 -4.109375 -0.90625q-1.765625 -0.921875 -2.734375 -2.515625q-0.96875 -1.59375 -0.96875 -3.625q0 -2.0625 0.953125 -3.65625q0.953125 -1.59375 2.609375 -2.484375q1.65625 -0.90625 3.75 -0.90625q2.0 0 3.609375 0.859375q1.625 0.84375 2.5625 2.4375q0.953125 1.578125 0.953125 3.796875q0 0.234375 -0.03125 0.53125q-0.015625 0.28125 -0.046875 0.53125l-11.125 0l0 -2.3125l9.03125 0l-1.515625 0.6875q0 -1.0625 -0.4375 -1.84375q-0.4375 -0.796875 -1.203125 -1.234375q-0.765625 -0.453125 -1.78125 -0.453125q-1.015625 0 -1.796875 0.453125q-0.765625 0.4375 -1.203125 1.234375q-0.4375 0.796875 -0.4375 1.890625l0 0.625q0 1.109375 0.5 1.96875q0.5 0.84375 1.40625 1.296875q0.90625 0.4375 2.125 0.4375q1.09375 0 1.921875 -0.328125q0.828125 -0.328125 1.515625 -0.984375l2.109375 2.28125q-0.9375 1.078125 -2.375 1.65625q-1.421875 0.5625 -3.28125 0.5625zm10.764038 0q-1.015625 0 -1.75 -0.703125q-0.71875 -0.703125 -0.71875 -1.796875q0 -1.09375 0.71875 -1.765625q0.734375 -0.671875 1.75 -0.671875q1.046875 0 1.75 0.671875q0.71875 0.671875 0.71875 1.765625q0 1.09375 -0.71875 1.796875q-0.703125 0.703125 -1.75 0.703125zm5.168701 -0.203125l0 -13.6875l3.796875 0l0 3.78125l-0.71875 -1.140625q0.75 -1.375 2.125 -2.109375q1.375 -0.734375 3.125 -0.734375q1.625 0 2.90625 0.65625q1.296875 0.640625 2.03125 1.984375q0.734375 1.328125 0.734375 3.40625l0 7.84375l-3.96875 0l0 -7.234375q0 -1.65625 -0.734375 -2.4375q-0.71875 -0.796875 -2.03125 -0.796875q-0.953125 0 -1.703125 0.40625q-0.75 0.390625 -1.171875 1.203125q-0.421875 0.8125 -0.421875 2.09375l0 6.765625l-3.96875 0zm25.681854 0.203125q-1.71875 0 -3.03125 -0.765625q-1.296875 -0.765625 -2.015625 -2.328125q-0.71875 -1.5625 -0.71875 -3.953125q0 -2.421875 0.671875 -3.96875q0.6875 -1.5625 1.984375 -2.3125q1.3125 -0.765625 3.109375 -0.765625q1.9375 0 3.46875 0.875q1.546875 0.875 2.453125 2.453125q0.90625 1.578125 0.90625 3.71875q0 2.15625 -0.90625 3.734375q-0.90625 1.578125 -2.453125 2.453125q-1.53125 0.859375 -3.46875 0.859375zm-8.09375 4.734375l0 -18.625l3.796875 0l0 2.796875l-0.078125 4.0625l0.25 4.046875l0 7.71875l-3.96875 0zm7.40625 -7.984375q1.0 0 1.765625 -0.453125q0.78125 -0.46875 1.25 -1.3125q0.46875 -0.859375 0.46875 -2.03125q0 -1.203125 -0.46875 -2.03125q-0.46875 -0.84375 -1.25 -1.296875q-0.765625 -0.46875 -1.765625 -0.46875q-0.984375 0 -1.78125 0.46875q-0.78125 0.453125 -1.25 1.296875q-0.453125 0.828125 -0.453125 2.03125q0 1.171875 0.453125 2.03125q0.46875 0.84375 1.25 1.3125q0.796875 0.453125 1.78125 0.453125zm11.508728 8.1875q-1.0625 0 -2.109375 -0.328125q-1.046875 -0.328125 -1.703125 -0.921875l1.453125 -2.828125q0.453125 0.40625 1.046875 0.640625q0.59375 0.234375 1.1875 0.234375q0.84375 0 1.328125 -0.40625q0.5 -0.390625 0.90625 -1.296875l0.71875 -1.6875l0.296875 -0.4375l4.921875 -11.796875l3.8125 0l-6.1875 14.53125q-0.65625 1.65625 -1.515625 2.59375q-0.84375 0.9375 -1.875 1.3125q-1.03125 0.390625 -2.28125 0.390625zm2.34375 -4.609375l-6.109375 -14.21875l4.09375 0l4.734375 11.453125l-2.71875 2.765625z" fill-rule="nonzero"/><path fill="#000000" fill-opacity="0.0" d="m473.6104 428.33484l146.36218 0l0 47.212616l-146.36218 0z" fill-rule="evenodd"/><path fill="#666666" d="m497.19235 461.10983l0 -14.0q0 -2.3125 1.375 -3.703125q1.375 -1.390625 3.921875 -1.390625q0.859375 0 1.65625 0.1875q0.8125 0.171875 1.375 0.546875l-1.046875 2.890625q-0.328125 -0.234375 -0.734375 -0.359375q-0.40625 -0.125 -0.859375 -0.125q-0.875 0 -1.34375 0.5q-0.46875 0.484375 -0.46875 1.484375l0 1.265625l0.09375 1.703125l0 11.0l-3.96875 0zm-2.109375 -10.328125l0 -3.0625l9.5 0l0 3.0625l-9.5 0zm11.578125 10.328125l0 -13.6875l3.96875 0l0 13.6875l-3.96875 0zm2.0 -15.609375q-1.09375 0 -1.78125 -0.625q-0.6875 -0.640625 -0.6875 -1.578125q0 -0.953125 0.6875 -1.578125q0.6875 -0.640625 1.78125 -0.640625q1.09375 0 1.78125 0.609375q0.6875 0.59375 0.6875 1.53125q0 0.984375 -0.6875 1.640625q-0.671875 0.640625 -1.78125 0.640625zm5.6349792 15.609375l0 -18.890625l3.96875 0l0 18.890625l-3.96875 0zm14.458252 0.203125q-2.34375 0 -4.109375 -0.90625q-1.765625 -0.921875 -2.734375 -2.515625q-0.96875 -1.59375 -0.96875 -3.625q0 -2.0625 0.953125 -3.65625q0.953125 -1.59375 2.609375 -2.484375q1.65625 -0.90625 3.75 -0.90625q2.0 0 3.609375 0.859375q1.625 0.84375 2.5625 2.4375q0.953125 1.578125 0.953125 3.796875q0 0.234375 -0.03125 0.53125q-0.015625 0.28125 -0.046875 0.53125l-11.125 0l0 -2.3125l9.03125 0l-1.515625 0.6875q0 -1.0625 -0.4375 -1.84375q-0.4375 -0.796875 -1.203125 -1.234375q-0.765625 -0.453125 -1.78125 -0.453125q-1.015625 0 -1.796875 0.453125q-0.765625 0.4375 -1.203125 1.234375q-0.4375 0.796875 -0.4375 1.890625l0 0.625q0 1.109375 0.5 1.96875q0.5 0.84375 1.40625 1.296875q0.90625 0.4375 2.125 0.4375q1.09375 0 1.921875 -0.328125q0.828125 -0.328125 1.515625 -0.984375l2.109375 2.28125q-0.9375 1.078125 -2.375 1.65625q-1.421875 0.5625 -3.28125 0.5625zm10.764038 0q-1.015625 0 -1.75 -0.703125q-0.71875 -0.703125 -0.71875 -1.796875q0 -1.09375 0.71875 -1.765625q0.734375 -0.671875 1.75 -0.671875q1.046875 0 1.75 0.671875q0.71875 0.671875 0.71875 1.765625q0 1.09375 -0.71875 1.796875q-0.703125 0.703125 -1.75 0.703125zm4.407776 4.9375q-0.921875 0 -1.75 -0.1875q-0.84375 -0.1875 -1.421875 -0.578125l1.0625 -2.875q0.6875 0.484375 1.671875 0.484375q0.75 0 1.1875 -0.5q0.453125 -0.484375 0.453125 -1.484375l0 -13.6875l3.96875 0l0 13.65625q0 2.375 -1.359375 3.765625q-1.34375 1.40625 -3.8125 1.40625zm3.1875 -20.75q-1.09375 0 -1.78125 -0.625q-0.6875 -0.640625 -0.6875 -1.578125q0 -0.953125 0.6875 -1.578125q0.6875 -0.640625 1.78125 -0.640625q1.09375 0 1.78125 0.609375q0.6875 0.59375 0.6875 1.53125q0 0.984375 -0.6875 1.640625q-0.671875 0.640625 -1.78125 0.640625zm10.251587 15.8125q-1.75 0 -3.375 -0.421875q-1.609375 -0.421875 -2.546875 -1.046875l1.3125 -2.859375q0.953125 0.59375 2.234375 0.96875q1.28125 0.359375 2.53125 0.359375q1.375 0 1.9375 -0.328125q0.578125 -0.34375 0.578125 -0.921875q0 -0.484375 -0.453125 -0.71875q-0.4375 -0.25 -1.171875 -0.375q-0.734375 -0.125 -1.625 -0.25q-0.875 -0.125 -1.765625 -0.34375q-0.890625 -0.21875 -1.625 -0.65625q-0.734375 -0.4375 -1.1875 -1.171875q-0.4375 -0.734375 -0.4375 -1.90625q0 -1.296875 0.75 -2.28125q0.75 -1.0 2.171875 -1.5625q1.421875 -0.578125 3.40625 -0.578125q1.40625 0 2.859375 0.3125q1.453125 0.296875 2.421875 0.875l-1.328125 2.828125q-1.0 -0.59375 -2.0 -0.796875q-1.0 -0.21875 -1.953125 -0.21875q-1.3125 0 -1.9375 0.359375q-0.609375 0.34375 -0.609375 0.90625q0 0.515625 0.4375 0.765625q0.453125 0.25 1.1875 0.40625q0.75 0.15625 1.625 0.28125q0.875 0.109375 1.765625 0.34375q0.890625 0.21875 1.609375 0.640625q0.734375 0.421875 1.1875 1.15625q0.46875 0.71875 0.46875 1.875q0 1.28125 -0.765625 2.265625q-0.765625 0.96875 -2.203125 1.53125q-1.4375 0.5625 -3.5 0.5625zm15.421814 0q-2.1875 0 -3.875 -0.90625q-1.6875 -0.921875 -2.671875 -2.515625q-0.984375 -1.59375 -0.984375 -3.625q0 -2.0625 0.984375 -3.65625q0.984375 -1.59375 2.671875 -2.484375q1.6875 -0.90625 3.875 -0.90625q2.171875 0 3.875 0.90625q1.703125 0.890625 2.671875 2.46875q0.96875 1.578125 0.96875 3.671875q0 2.03125 -0.96875 3.625q-0.96875 1.59375 -2.671875 2.515625q-1.703125 0.90625 -3.875 0.90625zm0 -3.25q1.0 0 1.78125 -0.453125q0.796875 -0.46875 1.25 -1.3125q0.453125 -0.859375 0.453125 -2.03125q0 -1.203125 -0.453125 -2.03125q-0.453125 -0.84375 -1.25 -1.296875q-0.78125 -0.46875 -1.78125 -0.46875q-0.984375 0 -1.78125 0.46875q-0.78125 0.453125 -1.25 1.296875q-0.46875 0.828125 -0.46875 2.03125q0 1.171875 0.46875 2.03125q0.46875 0.84375 1.25 1.3125q0.796875 0.453125 1.78125 0.453125zm10.156189 3.046875l0 -13.6875l3.796875 0l0 3.78125l-0.71875 -1.140625q0.75 -1.375 2.125 -2.109375q1.375 -0.734375 3.125 -0.734375q1.625 0 2.90625 0.65625q1.296875 0.640625 2.03125 1.984375q0.734375 1.328125 0.734375 3.40625l0 7.84375l-3.96875 0l0 -7.234375q0 -1.65625 -0.734375 -2.4375q-0.71875 -0.796875 -2.03125 -0.796875q-0.953125 0 -1.703125 0.40625q-0.75 0.390625 -1.171875 1.203125q-0.421875 0.8125 -0.421875 2.09375l0 6.765625l-3.96875 0z" fill-rule="nonzero"/><path fill="#000000" fill-opacity="0.0" d="m380.10403 244.37186l146.36221 0l0 47.212585l-146.36221 0z" fill-rule="evenodd"/><path fill="#666666" d="m413.01465 277.14682l0 -14.0q0 -2.3125 1.375 -3.703125q1.375 -1.390625 3.921875 -1.390625q0.859375 0 1.65625 0.1875q0.8125 0.171875 1.375 0.546875l-1.046875 2.890625q-0.328125 -0.234375 -0.734375 -0.359375q-0.40625 -0.125 -0.859375 -0.125q-0.875 0 -1.34375 0.5q-0.46875 0.484375 -0.46875 1.484375l0 1.265625l0.09375 1.703125l0 11.0l-3.96875 0zm-2.109375 -10.328125l0 -3.0625l9.5 0l0 3.0625l-9.5 0zm11.578125 10.328125l0 -13.6875l3.96875 0l0 13.6875l-3.96875 0zm2.0 -15.609375q-1.09375 0 -1.78125 -0.625q-0.6875 -0.640625 -0.6875 -1.578125q0 -0.953125 0.6875 -1.578125q0.6875 -0.640625 1.78125 -0.640625q1.09375 0 1.78125 0.609375q0.6875 0.59375 0.6875 1.53125q0 0.984375 -0.6875 1.640625q-0.671875 0.640625 -1.78125 0.640625zm5.6349487 15.609375l0 -18.890625l3.96875 0l0 18.890625l-3.96875 0zm14.458252 0.203125q-2.34375 0 -4.109375 -0.90625q-1.765625 -0.921875 -2.734375 -2.515625q-0.96875 -1.59375 -0.96875 -3.625q0 -2.0625 0.953125 -3.65625q0.953125 -1.59375 2.609375 -2.484375q1.65625 -0.90625 3.75 -0.90625q2.0 0 3.609375 0.859375q1.625 0.84375 2.5625 2.4375q0.953125 1.578125 0.953125 3.796875q0 0.234375 -0.03125 0.53125q-0.015625 0.28125 -0.046875 0.53125l-11.125 0l0 -2.3125l9.03125 0l-1.515625 0.6875q0 -1.0625 -0.4375 -1.84375q-0.4375 -0.796875 -1.203125 -1.234375q-0.765625 -0.453125 -1.78125 -0.453125q-1.015625 0 -1.796875 0.453125q-0.765625 0.4375 -1.203125 1.234375q-0.4375 0.796875 -0.4375 1.890625l0 0.625q0 1.109375 0.5 1.96875q0.5 0.84375 1.40625 1.296875q0.90625 0.4375 2.125 0.4375q1.09375 0 1.921875 -0.328125q0.828125 -0.328125 1.515625 -0.984375l2.109375 2.28125q-0.9375 1.078125 -2.375 1.65625q-1.421875 0.5625 -3.28125 0.5625zm10.764038 0q-1.015625 0 -1.75 -0.703125q-0.71875 -0.703125 -0.71875 -1.796875q0 -1.09375 0.71875 -1.765625q0.734375 -0.671875 1.75 -0.671875q1.046875 0 1.75 0.671875q0.71875 0.671875 0.71875 1.765625q0 1.09375 -0.71875 1.796875q-0.703125 0.703125 -1.75 0.703125zm10.6762085 0q-2.421875 0 -3.78125 -1.234375q-1.34375 -1.234375 -1.34375 -3.671875l0 -12.015625l3.96875 0l0 11.953125q0 0.875 0.453125 1.34375q0.46875 0.46875 1.265625 0.46875q0.9375 0 1.59375 -0.515625l1.078125 2.8125q-0.625 0.421875 -1.484375 0.640625q-0.84375 0.21875 -1.75 0.21875zm-7.234375 -10.84375l0 -3.046875l9.5 0l0 3.046875l-9.5 0zm10.978363 10.640625l6.125 -8.046875l-0.078125 2.1875l-5.875 -7.828125l4.453125 0l3.71875 5.109375l-1.6875 0.046875l3.84375 -5.15625l4.234375 0l-5.90625 7.75l0 -2.125l6.109375 8.0625l-4.515625 0l-3.890625 -5.453125l1.65625 0.234375l-3.875 5.21875l-4.3125 0zm22.472717 0.203125q-2.421875 0 -3.78125 -1.234375q-1.34375 -1.234375 -1.34375 -3.671875l0 -12.015625l3.96875 0l0 11.953125q0 0.875 0.453125 1.34375q0.46875 0.46875 1.265625 0.46875q0.9375 0 1.59375 -0.515625l1.078125 2.8125q-0.625 0.421875 -1.484375 0.640625q-0.84375 0.21875 -1.75 0.21875zm-7.234375 -10.84375l0 -3.046875l9.5 0l0 3.046875l-9.5 0z" fill-rule="nonzero"/><path fill="#000000" fill-opacity="0.0" d="m366.35394 128.18987l72.66144 110.29921" fill-rule="evenodd"/><path stroke="#4a86e8" stroke-width="2.9238845144356955" stroke-linejoin="round" stroke-linecap="butt" d="m366.35397 128.18987l63.010406 95.64909" fill-rule="evenodd"/><path stroke="#4a86e8" stroke-width="2.9238845144356955" stroke-linecap="butt" d="m425.33136 226.49577l11.33255 8.423798l-3.26651 -13.737427z" fill-rule="evenodd"/><path fill="#000000" fill-opacity="0.0" d="m397.74268 111.67949l58.141724 88.31496l-28.503937 18.897644l-58.141724 -88.31496z" fill-rule="evenodd"/><path fill="#4a86e8" d="m410.09195 141.87599l-3.6985168 2.452057l-1.5723267 -2.3882904l-12.345734 8.185043l-3.0501099 -4.6329956l12.345734 -8.185043l-1.5637207 -2.3752136l3.6985168 -2.452057l6.186157 9.3965zm-5.6459045 9.524658l-2.775177 -4.2153625l1.1590576 -0.7684326q1.5236816 -1.0101776 2.6367798 -1.2232361q1.1217041 -0.2000122 2.4945679 0.46455383q1.3858948 0.65592957 2.5200195 2.3786163q1.3489075 2.0489502 1.3067017 3.6329346q-0.04220581 1.5839844 -0.9856262 2.5094147q-0.934845 0.93847656 -4.0994263 3.0365448l-6.654724 4.411972l-2.86969 -4.3589325l0.7284851 -0.3142395q-0.082855225 0.12991333 -0.89453125 -0.25054932q-0.7900696 -0.37605286 -1.3485413 -1.22435q-0.73031616 -1.109314 -0.71939087 -2.485077q0.03253174 -1.3713531 2.10318 -2.744156l1.0418396 -0.6907196q1.5367126 -1.0188141 2.4361877 -0.90278625q0.92111206 0.12045288 2.8660278 1.5118256q1.88031 1.3217163 2.1097717 1.300827q0.24246216 -0.029525757 0.9587097 -0.50439453q0.9246521 -0.6130066 1.046814 -0.8252411q0.12219238 -0.2122345 0.019073486 -0.36883545q-0.120269775 -0.18270874 -0.2848816 -0.14857483q-0.15158081 0.025497437 -1.1673584 0.69895935l-1.6278687 1.0792389zm-1.6061401 1.9647064q-0.5140686 -0.18409729 -0.9906616 -0.05558777q-0.47662354 0.12850952 -1.2840271 0.66381836q-0.9246521 0.61302185 -1.0423889 0.80355835q-0.10473633 0.18191528 0.015563965 0.36462402q0.120269775 0.18270874 0.25881958 0.16584778q0.13858032 -0.01687622 1.0241394 -0.60398865l2.0185547 -1.3382721zm12.276337 12.367508l-2.6462708 -4.0196075l0.9897461 -0.65618896q0.80740356 -0.53530884 0.8902588 -0.6652069q0.08282471 -0.12991333 -0.046051025 -0.3256836q-0.120269775 -0.18270874 -0.29763794 -0.1963501q-0.1687622 -5.950928E-4 -0.49432373 0.21525574q-0.53393555 0.35398865 -0.7079468 0.54434204q-0.16540527 0.2033844 -0.21994019 0.7457123q-0.03289795 0.5467224 0.1756897 2.1706543q0.29177856 2.318634 -0.124572754 3.4195404q-0.40777588 1.1139526 -1.892395 2.098236q-1.6278687 1.0792542 -2.77948 1.205368q-1.1516418 0.12612915 -2.2906494 -0.5810089q-1.1259766 -0.7157593 -2.045288 -2.1121826q-1.013855 -1.5399933 -1.2578735 -2.9904327q-0.24401855 -1.4504547 0.3319702 -2.4509735q0.58898926 -1.0091553 2.229889 -2.0970306l0.9115906 -0.6043854l2.6463013 4.0196075l-1.0939331 0.7252655q-0.9636841 0.638916 -1.0944519 0.838089q-0.13076782 0.19918823 -0.010498047 0.38189697q0.18045044 0.2740631 0.33618164 0.28329468q0.1557312 0.009231567 0.71569824 -0.36203003q0.7814026 -0.5180359 0.8387146 -0.743515q0.08364868 -0.29917908 -0.123931885 -3.0298157q-0.1743164 -2.452774 0.40582275 -3.4185486q0.58013916 -0.96577454 1.7131348 -1.7169342q1.6018066 -1.0619812 2.6883545 -1.1449432q1.0865173 -0.08294678 2.1950378 0.6631317q1.117096 0.75914 1.9934692 2.0903168q0.86776733 1.3181152 1.1347656 2.4908752q0.2800293 1.1641388 0.03765869 2.0746918q-0.22073364 0.914978 -0.6599121 1.3561096q-0.4305725 0.45417786 -1.4072876 1.1017303l-1.0418396 0.6907196zm11.463013 7.267578l-6.4436035 1.8911285l-6.513031 7.355057l-2.86969 -4.3589325l5.1810303 -4.803467l-5.610626 4.15094l-2.9384155 -4.4633484l16.044281 -10.637085l2.9384155 4.463333l-6.9825745 4.1981506l4.6424255 -1.6718292l2.5517883 3.8760529zm5.754944 2.6606293l2.8352966 4.306717q1.2802124 1.9445648 1.6505737 3.217514q0.38339233 1.264328 -0.17675781 2.5730438q-0.54714966 1.3000793 -2.6438293 2.690155q-1.4585876 0.9670105 -2.4101562 0.8855133q-0.9299927 -0.07707214 -0.9859619 -0.13369751q0.09396362 0.25639343 -0.3656311 1.348465q-0.43795776 1.0964966 -2.039795 2.1584778l-1.4325256 0.94973755q-1.6278687 1.0792542 -2.7406921 1.2358856q-1.104248 0.169693 -1.9794312 -0.5061188q-0.86660767 -0.6627655 -2.499054 -3.142395l-3.2563171 -4.946213l16.044281 -10.637085zm-0.2012024 6.769806l-2.912445 1.8559113q0.052093506 -0.03453064 0.1552124 0.12207031q0.2663269 0.40457153 0.517395 0.3881073q0.2510376 -0.016479492 1.5403137 -0.87124634q0.6641846 -0.44032288 0.790802 -0.6742401q0.14822388 -0.22950745 0.10134888 -0.38591003q-0.033813477 -0.16503906 -0.19262695 -0.43469238zm-5.84729 3.8766632l-3.6985474 2.452057q0.28796387 0.40899658 0.5257263 0.45758057q0.2593994 0.052993774 1.066803 -0.48231506l1.4455566 -0.958374q0.8595276 -0.5698395 0.8908081 -0.7780609q0.052886963 -0.20379639 -0.23034668 -0.69088745z" fill-rule="nonzero"/><path fill="#000000" fill-opacity="0.0" d="m440.30637 297.48468l-54.80316 124.66144" fill-rule="evenodd"/><path stroke="#e69138" stroke-width="2.9238845144356955" stroke-linejoin="round" stroke-linecap="butt" d="m440.30634 297.48468l-47.74292 108.60153" fill-rule="evenodd"/><path stroke="#e69138" stroke-width="2.9238845144356955" stroke-linecap="butt" d="m388.14227 404.1426l-0.91885376 14.090515l9.761108 -10.203339z" fill-rule="evenodd"/><path fill="#000000" fill-opacity="0.0" d="m363.1361 388.45813l43.212616 -96.409454l31.275574 13.952759l-43.212585 96.409454z" fill-rule="evenodd"/><path fill="#e69138" d="m381.96732 361.8808l4.0525208 1.8079224l-1.1695251 2.6092834l13.527405 6.0348816l-2.2687378 5.061676l-13.527405 -6.0348816l-1.163147 2.5950012l-4.0525208 -1.8079224l4.60141 -10.265961zm11.060547 -0.34213257l-2.0642395 4.605438l-1.269989 -0.56658936q-1.6695251 -0.744812 -2.4466248 -1.5705566q-0.77072144 -0.83999634 -0.9473572 -2.3559875q-0.19091797 -1.5223694 0.65267944 -3.4044495q1.0033569 -2.238556 2.3614197 -3.052765q1.3580627 -0.814209 2.6446838 -0.51397705q1.2929993 0.28598022 4.7604675 1.8329163l7.291687 3.2529907l-2.134552 4.7622375l-0.6559448 -0.44662476q0.1539917 2.746582E-4 0.2689209 0.8898926q0.107055664 0.86901855 -0.3083496 1.7958069q-0.5432129 1.2119446 -1.7089539 1.9408875q-1.1736145 0.7082825 -3.4424438 -0.30389404l-1.1415405 -0.50927734q-1.6838074 -0.75115967 -2.0688171 -1.5730896q-0.3928833 -0.8425293 -0.26379395 -3.231598q0.10498047 -2.2971497 -0.0357666 -2.4797058q-0.15505981 -0.18893433 -0.9398804 -0.5390625q-1.0131226 -0.45196533 -1.2576294 -0.44128418q-0.24450684 0.010681152 -0.3211975 0.18179321q-0.08947754 0.19961548 0.027648926 0.3203125q0.102874756 0.11431885 1.2158813 0.61087036l1.7836914 0.79571533zm2.5185242 0.30233765q0.12069702 0.53289795 0.4848938 0.8664551q0.36416626 0.33358765 1.2488708 0.7282715q1.0131226 0.45196533 1.236969 0.44918823q0.20959473 -0.009185791 0.29904175 -0.20880127q0.08947754 -0.19961548 8.8500977E-4 -0.30755615q-0.08859253 -0.10797119 -1.0588989 -0.5408325l-2.2117615 -0.98672485zm3.8371277 -17.003418l-1.9683838 4.391571l-1.0844727 -0.48382568q-0.8847046 -0.39468384 -1.0386963 -0.3949585q-0.1539917 -2.4414062E-4 -0.24984741 0.21362305q-0.08947754 0.19961548 -0.00579834 0.35671997q0.09008789 0.14285278 0.44683838 0.30200195q0.585022 0.26098633 0.8388977 0.30581665q0.26028442 0.030548096 0.74676514 -0.21435547q0.47860718 -0.26556396 1.7357178 -1.3129883q1.7981567 -1.4904785 2.9497986 -1.7295227q1.15802 -0.2532959 2.784729 0.47244263q1.7836914 0.79571533 2.5081787 1.7006531q0.7244873 0.90493774 0.7397156 2.2462463q9.460449E-4 1.3349609 -0.68289185 2.8605957q-0.7541199 1.6824646 -1.8459778 2.6667786q-1.0918274 0.98431396 -2.2445068 1.034668q-1.1669617 0.044006348 -2.9649048 -0.75808716l-0.99887085 -0.44561768l1.9683838 -4.3915405l1.1986389 0.534729q1.0559387 0.47106934 1.2940369 0.4746399q0.23812866 0.0036010742 0.3276062 -0.1960144q0.13421631 -0.29943848 0.058380127 -0.4359131q-0.075805664 -0.13647461 -0.6893921 -0.4102173q-0.85617065 -0.381958 -1.0770264 -0.3093872q-0.29711914 0.08987427 -2.4878235 1.7302856q-1.9742737 1.4631958 -3.0999146 1.4914246q-1.1256409 0.028198242 -2.3670654 -0.52563477q-1.7551575 -0.7829895 -2.4082947 -1.6560974q-0.6531372 -0.8731079 -0.61917114 -2.2095947q0.040374756 -1.350708 0.69226074 -2.8050537q0.6454773 -1.440094 1.4908752 -2.2947998q0.83114624 -0.861084 1.7289124 -1.1449585q0.88986206 -0.30447388 1.4974976 -0.17028809q0.6140442 0.1199646 1.6842346 0.5974121l1.141571 0.5092468zm-0.025909424 -13.5802l5.0531006 4.427185l9.696838 1.5542908l-2.1345215 4.7622375l-6.8306885 -1.7983398l6.511139 2.511261l-2.185669 4.876343l-17.579926 -7.8428345l2.185669 -4.8763123l7.287384 3.6445923l-3.9013977 -3.0237122l1.8980713 -4.2347107zm-0.8459778 -6.2877502l1.6168823 -3.6073303q1.4507141 -3.2366333 2.2950745 -4.2800293q0.85076904 -1.0576172 1.8803711 -1.3682251q1.0295715 -0.3106079 1.9845886 -0.072753906q0.94711304 0.21722412 3.3729248 1.2994385l5.936096 2.6482239q2.3116455 1.0312805 3.0448914 1.6492615q0.739624 0.60369873 0.9642639 1.4396362q0.21673584 0.8152771 0.025177002 1.7392578q-0.19155884 0.92401123 -0.9137268 2.5351868l-2.6266174 5.860138l-17.579926 -7.842804zm5.8154297 -3.4623108l10.473755 4.672577q0.19812012 -0.44198608 0.0051879883 -0.6991577q-0.19293213 -0.25717163 -1.8053894 -0.976532l-6.5782166 -2.9346924q-1.1130066 -0.496521 -1.3668823 -0.5413513q-0.26174927 -0.065460205 -0.42404175 0.06744385q-0.17019653 0.11230469 -0.30441284 0.41171265z" fill-rule="nonzero"/><path fill="#000000" fill-opacity="0.0" d="m470.9132 298.42776l61.228333 123.055115" fill-rule="evenodd"/><path stroke="#8e7cc3" stroke-width="2.9238845144356955" stroke-linejoin="round" stroke-linecap="butt" d="m470.9132 298.4278l53.41333 107.34866" fill-rule="evenodd"/><path stroke="#8e7cc3" stroke-width="2.9238845144356955" stroke-linecap="butt" d="m520.00275 407.92783l10.23468 9.72818l-1.5870972 -14.030945z" fill-rule="evenodd"/><path fill="#000000" fill-opacity="0.0" d="m505.71863 291.33023l46.92914 94.77167l-30.677185 15.212585l-46.929108 -94.77164z" fill-rule="evenodd"/><path fill="#8e7cc3" d="m514.9762 324.2477l-3.975525 1.9714355l-1.2688599 -2.5624084l-13.270416 6.580719l-2.4614563 -4.970825l13.270416 -6.580719l-1.2619324 -2.5484314l3.975525 -1.9714355l4.9922485 10.081665zm-6.778595 8.740143l-2.2395935 -4.5227356l1.2458496 -0.61782837q1.6378174 -0.8121643 2.769867 -0.8851929q1.1389465 -0.059020996 2.4212952 0.77008057q1.2963257 0.8221741 2.211609 2.6704712q1.088562 2.1983643 0.85217285 3.7631836q-0.23638916 1.5647888 -1.2873535 2.3649902q-1.0440063 0.814209 -4.445587 2.5010376l-7.153137 3.5472107l-2.315857 -4.6767883l0.7623291 -0.22106934q-0.0982666 0.118499756 -0.8579712 -0.359375q-0.73876953 -0.47079468 -1.1894531 -1.3809509q-0.58935547 -1.1901855 -0.40960693 -2.5524902q0.20071411 -1.3552551 2.4264526 -2.4589844l1.1198425 -0.55532837q1.651825 -0.8191223 2.5312195 -0.59246826q0.9003601 0.23370361 2.6617737 1.854248q1.7058105 1.543457 1.9363403 1.551239q0.24450684 8.239746E-4 1.0144043 -0.38095093q0.9938965 -0.4928589 1.1413269 -0.68807983q0.14746094 -0.19519043 0.0642395 -0.3632202q-0.097076416 -0.19604492 -0.2647705 -0.18261719q-0.15371704 0.0064697266 -1.2456055 0.5479126l-1.7497864 0.8677063zm-1.8369446 1.7480774q-0.48809814 -0.24630737 -0.9773865 -0.17807007q-0.48928833 0.068237305 -1.3571777 0.4986267q-0.9938965 0.4928589 -1.1342468 0.66711426q-0.12640381 0.16729736 -0.029327393 0.3633423q0.097076416 0.1960144 0.23678589 0.19650269q0.13973999 4.8828125E-4 1.0916138 -0.47155762l2.1697388 -1.0759583zm10.678101 13.78244l-2.135559 -4.3127136l1.0639038 -0.5275574q0.8678589 -0.4303894 0.9661255 -0.54888916q0.0982666 -0.11846924 -0.0057373047 -0.3284912q-0.09710693 -0.19604492 -0.27160645 -0.2315979q-0.16760254 -0.021514893 -0.5175781 0.15200806q-0.5739136 0.28460693 -0.7701416 0.45169067q-0.18933105 0.18109131 -0.3100586 0.711853q-0.099853516 0.5378418 -0.09197998 2.1733704q0.0051879883 2.3344727 -0.5435791 3.3740234q-0.54193115 1.0535278 -2.1376953 1.8448792q-1.7498169 0.8677368 -2.9094543 0.8497925q-1.1596375 -0.017913818 -2.2044067 -0.860199q-1.0307617 -0.84921265 -1.7726746 -2.3474731q-0.81817627 -1.6522827 -0.88253784 -3.1202698q-0.064331055 -1.4679565 0.6307373 -2.3881836q0.7090759 -0.92718506 2.4728699 -1.8018494l0.9798889 -0.48590088l2.135559 4.3127136l-1.1758423 0.58309937q-1.0358887 0.5136719 -1.1902771 0.69488525q-0.15435791 0.18118286 -0.057281494 0.37722778q0.14559937 0.29403687 0.29919434 0.32254028q0.15359497 0.0284729 0.7555237 -0.27001953q0.83987427 -0.4165039 0.92453 -0.63290405q0.11984253 -0.2861328 0.24884033 -3.0185242q0.1279602 -2.4528503 0.8229065 -3.3381348q0.6949463 -0.8852539 1.9127808 -1.4891968q1.7218018 -0.8538208 2.8114624 -0.801178q1.0896606 0.052612305 2.0993652 0.929718q1.0166626 0.8911133 1.723877 2.3193665q0.7003174 1.4142151 0.8215332 2.6098022q0.13531494 1.1886597 -0.21728516 2.0611267q-0.33166504 0.8795471 -0.8220825 1.2622681q-0.48358154 0.39675903 -1.5334473 0.9173889l-1.119873 0.55532837zm10.496216 8.626434l-6.633911 1.0747375l-7.3737183 6.481964l-2.315857 -4.676758l5.7371216 -4.118164l-6.0838013 3.4180298l-2.371338 -4.788788l17.245972 -8.552155l2.371338 4.788788l-7.4526367 3.2945557l4.817505 -1.0809021l2.0593262 4.1586914zm5.390869 3.3515015l3.8828735 7.841278l-3.975586 1.9714661l-1.4282837 -2.884491l-2.4917603 1.2356262l1.3382568 2.7024536l-3.8075562 1.8881226l-1.3381958 -2.7024536l-3.0096436 1.4924622l1.5669556 3.1645203l-3.9614868 1.964508l-4.0215454 -8.121338l17.245972 -8.552155z" fill-rule="nonzero"/><path fill="#000000" fill-opacity="0.0" d="m721.8619 230.69292l213.92126 0l0 78.61418l-213.92126 0z" fill-rule="evenodd"/><path fill="#666666" d="m735.84625 291.61868l0 -42.031265l8.046875 0l24.796875 30.26564l-3.90625 0l0 -30.26564l9.609375 0l0 42.031265l-7.984375 0l-24.859375 -30.265625l3.90625 0l0 30.265625l-9.609375 0zm65.995544 0l0 -33.03125q0 -5.4531403 3.234375 -8.718765q3.25 -3.28125 9.25 -3.28125q2.046875 0 3.9375 0.421875q1.890625 0.421875 3.203125 1.3125l-2.453125 6.78125q-0.78125 -0.53125 -1.75 -0.828125q-0.953125 -0.3125 -2.03125 -0.3125q-2.046875 0 -3.15625 1.171875q-1.109375 1.1718903 -1.109375 3.5156403l0 3.0l0.234375 4.03125l0 25.9375l-9.359375 0zm-4.984375 -24.375l0 -7.203125l22.390625 0l0 7.203125l-22.390625 0zm27.328125 24.375l0 -32.3125l9.359375 0l0 32.3125l-9.359375 0zm4.671875 -36.812515q-2.578125 0 -4.203125 -1.5q-1.625 -1.5 -1.625 -3.71875q0 -2.21875 1.625 -3.71875q1.625 -1.5 4.203125 -1.5q2.578125 0 4.203125 1.40625q1.625 1.40625 1.625 3.625q0 2.34375 -1.59375 3.875q-1.59375 1.53125 -4.234375 1.53125zm13.336182 36.812515l0 -44.562515l9.359375 0l0 44.562515l-9.359375 0zm34.105347 0.484375q-5.53125 0 -9.703125 -2.15625q-4.171875 -2.171875 -6.453125 -5.921875q-2.28125 -3.75 -2.28125 -8.5625q0 -4.859375 2.25 -8.609375q2.25 -3.75 6.15625 -5.875q3.90625 -2.140625 8.828125 -2.140625q4.75 0 8.5625 2.015625q3.8125 2.0 6.03125 5.765625q2.21875 3.75 2.21875 8.96875q0 0.546875 -0.0625 1.234375q-0.0625 0.6875 -0.125 1.28125l-26.234375 0l0 -5.453125l21.3125 0l-3.59375 1.609375q0 -2.515625 -1.03125 -4.375q-1.015625 -1.859375 -2.828125 -2.90625q-1.796875 -1.0625 -4.1875 -1.0625q-2.40625 0 -4.234375 1.0625q-1.828125 1.046875 -2.859375 2.9375q-1.015625 1.890625 -1.015625 4.46875l0 1.4375q0 2.640625 1.171875 4.65625q1.171875 2.015625 3.296875 3.0625q2.140625 1.046875 5.015625 1.046875q2.578125 0 4.53125 -0.78125q1.953125 -0.78125 3.578125 -2.328125l4.984375 5.390625q-2.21875 2.53125 -5.59375 3.890625q-3.359375 1.34375 -7.734375 1.34375zm32.717773 0q-4.140625 0 -7.953125 -0.984375q-3.8125 -1.0 -6.03125 -2.5l3.125 -6.734375q2.21875 1.390625 5.25 2.265625q3.03125 0.859375 5.96875 0.859375q3.25 0 4.59375 -0.78125q1.359375 -0.78125 1.359375 -2.15625q0 -1.140625 -1.0625 -1.703125q-1.046875 -0.578125 -2.796875 -0.875q-1.734375 -0.3125 -3.8125 -0.609375q-2.0625 -0.296875 -4.171875 -0.796875q-2.09375 -0.515625 -3.84375 -1.53125q-1.734375 -1.03125 -2.78125 -2.765625q-1.046875 -1.75 -1.046875 -4.515625q0 -3.0625 1.765625 -5.390625q1.78125 -2.34375 5.140625 -3.6875q3.359375 -1.359375 8.046875 -1.359375q3.296875 0 6.71875 0.71875q3.421875 0.71875 5.703125 2.09375l-3.125 6.671875q-2.328125 -1.375 -4.703125 -1.890625q-2.375 -0.515625 -4.59375 -0.515625q-3.125 0 -4.578125 0.84375q-1.4375 0.84375 -1.4375 2.15625q0 1.203125 1.046875 1.8125q1.0625 0.59375 2.796875 0.953125q1.75 0.359375 3.8125 0.640625q2.078125 0.265625 4.171875 0.8125q2.109375 0.53125 3.8125 1.53125q1.71875 0.984375 2.796875 2.703125q1.078125 1.703125 1.078125 4.46875q0 3.0 -1.796875 5.3125q-1.796875 2.3125 -5.1875 3.640625q-3.390625 1.3125 -8.265625 1.3125z" fill-rule="nonzero"/><path fill="#000000" fill-opacity="0.0" d="m684.6965 262.03452l7.3931885 -5.7821655l6.671875 8.530701l6.671814 -8.530701l7.3931885 5.7821655l-8.1073 10.366119l8.1073 10.366119l-7.3931885 5.782196l-6.671814 -8.530701l-6.671875 8.530701l-7.3931885 -5.782196l8.1073 -10.366119z" fill-rule="evenodd"/><path stroke="#666666" stroke-width="2.816272965879265" stroke-linejoin="round" stroke-linecap="butt" d="m684.6965 262.03452l7.3931885 -5.7821655l6.671875 8.530701l6.671814 -8.530701l7.3931885 5.7821655l-8.1073 10.366119l8.1073 10.366119l-7.3931885 5.782196l-6.671814 -8.530701l-6.671875 8.530701l-7.3931885 -5.782196l8.1073 -10.366119z" fill-rule="evenodd"/><path fill="#000000" fill-opacity="0.0" d="m268.08115 64.457596l146.36221 0l0 47.2126l-146.36221 0z" fill-rule="evenodd"/><path fill="#666666" d="m288.68515 97.23257l0 -14.0q0 -2.3125 1.375 -3.703125q1.375 -1.390625 3.921875 -1.390625q0.859375 0 1.65625 0.1875q0.8125 0.171875 1.375 0.546875l-1.046875 2.890625q-0.328125 -0.234375 -0.734375 -0.359375q-0.40625 -0.125 -0.859375 -0.125q-0.875 0 -1.34375 0.5q-0.46875 0.484375 -0.46875 1.484375l0 1.265625l0.09375 1.703125l0 11.0l-3.96875 0zm-2.109375 -10.328125l0 -3.0625l9.5 0l0 3.0625l-9.5 0zm11.578125 10.328125l0 -13.6875l3.96875 0l0 13.6875l-3.96875 0zm2.0 -15.609375q-1.09375 0 -1.78125 -0.625q-0.6875 -0.640625 -0.6875 -1.578125q0 -0.953125 0.6875 -1.578125q0.6875 -0.640625 1.78125 -0.640625q1.09375 0 1.78125 0.609375q0.6875 0.59375 0.6875 1.53125q0 0.984375 -0.6875 1.640625q-0.671875 0.640625 -1.78125 0.640625zm5.6349792 15.609375l0 -18.890625l3.96875 0l0 18.890625l-3.96875 0zm14.458252 0.203125q-2.34375 0 -4.109375 -0.90625q-1.765625 -0.921875 -2.734375 -2.515625q-0.96875 -1.59375 -0.96875 -3.625q0 -2.0625 0.953125 -3.65625q0.953125 -1.59375 2.609375 -2.484375q1.65625 -0.90625 3.75 -0.90625q2.0 0 3.609375 0.859375q1.625 0.84375 2.5625 2.4375q0.953125 1.578125 0.953125 3.796875q0 0.234375 -0.03125 0.53125q-0.015625 0.28125 -0.046875 0.53125l-11.125 0l0 -2.3125l9.03125 0l-1.515625 0.6875q0 -1.0625 -0.4375 -1.84375q-0.4375 -0.796875 -1.203125 -1.234375q-0.765625 -0.453125 -1.78125 -0.453125q-1.015625 0 -1.796875 0.453125q-0.765625 0.4375 -1.203125 1.234375q-0.4375 0.796875 -0.4375 1.890625l0 0.625q0 1.109375 0.5 1.96875q0.5 0.84375 1.40625 1.296875q0.90625 0.4375 2.125 0.4375q1.09375 0 1.921875 -0.328125q0.828125 -0.328125 1.515625 -0.984375l2.109375 2.28125q-0.9375 1.078125 -2.375 1.65625q-1.421875 0.5625 -3.28125 0.5625zm10.764008 0q-1.015625 0 -1.75 -0.703125q-0.71875 -0.703125 -0.71875 -1.796875q0 -1.09375 0.71875 -1.765625q0.734375 -0.671875 1.75 -0.671875q1.046875 0 1.75 0.671875q0.71875 0.671875 0.71875 1.765625q0 1.09375 -0.71875 1.796875q-0.703125 0.703125 -1.75 0.703125zm5.1687317 -0.203125l0 -13.6875l3.796875 0l0 3.734375l-0.71875 -1.09375q0.71875 -1.40625 2.03125 -2.125q1.3125 -0.71875 2.984375 -0.71875q1.890625 0 3.296875 0.953125q1.421875 0.953125 1.875 2.90625l-1.40625 -0.375q0.6875 -1.609375 2.203125 -2.546875q1.515625 -0.9375 3.484375 -0.9375q1.625 0 2.875 0.65625q1.265625 0.640625 1.984375 1.984375q0.734375 1.328125 0.734375 3.40625l0 7.84375l-3.96875 0l0 -7.234375q0 -1.65625 -0.6875 -2.4375q-0.6875 -0.796875 -1.9375 -0.796875q-0.859375 0 -1.546875 0.40625q-0.6875 0.390625 -1.078125 1.1875q-0.375 0.78125 -0.375 2.0l0 6.875l-3.96875 0l0 -7.234375q0 -1.65625 -0.6875 -2.4375q-0.671875 -0.796875 -1.90625 -0.796875q-0.875 0 -1.5625 0.40625q-0.6875 0.390625 -1.078125 1.1875q-0.375 0.78125 -0.375 2.0l0 6.875l-3.96875 0zm34.794037 0.203125q-1.71875 0 -3.03125 -0.765625q-1.296875 -0.765625 -2.015625 -2.328125q-0.71875 -1.5625 -0.71875 -3.953125q0 -2.421875 0.671875 -3.96875q0.6875 -1.5625 1.984375 -2.3125q1.3125 -0.765625 3.109375 -0.765625q1.9375 0 3.46875 0.875q1.546875 0.875 2.453125 2.453125q0.90625 1.578125 0.90625 3.71875q0 2.15625 -0.90625 3.734375q-0.90625 1.578125 -2.453125 2.453125q-1.53125 0.859375 -3.46875 0.859375zm-8.09375 4.734375l0 -18.625l3.796875 0l0 2.796875l-0.078125 4.0625l0.25 4.046875l0 7.71875l-3.96875 0zm7.40625 -7.984375q1.0 0 1.765625 -0.453125q0.78125 -0.46875 1.25 -1.3125q0.46875 -0.859375 0.46875 -2.03125q0 -1.203125 -0.46875 -2.03125q-0.46875 -0.84375 -1.25 -1.296875q-0.765625 -0.46875 -1.765625 -0.46875q-0.984375 0 -1.78125 0.46875q-0.78125 0.453125 -1.25 1.296875q-0.453125 0.828125 -0.453125 2.03125q0 1.171875 0.453125 2.03125q0.46875 0.84375 1.25 1.3125q0.796875 0.453125 1.78125 0.453125zm9.109497 -0.6875l0 -2.78125l8.40625 -11.296875l4.328125 0l-8.21875 11.296875l-2.015625 -0.578125l14.03125 0l0 3.359375l-16.53125 0zm9.609375 3.734375l0 -3.734375l0.125 -3.359375l0 -3.34375l3.890625 0l0 10.4375l-4.015625 0z" fill-rule="nonzero"/><path fill="#000000" fill-opacity="0.0" d="m49.378567 428.33597l146.3622 0l0 47.212585l-146.3622 0z" fill-rule="evenodd"/><path fill="#666666" d="m79.20946 461.11093l0 -14.0q0 -2.3125 1.375 -3.703125q1.375 -1.390625 3.921875 -1.390625q0.859375 0 1.65625 0.1875q0.8125 0.171875 1.375 0.546875l-1.046875 2.890625q-0.328125 -0.234375 -0.734375 -0.359375q-0.40625 -0.125 -0.859375 -0.125q-0.875 0 -1.34375 0.5q-0.46875 0.484375 -0.46875 1.484375l0 1.265625l0.09375 1.703125l0 11.0l-3.96875 0zm-2.109375 -10.328125l0 -3.0625l9.5 0l0 3.0625l-9.5 0zm11.578125 10.328125l0 -13.6875l3.96875 0l0 13.6875l-3.96875 0zm2.0 -15.609375q-1.09375 0 -1.78125 -0.625q-0.6875 -0.640625 -0.6875 -1.578125q0 -0.953125 0.6875 -1.578125q0.6875 -0.640625 1.78125 -0.640625q1.09375 0 1.78125 0.609375q0.6875 0.59375 0.6875 1.53125q0 0.984375 -0.6875 1.640625q-0.671875 0.640625 -1.78125 0.640625zm5.634964 15.609375l0 -18.890625l3.96875 0l0 18.890625l-3.96875 0zm14.458252 0.203125q-2.34375 0 -4.109375 -0.90625q-1.765625 -0.921875 -2.734375 -2.515625q-0.96875 -1.59375 -0.96875 -3.625q0 -2.0625 0.953125 -3.65625q0.953125 -1.59375 2.609375 -2.484375q1.65625 -0.90625 3.75 -0.90625q2.0 0 3.609375 0.859375q1.625 0.84375 2.5625 2.4375q0.953125 1.578125 0.953125 3.796875q0 0.234375 -0.03125 0.53125q-0.015625 0.28125 -0.046875 0.53125l-11.125 0l0 -2.3125l9.03125 0l-1.515625 0.6875q0 -1.0625 -0.4375 -1.84375q-0.4375 -0.796875 -1.203125 -1.234375q-0.765625 -0.453125 -1.78125 -0.453125q-1.015625 0 -1.796875 0.453125q-0.765625 0.4375 -1.203125 1.234375q-0.4375 0.796875 -0.4375 1.890625l0 0.625q0 1.109375 0.5 1.96875q0.5 0.84375 1.40625 1.296875q0.90625 0.4375 2.125 0.4375q1.09375 0 1.921875 -0.328125q0.828125 -0.328125 1.515625 -0.984375l2.109375 2.28125q-0.9375 1.078125 -2.375 1.65625q-1.421875 0.5625 -3.28125 0.5625zm10.764023 0q-1.015625 0 -1.75 -0.703125q-0.71875 -0.703125 -0.71875 -1.796875q0 -1.09375 0.71875 -1.765625q0.734375 -0.671875 1.75 -0.671875q1.046875 0 1.75 0.671875q0.71875 0.671875 0.71875 1.765625q0 1.09375 -0.71875 1.796875q-0.703125 0.703125 -1.75 0.703125zm11.615433 0q-2.21875 0 -3.953125 -0.90625q-1.71875 -0.90625 -2.703125 -2.5q-0.984375 -1.609375 -0.984375 -3.640625q0 -2.0625 0.984375 -3.65625q0.984375 -1.59375 2.703125 -2.484375q1.734375 -0.90625 3.953125 -0.90625q2.15625 0 3.765625 0.90625q1.609375 0.890625 2.359375 2.578125l-3.078125 1.65625q-0.53125 -0.96875 -1.34375 -1.421875q-0.796875 -0.46875 -1.734375 -0.46875q-1.015625 0 -1.828125 0.46875q-0.8125 0.453125 -1.28125 1.296875q-0.46875 0.828125 -0.46875 2.03125q0 1.1875 0.46875 2.03125q0.46875 0.84375 1.28125 1.3125q0.8125 0.453125 1.828125 0.453125q0.9375 0 1.734375 -0.4375q0.8125 -0.453125 1.34375 -1.453125l3.078125 1.671875q-0.75 1.65625 -2.359375 2.5625q-1.609375 0.90625 -3.765625 0.90625zm13.027145 0q-1.75 0 -3.375 -0.421875q-1.609375 -0.421875 -2.546875 -1.046875l1.3125 -2.859375q0.953125 0.59375 2.234375 0.96875q1.28125 0.359375 2.53125 0.359375q1.375 0 1.9375 -0.328125q0.578125 -0.34375 0.578125 -0.921875q0 -0.484375 -0.453125 -0.71875q-0.4375 -0.25 -1.171875 -0.375q-0.734375 -0.125 -1.625 -0.25q-0.875 -0.125 -1.765625 -0.34375q-0.890625 -0.21875 -1.625 -0.65625q-0.734375 -0.4375 -1.1875 -1.171875q-0.4375 -0.734375 -0.4375 -1.90625q0 -1.296875 0.75 -2.28125q0.75 -1.0 2.171875 -1.5625q1.421875 -0.578125 3.40625 -0.578125q1.40625 0 2.859375 0.3125q1.453125 0.296875 2.421875 0.875l-1.328125 2.828125q-1.0 -0.59375 -2.0 -0.796875q-1.0 -0.21875 -1.953125 -0.21875q-1.3125 0 -1.9375 0.359375q-0.609375 0.34375 -0.609375 0.90625q0 0.515625 0.4375 0.765625q0.453125 0.25 1.1875 0.40625q0.75 0.15625 1.625 0.28125q0.875 0.109375 1.765625 0.34375q0.890625 0.21875 1.609375 0.640625q0.734375 0.421875 1.1875 1.15625q0.46875 0.71875 0.46875 1.875q0 1.28125 -0.765625 2.265625q-0.765625 0.96875 -2.203125 1.53125q-1.4375 0.5625 -3.5 0.5625zm12.370285 -0.203125l-5.75 -13.6875l4.09375 0l4.78125 11.78125l-2.03125 0l4.96875 -11.78125l3.8125 0l-5.78125 13.6875l-4.09375 0z" fill-rule="nonzero"/><path fill="#000000" fill-opacity="0.0" d="m111.43733 244.37364l146.3622 0l0 47.2126l-146.3622 0z" fill-rule="evenodd"/><path fill="#666666" d="m133.55595 277.14862l0 -14.0q0 -2.3125 1.375 -3.703125q1.375 -1.390625 3.921875 -1.390625q0.859375 0 1.65625 0.1875q0.8125 0.171875 1.375 0.546875l-1.046875 2.890625q-0.328125 -0.234375 -0.734375 -0.359375q-0.40625 -0.125 -0.859375 -0.125q-0.875 0 -1.34375 0.5q-0.46875 0.484375 -0.46875 1.484375l0 1.265625l0.09375 1.703125l0 11.0l-3.96875 0zm-2.109375 -10.328125l0 -3.0625l9.5 0l0 3.0625l-9.5 0zm11.578125 10.328125l0 -13.6875l3.96875 0l0 13.6875l-3.96875 0zm2.0 -15.609375q-1.09375 0 -1.78125 -0.625q-0.6875 -0.640625 -0.6875 -1.578125q0 -0.953125 0.6875 -1.578125q0.6875 -0.640625 1.78125 -0.640625q1.09375 0 1.78125 0.609375q0.6875 0.59375 0.6875 1.53125q0 0.984375 -0.6875 1.640625q-0.671875 0.640625 -1.78125 0.640625zm5.634964 15.609375l0 -18.890625l3.96875 0l0 18.890625l-3.96875 0zm14.458252 0.203125q-2.34375 0 -4.109375 -0.90625q-1.765625 -0.921875 -2.734375 -2.515625q-0.96875 -1.59375 -0.96875 -3.625q0 -2.0625 0.953125 -3.65625q0.953125 -1.59375 2.609375 -2.484375q1.65625 -0.90625 3.75 -0.90625q2.0 0 3.609375 0.859375q1.625 0.84375 2.5625 2.4375q0.953125 1.578125 0.953125 3.796875q0 0.234375 -0.03125 0.53125q-0.015625 0.28125 -0.046875 0.53125l-11.125 0l0 -2.3125l9.03125 0l-1.515625 0.6875q0 -1.0625 -0.4375 -1.84375q-0.4375 -0.796875 -1.203125 -1.234375q-0.765625 -0.453125 -1.78125 -0.453125q-1.015625 0 -1.796875 0.453125q-0.765625 0.4375 -1.203125 1.234375q-0.4375 0.796875 -0.4375 1.890625l0 0.625q0 1.109375 0.5 1.96875q0.5 0.84375 1.40625 1.296875q0.90625 0.4375 2.125 0.4375q1.09375 0 1.921875 -0.328125q0.828125 -0.328125 1.515625 -0.984375l2.109375 2.28125q-0.9375 1.078125 -2.375 1.65625q-1.421875 0.5625 -3.28125 0.5625zm10.764023 0q-1.015625 0 -1.75 -0.703125q-0.71875 -0.703125 -0.71875 -1.796875q0 -1.09375 0.71875 -1.765625q0.734375 -0.671875 1.75 -0.671875q1.046875 0 1.75 0.671875q0.71875 0.671875 0.71875 1.765625q0 1.09375 -0.71875 1.796875q-0.703125 0.703125 -1.75 0.703125zm5.1687164 -0.203125l0 -13.6875l3.796875 0l0 3.734375l-0.71875 -1.09375q0.71875 -1.40625 2.03125 -2.125q1.3125 -0.71875 2.984375 -0.71875q1.890625 0 3.296875 0.953125q1.421875 0.953125 1.875 2.90625l-1.40625 -0.375q0.6875 -1.609375 2.203125 -2.546875q1.515625 -0.9375 3.484375 -0.9375q1.625 0 2.875 0.65625q1.265625 0.640625 1.984375 1.984375q0.734375 1.328125 0.734375 3.40625l0 7.84375l-3.96875 0l0 -7.234375q0 -1.65625 -0.6875 -2.4375q-0.6875 -0.796875 -1.9375 -0.796875q-0.859375 0 -1.546875 0.40625q-0.6875 0.390625 -1.078125 1.1875q-0.375 0.78125 -0.375 2.0l0 6.875l-3.96875 0l0 -7.234375q0 -1.65625 -0.6875 -2.4375q-0.671875 -0.796875 -1.90625 -0.796875q-0.875 0 -1.5625 0.40625q-0.6875 0.390625 -1.078125 1.1875q-0.375 0.78125 -0.375 2.0l0 6.875l-3.96875 0zm34.794037 0.203125q-1.71875 0 -3.03125 -0.765625q-1.296875 -0.765625 -2.015625 -2.328125q-0.71875 -1.5625 -0.71875 -3.953125q0 -2.421875 0.671875 -3.96875q0.6875 -1.5625 1.984375 -2.3125q1.3125 -0.765625 3.109375 -0.765625q1.9375 0 3.46875 0.875q1.546875 0.875 2.453125 2.453125q0.90625 1.578125 0.90625 3.71875q0 2.15625 -0.90625 3.734375q-0.90625 1.578125 -2.453125 2.453125q-1.53125 0.859375 -3.46875 0.859375zm-8.09375 4.734375l0 -18.625l3.796875 0l0 2.796875l-0.078125 4.0625l0.25 4.046875l0 7.71875l-3.96875 0zm7.40625 -7.984375q1.0 0 1.765625 -0.453125q0.78125 -0.46875 1.25 -1.3125q0.46875 -0.859375 0.46875 -2.03125q0 -1.203125 -0.46875 -2.03125q-0.46875 -0.84375 -1.25 -1.296875q-0.765625 -0.46875 -1.765625 -0.46875q-0.984375 0 -1.78125 0.46875q-0.78125 0.453125 -1.25 1.296875q-0.453125 0.828125 -0.453125 2.03125q0 1.171875 0.453125 2.03125q0.46875 0.84375 1.25 1.3125q0.796875 0.453125 1.78125 0.453125zm14.533585 3.359375q-1.859375 0 -3.6875 -0.5q-1.828125 -0.5 -3.109375 -1.421875l1.609375 -3.15625q1.015625 0.75 2.359375 1.1875q1.359375 0.421875 2.734375 0.421875q1.546875 0 2.4375 -0.609375q0.890625 -0.609375 0.890625 -1.6875q0 -1.015625 -0.796875 -1.59375q-0.78125 -0.59375 -2.53125 -0.59375l-1.890625 0l0 -2.71875l4.96875 -5.625l0.453125 1.46875l-9.34375 0l0 -3.296875l12.484375 0l0 2.671875l-4.9375 5.625l-2.09375 -1.203125l1.203125 0q3.28125 0 4.953125 1.484375q1.6875 1.46875 1.6875 3.78125q0 1.515625 -0.796875 2.828125q-0.78125 1.296875 -2.421875 2.125q-1.625 0.8125 -4.171875 0.8125z" fill-rule="nonzero"/><path fill="#000000" fill-opacity="0.0" d="m320.79953 129.30922l-109.79529 112.81891" fill-rule="evenodd"/><path stroke="#e06666" stroke-width="2.9238845144356955" stroke-linejoin="round" stroke-linecap="butt" d="m320.79953 129.30923l-97.559906 100.24657" fill-rule="evenodd"/><path stroke="#e06666" stroke-width="2.9238845144356955" stroke-linecap="butt" d="m219.7786 226.18753l-5.7931976 12.877335l12.7152405 -6.140808z" fill-rule="evenodd"/><path fill="#000000" fill-opacity="0.0" d="m208.97185 193.49835l74.23622 -75.27559l24.409454 24.0l-74.23622 75.27559z" fill-rule="evenodd"/><path fill="#e06666" d="m236.29366 174.77484l3.164215 3.111145l-2.007782 2.0358887l10.562241 10.385071l-3.894867 3.9494019l-10.562241 -10.385071l-1.9968109 2.024765l-3.164215 -3.111145l7.89946 -8.010056zm10.480789 3.5471954l-3.5437927 3.593399l-0.99160767 -0.9749603q-1.3035583 -1.2817078 -1.7428436 -2.327179q-0.4283142 -1.0565948 -0.063797 -2.5388336q0.3533783 -1.4931946 1.8016205 -2.9617004q1.7225189 -1.7466431 3.279358 -2.0346527q1.5568542 -0.28800964 2.6571503 0.4432373q1.1112671 0.72010803 3.8186798 3.3821106l5.693344 5.5978546l-3.6644592 3.7157745l-0.4583435 -0.64785767q0.14416504 0.054092407 -0.059188843 0.92785645q-0.20352173 0.8516998 -0.91667175 1.5748291q-0.9325714 0.94563293 -2.2794342 1.2209778q-1.3470154 0.25326538 -3.1185303 -1.4885254l-0.8913269 -0.87638855q-1.3147125 -1.2926483 -1.388031 -2.197403q-0.07348633 -0.92684937 0.88264465 -3.1202393q0.9014435 -2.1156921 0.83340454 -2.3359833q-0.07917786 -0.23124695 -0.6919708 -0.8337555q-0.79104614 -0.777771 -1.0238342 -0.8532715q-0.23278809 -0.07548523 -0.36444092 0.058013916q-0.15359497 0.15574646 -0.08607483 0.3097992q0.056396484 0.14309692 0.92544556 0.9975586l1.3927002 1.369339zm2.2535706 1.163971q-0.07322693 0.54156494 0.15130615 0.9814453q0.22453308 0.43989563 0.9153137 1.1190948q0.7910614 0.77778625 1.0017242 0.85343933q0.19952393 0.064712524 0.35313416 -0.091049194q0.15359497 -0.15574646 0.10835266 -0.28788757q-0.04525757 -0.13214111 -0.8028717 -0.87705994l-1.7269592 -1.6979828zm9.53894 -14.590256l-3.3791962 3.4265137l-0.84677124 -0.83255005q-0.69078064 -0.6791992 -0.8349304 -0.7332916q-0.14416504 -0.054092407 -0.30873108 0.11279297q-0.15361023 0.15574646 -0.13012695 0.33221436q0.034439087 0.16534424 0.31298828 0.43920898q0.45680237 0.44914246 0.6789551 0.57992554q0.23312378 0.119644165 0.77445984 0.060272217q0.5411835 -0.081451416 2.0850067 -0.623291q2.205536 -0.767746 3.36792 -0.5890198q1.1733398 0.1676178 2.4434814 1.4164429q1.3927002 1.369339 1.7550354 2.4706116q0.3623047 1.1012573 -0.09237671 2.363388q-0.4658203 1.2511749 -1.6397705 2.4415588q-1.2946167 1.3127594 -2.66156 1.853241q-1.3669128 0.5404663 -2.464325 0.18458557q-1.108551 -0.36683655 -2.5123901 -1.7471313l-0.7799072 -0.76683044l3.3792114 -3.426529l0.93588257 0.92019653q0.8244934 0.8106537 1.0462952 0.8972626q0.22180176 0.086624146 0.37542725 -0.069122314q0.2303772 -0.23362732 0.20709229 -0.38801575q-0.02331543 -0.15438843 -0.5024109 -0.6254425q-0.66848755 -0.6572876 -0.90075684 -0.6665344q-0.30975342 -0.019699097 -2.9354248 0.75128174q-2.3609924 0.68063354 -3.4253082 0.31344604q-1.064331 -0.36717224 -2.0336456 -1.3202362q-1.3704224 -1.3474274 -1.6770325 -2.393921q-0.30659485 -1.0464935 0.19247437 -2.2868805q0.5100403 -1.2515106 1.6291351 -2.386261q1.1081085 -1.123642 2.198883 -1.6288605q1.0796356 -0.5161896 2.019867 -0.4682312q0.9400482 0.025878906 1.4623566 0.36412048q0.53326416 0.32710266 1.368866 1.1486969l0.8913269 0.87638855zm4.7234497 -12.733643l3.1858215 5.915283l8.540314 4.8472443l-3.6644592 3.7157745l-5.7700806 -4.0736694l5.2214966 4.6299286l-3.7522278 3.804779l-13.726471 -13.496216l3.7522583 -3.804779l5.552429 5.9632874l-2.5976257 -4.1974792l3.258545 -3.3041534zm7.714325 -12.584335l15.745209 11.4492035l-3.9936218 4.04953l-2.548706 -2.155365l-0.74606323 0.7565155l2.1756897 2.5335999l-4.02652 4.082901l-11.93811 -15.309586l5.332123 -5.4067993zm6.208008 10.683594q-2.2024536 -1.7053528 -5.5226746 -4.969864q3.5471191 4.0135193 4.9192505 5.5817413l0.6034241 -0.61187744z" fill-rule="nonzero"/><path fill="#000000" fill-opacity="0.0" d="m173.34602 299.39862l-41.417313 125.5748" fill-rule="evenodd"/><path stroke="#6aa850" stroke-width="2.9238845144356955" stroke-linejoin="round" stroke-linecap="butt" d="m173.34602 299.39862l-35.922318 108.914276" fill-rule="evenodd"/><path stroke="#6aa850" stroke-width="2.9238845144356955" stroke-linecap="butt" d="m132.83725 406.8002l0.4303131 14.113892l8.7425995 -11.08847z" fill-rule="evenodd"/><path fill="#000000" fill-opacity="0.0" d="m104.08013 397.26083l32.88189 -100.44095l32.53543 10.582672l-32.88188 100.44095z" fill-rule="evenodd"/><path fill="#6aa850" d="m120.008644 368.84424l4.2198944 1.3725891l-0.8896332 2.7174683l14.086113 4.581726l-1.7257843 5.271576l-14.086113 -4.581726l-0.8847656 2.7026062l-4.2198944 -1.3725891l3.500183 -10.69165zm10.964272 -1.5009155l-1.570221 4.7963867l-1.3224335 -0.43014526q-1.738472 -0.5654602 -2.5978928 -1.3050537q-0.8545532 -0.75445557 -1.1891403 -2.2434692q-0.34944153 -1.4938354 0.29225922 -3.4539795q0.76322937 -2.3313599 2.028534 -3.2835693q1.2653046 -0.95217896 2.5763626 -0.78863525q1.315918 0.14871216 4.926605 1.3231506l7.5928345 2.469696l-1.623703 4.959717l-0.69918823 -0.37530518q0.15318298 -0.015899658 0.36073303 0.85672q0.19755554 0.8529358 -0.11842346 1.8181458q-0.41322327 1.262207 -1.4961853 2.1094055q-1.0929565 0.82751465 -3.45549 0.059051514l-1.1887054 -0.3866272q-1.7533417 -0.5703125 -2.2223969 -1.347229q-0.47904968 -0.79663086 -0.60110474 -3.185913q-0.1363678 -2.2953796 -0.2955017 -2.4621582q-0.17399597 -0.17160034 -0.9912262 -0.43743896q-1.0549774 -0.34313965 -1.2970276 -0.30685425q-0.24205017 0.0362854 -0.30038452 0.21447754q-0.06806183 0.20788574 0.061080933 0.3156128q0.11428833 0.10290527 1.2732697 0.47988892l1.8573456 0.604126zm2.5364532 0.036346436q0.17591858 0.51727295 0.57307434 0.8107605q0.3971405 0.29348755 1.3183899 0.59313965q1.0549774 0.34317017 1.277298 0.31689453q0.20747375 -0.031097412 0.2755432 -0.23901367q0.0680542 -0.20788574 -0.03137207 -0.30593872q-0.09942627 -0.09805298 -1.1098175 -0.4267273l-2.3031158 -0.749115zm2.0338593 -17.31137l-1.4972992 4.573639l-1.1292725 -0.36730957q-0.92123413 -0.2996521 -1.0744171 -0.28375244q-0.15316772 0.015899658 -0.22608948 0.23864746q-0.0680542 0.20788574 0.03164673 0.35534668q0.10455322 0.13259888 0.47602844 0.25341797q0.60920715 0.19815063 0.86639404 0.21609497q0.26203918 0.0030822754 0.7201996 -0.29153442q0.44815063 -0.31430054 1.588623 -1.4878235q1.6320953 -1.6708679 2.7523804 -2.029419q1.1251526 -0.3734131 2.819046 0.17755127q1.8573456 0.604126 2.6727448 1.428009q0.8153839 0.82385254 0.9711151 2.1560974q0.14086914 1.3274231 -0.37928772 2.9163208q-0.5736389 1.7522583 -1.5563507 2.845642q-0.9827118 1.0934143 -2.123825 1.2644653q-1.1559601 0.16622925 -3.0281677 -0.44274902l-1.0401001 -0.33831787l1.4972992 -4.573639l1.2481232 0.40597534q1.0995483 0.3576355 1.3367462 0.33621216q0.23719788 -0.02142334 0.30525208 -0.2293396q0.1020813 -0.3118286 0.012390137 -0.4396057q-0.08970642 -0.12774658 -0.7286377 -0.3355713q-0.89152527 -0.28997803 -1.1035767 -0.19464111q-0.28608704 0.12054443 -2.2928772 1.9816895q-1.8101196 1.662262 -2.926651 1.8084412q-1.1165161 0.1461792 -2.4092255 -0.274292q-1.8276367 -0.5944824 -2.5687408 -1.394165q-0.74108887 -0.79971313 -0.8473816 -2.1322937q-0.1014328 -1.3474731 0.39442444 -2.8621216q0.4909973 -1.4997864 1.2422028 -2.438446q0.7363434 -0.94351196 1.5994415 -1.3200073q0.85310364 -0.3961792 1.4714966 -0.32647705q0.62324524 0.054840088 1.7376404 0.41732788l1.1887054 0.3866272zm-1.4492493 -13.501862l5.489563 3.8722534l9.806808 0.52804565l-1.6236877 4.9597473l-6.981903 -1.0715332l6.7388306 1.8139954l-1.6625824 5.0785522l-18.306007 -5.9543457l1.6625748 -5.0785217l7.629608 2.859558l-4.1970367 -2.5974426l1.4438324 -4.410309zm10.583984 -14.802826l-1.7209167 5.256714l-3.4026642 -1.106781q-1.2630005 -0.41079712 -1.485321 -0.38452148q-0.23719788 0.02142334 -0.32470703 0.2887268q-0.10694885 0.32669067 0.1264801 0.51760864q0.2185669 0.18612671 1.4964294 0.6017761l8.18718 2.6629944q1.2184143 0.3963318 1.5050507 0.37454224q0.2866211 -0.02178955 0.3789978 -0.30392456q0.09236145 -0.282135 -0.12620544 -0.46826172q-0.2185669 -0.18609619 -1.6004333 -0.6355896l-2.5557098 -0.8312683l1.7209167 -5.2567444l1.0401154 0.33831787q2.778595 0.9037781 3.8757477 1.7207336q1.0823059 0.81207275 1.5417175 2.5224304q0.46427917 1.6954956 -0.20658875 3.744751q-0.6854553 2.0937805 -1.9199371 3.2531433q-1.2444916 1.1397095 -2.7770538 1.1505737q-1.52771 -0.0039978027 -4.1725616 -0.86428833l-5.156006 -1.677063q-1.9316406 -0.6282959 -2.8834229 -1.0857544q-0.9666443 -0.46228027 -1.6891174 -1.4695435q-0.7373352 -1.0120544 -0.8736267 -2.403717q-0.13142395 -1.4064941 0.37902832 -2.9656982q0.6951752 -2.1234741 2.003952 -3.2586975q1.3087769 -1.1352234 2.6978912 -1.1598816q1.3939819 -0.039489746 3.9348297 0.7869568l2.0059357 0.6524658z" fill-rule="nonzero"/></g></svg>